<svg width="167" height="152" viewBox="0 0 167 152" fill="none" xmlns="http://www.w3.org/2000/svg">
    <circle cx="93.927" cy="72.095" fill="#FFF2D2" r="72.095"/>
    <path d="M161.86 17.848h3.969M160.538 11.896l3.307-2.646M1.978 46.744l7.937-7.937 7.937 7.937 7.937-7.937 7.937 7.937 7.937-7.937M1.978 56.004l7.937-7.937 7.937 7.937 7.937-7.937 7.937 7.937 7.937-7.937" stroke="#FFCB5E" stroke-width="1.984" stroke-linecap="round"/>
    <circle cx="48.062" cy="127.61" r="2.976" stroke="#FFCB5E" stroke-width="1.984"/>
    <path d="M155.908 5.943V9.91" stroke="#FFCB5E" stroke-width="1.984" stroke-linecap="round"/>
    <circle cx="97.341" cy="76.712" r="39.86" fill="#FFDA80"/>
    <path d="M115.616 54.074c0 15.036-24.56 44.974-38.807 44.974-14.247 0-15.718-15.423-15.718-30.459 3.61-24.893 33.693-29.33 33.693-29.33s20.832-.22 20.832 14.815z" fill="#FFEFC6"/>
    <circle cx="97.341" cy="76.712" r="37.904" stroke="#000" stroke-width="3.911"/>
    <path d="M99.03 46.233c-8.092-.436-16.545 2.595-22.964 9.014-5.497 5.496-8.51 12.484-8.987 19.459M71.299 92.876a29.962 29.962 0 0 1-3.949-11.502" stroke="#fff" stroke-width="3.008" stroke-linecap="round"/>
    <path d="M77.422 66.964c1.876.61 6.273.796 8.862-3.339M122.345 69.076c-1.959.22-6.304-.487-8.004-5.06" stroke="#000" stroke-width="1.984" stroke-linecap="round"/>
    <ellipse cx="82.984" cy="72.816" rx="1.984" ry="3.307" transform="rotate(7.302 82.984 72.816)" fill="#000"/>
    <ellipse cx="116.046" cy="73.619" rx="1.984" ry="3.307" transform="rotate(7.302 116.046 73.62)" fill="#000"/>
    <path d="M93.944 87.89c1.897-.73 6.312-1.617 8.798.685" stroke="#000" stroke-width="1.984" stroke-linecap="round"/>
    <ellipse cx="120.368" cy="81.245" rx="5.953" ry="2.646" transform="rotate(3.716 120.368 81.245)" fill="#FFEDC1"/>
    <ellipse cx="77.731" cy="79.505" rx="5.953" ry="2.646" transform="rotate(3.716 77.731 79.505)" fill="#FFDA80"/>
    <path fill="#E29A00" d="m116.833 111.307 3.648-2.106 8.348 14.46-3.648 2.105z"/>
    <rect x="117.346" y="117.611" width="10.228" height="39.709" rx="5.114" transform="rotate(-30 117.346 117.611)" fill="#000"/>
    <path d="M116.895 12.86h32.79a6.994 6.994 0 0 1 6.994 6.995v32.79a6.994 6.994 0 0 1-6.994 6.994h-32.79a6.995 6.995 0 0 1-6.995-6.994v-32.79a6.995 6.995 0 0 1 6.995-6.995z" fill="#fff" stroke="#000" stroke-width="1.955"/>
    <path d="m133.264 38.91-9.397 9.397c-.351.351-.799.527-1.342.527-.544 0-.991-.176-1.343-.527-.351-.352-.527-.8-.527-1.343 0-.543.176-.99.527-1.342l9.397-9.397-9.397-9.398c-.351-.351-.527-.799-.527-1.342s.176-.99.527-1.342c.352-.352.799-.528 1.343-.528.543 0 .991.176 1.342.528l9.397 9.397 9.397-9.397c.352-.352.8-.528 1.343-.528.543 0 .991.176 1.342.528.352.351.528.799.528 1.342s-.176.99-.528 1.343l-9.397 9.397 9.397 9.397c.352.351.528.799.528 1.342 0 .544-.176.991-.528 1.343-.351.351-.799.527-1.342.527s-.991-.176-1.343-.527l-9.397-9.397z" fill="#FF5A4E"/>
</svg>
