<svg width="22" height="23" viewBox="0 0 22 23" fill="none" xmlns="http://www.w3.org/2000/svg">
    <path fill-rule="evenodd" clip-rule="evenodd" d="m21.015 11.447-1.243-1.601.002-.001-2-3.978a.667.667 0 0 0-.596-.367h-2.845v-.667a.667.667 0 0 0-.666-.666H2.555a.667.667 0 1 0 0 1.333H13v4.667c0 .368.298.666.666.666h5.185l.971 1.25v3.44h-1.256a2.671 2.671 0 0 0-2.588-2.023 2.672 2.672 0 0 0-2.588 2.022H9.454A2.671 2.671 0 0 0 6.866 13.5c-1.248 0-2.299.862-2.588 2.022H2.555a.667.667 0 1 0 0 1.334H4.29a2.671 2.671 0 0 0 2.576 1.977c1.233 0 2.272-.84 2.577-1.977h3.959a2.671 2.671 0 0 0 2.576 1.977c1.233 0 2.272-.84 2.577-1.977h1.934a.667.667 0 0 0 .666-.667v-4.333a.667.667 0 0 0-.14-.41zm-4.248-4.614 1.34 2.667h-3.774V6.833h2.434zm-.789 8a1.335 1.335 0 0 1 1.333 1.356v.007a1.335 1.335 0 0 1-1.333 1.304 1.335 1.335 0 0 1-1.333-1.333c0-.736.598-1.334 1.333-1.334zM5.533 16.195A1.335 1.335 0 0 0 6.866 17.5c.736 0 1.334-.598 1.334-1.333a1.335 1.335 0 0 0-2.667 0V16.195zm-3.778-4.05h3.067a.667.667 0 1 1 0 1.333H1.755a.667.667 0 1 1 0-1.333zm4.6-2.623H.668a.667.667 0 1 0 0 1.333h5.689a.667.667 0 1 0 0-1.333zM1.756 6.9h5.69a.667.667 0 1 1 0 1.333h-5.69a.667.667 0 1 1 0-1.333z" fill="#000"/>
</svg>
