<svg width="20" height="20" viewBox="0 0 20 20" fill="none" xmlns="http://www.w3.org/2000/svg">
    <g clip-path="url(#4gu2a92s9a)">
        <path d="M10 14.63c.208 0 .382-.07.521-.21.14-.14.21-.313.21-.52V9.755c0-.207-.07-.38-.21-.52a.708.708 0 0 0-.52-.21c-.208 0-.382.07-.522.21a.708.708 0 0 0-.21.52V13.9c0 .208.07.381.21.521.14.14.314.21.522.21zm0-7.273c.223 0 .41-.076.561-.227a.762.762 0 0 0 .227-.56.762.762 0 0 0-.227-.562.762.762 0 0 0-.56-.226.762.762 0 0 0-.562.226.762.762 0 0 0-.226.561c0 .223.075.41.226.561.151.151.338.227.561.227zm.002 11.904a9.021 9.021 0 0 1-3.612-.73 9.353 9.353 0 0 1-2.941-1.978 9.353 9.353 0 0 1-1.98-2.94 9.014 9.014 0 0 1-.73-3.611c0-1.281.243-2.485.73-3.612a9.354 9.354 0 0 1 1.979-2.941 9.353 9.353 0 0 1 2.94-1.98 9.014 9.014 0 0 1 3.61-.73c1.282 0 2.486.243 3.613.73a9.355 9.355 0 0 1 2.94 1.978 9.353 9.353 0 0 1 1.981 2.94c.486 1.127.73 2.33.73 3.611a9.023 9.023 0 0 1-.73 3.612 9.355 9.355 0 0 1-1.979 2.942 9.353 9.353 0 0 1-2.94 1.98 9.014 9.014 0 0 1-3.61.73zM10 17.8c2.178 0 4.022-.756 5.533-2.267 1.51-1.51 2.266-3.355 2.266-5.532s-.755-4.021-2.266-5.532C14.022 2.957 12.178 2.2 10 2.2c-2.177 0-4.02.756-5.532 2.267C2.958 5.978 2.202 7.823 2.202 10s.755 4.021 2.266 5.532C5.98 17.043 7.823 17.8 10 17.8z" fill="#926100" stroke="#926100" stroke-width=".2"/>
    </g>
    <defs>
        <clipPath id="4gu2a92s9a">
            <path fill="#fff" d="M0 0h20v20H0z"/>
        </clipPath>
    </defs>
</svg>
