<svg width="32" height="32" viewBox="0 0 32 32" fill="none" xmlns="http://www.w3.org/2000/svg">
    <g clip-path="url(#cuqev15i2a)">
        <path d="M16 32c8.837 0 16-7.163 16-16S24.837 0 16 0 0 7.163 0 16s7.163 16 16 16z" fill="#27ADE4"/>
        <path d="m5.46 13.15-.5-1.23-.496 1.23m11.993-.492a.671.671 0 0 1-.361.064h-.886v-.686h.895a.74.74 0 0 1 .345.054.285.285 0 0 1 .153.274.316.316 0 0 1-.15.294m6.321.491-.504-1.23-.502 1.23h1.006zm-11.78 1.335h-.747V12.06l-1.058 2.422h-.641l-1.06-2.424v2.425H6.003l-.281-.69H4.204l-.283.69H3.13l1.306-3.094h1.083l1.24 2.93v-2.93h1.19l.955 2.098.876-2.098h1.215v3.093zm2.981 0h-2.437V11.39h2.437v.644h-1.702v.56h1.666v.634h-1.666v.617h1.707v.64l-.005-.002zm3.436-2.26a.87.87 0 0 1-.515.824.846.846 0 0 1 .361.26c.103.17.145.37.121.567v.608h-.736v-.39a.94.94 0 0 0-.111-.603c-.112-.111-.269-.132-.532-.132h-.783v1.125h-.729V11.39h1.678c.302-.03.607.02.883.148a.725.725 0 0 1 .37.685m1.167 2.26h-.744V11.39h.744v3.093zm8.633 0h-1.033l-1.387-2.321v2.321h-1.49l-.282-.69H21.51l-.276.69h-.854a1.52 1.52 0 0 1-1.058-.342 1.565 1.565 0 0 1-.39-1.18 1.656 1.656 0 0 1 .395-1.21 1.466 1.466 0 0 1 1.107-.36h.705v.662h-.69a.696.696 0 0 0-.56.184c-.153.2-.228.45-.21.701-.022.258.05.516.201.726a.696.696 0 0 0 .508.16h.328l1.027-2.433h1.093l1.23 2.926V11.39h1.11l1.282 2.154v-2.154h.747v3.094l.012-.002zm-24.09.608h1.238l.281-.688h.629l.28.688h2.452v-.53l.223.527h1.273l.224-.534v.533h6.094V13.96h.117c.083 0 .112.011.112.149v.978h3.151v-.263a2.47 2.47 0 0 0 1.17.263h1.325l.284-.688h.63l.277.688h2.555v-.653l.386.653h2.048v-4.314h-2.043v.51l-.283-.51h-2.08v.51l-.26-.51h-2.809c-.42-.02-.839.066-1.216.251v-.251h-1.939v.251a1.19 1.19 0 0 0-.823-.251h-7.08L8.87 11.89l-.488-1.118h-2.23v.51l-.246-.51h-1.9l-.884 2.05-1.014 2.263 1.021.006z" fill="#2D78BC"/>
        <path d="m5.46 13.402-.5-1.23-.496 1.23m11.993-.49a.671.671 0 0 1-.361.063h-.886v-.686h.895c.117-.01.236.009.345.054a.285.285 0 0 1 .153.274.316.316 0 0 1-.15.294m6.321.491-.504-1.23-.502 1.23h1.006zm-11.781 1.335h-.749v-2.423l-1.058 2.422h-.64l-1.06-2.429v2.425H6.004l-.281-.69H4.204l-.283.69H3.13l1.306-3.093h1.083l1.24 2.929v-2.93h1.19l.955 2.099.876-2.098h1.215v3.093l-.002.005zm2.98 0h-2.435v-3.094h2.437v.644h-1.702v.56h1.666v.634h-1.666v.617h1.707v.64l-.007-.002zm3.435-2.26a.87.87 0 0 1-.514.824.845.845 0 0 1 .361.26c.102.17.145.37.121.567v.608h-.736v-.39a.939.939 0 0 0-.112-.603c-.111-.111-.268-.132-.53-.132h-.784v1.125h-.729v-3.093h1.678c.302-.03.607.02.883.148a.724.724 0 0 1 .37.685m1.167 2.26h-.744v-3.093h.744v3.093zm8.633 0h-1.033l-1.385-2.317v2.322h-1.49l-.282-.69H21.51l-.276.69h-.854a1.52 1.52 0 0 1-1.058-.342 1.566 1.566 0 0 1-.39-1.181 1.656 1.656 0 0 1 .395-1.21 1.467 1.467 0 0 1 1.107-.36h.705v.663h-.69a.696.696 0 0 0-.56.183c-.153.2-.228.45-.21.701-.022.259.05.516.201.726a.696.696 0 0 0 .508.16h.328l1.027-2.432h1.093l1.23 2.925V11.65h1.11l1.282 2.154v-2.154h.747v3.093l.01-.006zm-24.09.608h1.24l.281-.688h.629l.28.688h2.452v-.526l.223.527h1.273l.224-.535v.534h6.094v-1.129h.117c.083 0 .112.011.112.15v.978h3.151v-.263a2.47 2.47 0 0 0 1.17.263h1.325l.284-.688h.63l.277.688h2.555v-.653l.386.653h2.048v-4.315h-2.043v.51l-.283-.51h-2.08v.51l-.26-.51h-2.809c-.42-.02-.839.067-1.216.252v-.252h-1.939v.252a1.19 1.19 0 0 0-.823-.252h-7.08l-.475 1.118-.488-1.118h-2.23v.51l-.246-.51h-1.9L3.12 13.08l-1.014 2.262 1.02.003z" fill="#fff"/>
        <path d="M29.497 18.009v-1.976H27.67a1.51 1.51 0 0 0-.914.252v-.252H24.76a1.368 1.368 0 0 0-.871.252v-.252H20.32v.252a1.88 1.88 0 0 0-.984-.252h-2.349v.252a1.648 1.648 0 0 0-1.027-.252h-2.637l-.603.66-.56-.66H8.229v4.314h3.859l.62-.671.585.67h2.38v-1.015h.233c.346.022.692-.03 1.017-.152v1.165h1.959v-1.126h.095c.12 0 .132 0 .132.128v.998h5.96c.352.013.7-.083.994-.277v.277h1.89c.367.012.732-.056 1.07-.2a1.566 1.566 0 0 0 .477-2.13l-.002-.005zm-13.564.69h-.91v1.036h-1.418l-.895-1.023-.934 1.023h-2.89v-3.092h2.934l.894 1.013.928-1.013h2.331c.58 0 1.23.162 1.23 1.019 0 .857-.634 1.037-1.271 1.037zm4.392-.14a.91.91 0 0 1 .12.559v.613h-.732v-.387a.925.925 0 0 0-.119-.605c-.111-.112-.268-.138-.535-.138h-.783v1.13h-.733v-3.093h1.684c.3-.025.603.025.878.147a.724.724 0 0 1 .376.687.865.865 0 0 1-.517.823.795.795 0 0 1 .36.264zm2.999-1.275h-1.709v.559h1.668v.63h-1.668v.616h1.709v.642h-2.436v-3.093h2.436v.646zm1.859 2.452H23.76v-.663h1.416a.423.423 0 0 0 .299-.077.275.275 0 0 0 .086-.201.268.268 0 0 0-.09-.205.38.38 0 0 0-.26-.068c-.681-.024-1.536.021-1.536-.957a.913.913 0 0 1 1.044-.92h1.462v.657H24.84a.492.492 0 0 0-.293.056.26.26 0 0 0 .05.453.84.84 0 0 0 .285.034l.393.011c.3-.027.598.062.834.249a.864.864 0 0 1 .218.654c0 .666-.409.977-1.144.977zm3.755-.298a1.231 1.231 0 0 1-.907.298h-1.41v-.663h1.404a.41.41 0 0 0 .296-.077.274.274 0 0 0 .086-.201.255.255 0 0 0-.09-.205.366.366 0 0 0-.257-.068c-.685-.024-1.54.021-1.54-.957a.916.916 0 0 1 1.047-.92h1.426v.657H27.69a.504.504 0 0 0-.295.056.242.242 0 0 0-.112.223.233.233 0 0 0 .16.23c.09.028.186.04.28.035l.396.012c.298-.03.596.06.828.249a.415.415 0 0 1 .068.076l-.024-.032a1.015 1.015 0 0 1-.059 1.288l.005-.001zm-17.5-2.154.799.901-.835.907H9.614v-.615h1.603v-.63H9.613v-.56l1.825-.003zm1.738.911 1.118-1.219v2.479l-1.118-1.26zm3.243-.532c0 .268-.174.408-.455.408h-.943v-.783h.952c.264-.004.447.104.447.374zm3.257-.045a.335.335 0 0 1-.151.297.691.691 0 0 1-.36.063h-.887v-.694h.895c.119-.011.239.008.349.056a.296.296 0 0 1 .154.277v.001z" fill="#2D78BC"/>
        <path d="M29.497 18.261v-1.98H27.67a1.51 1.51 0 0 0-.914.252v-.251H24.76a1.368 1.368 0 0 0-.871.251v-.251H20.32v.251a1.88 1.88 0 0 0-.984-.251h-2.349v.251a1.648 1.648 0 0 0-1.027-.251h-2.637l-.603.66-.56-.66H8.229V20.6h3.859l.62-.671.585.67h2.38v-1.015h.233c.346.022.692-.03 1.017-.152v1.164h1.959v-1.125h.095c.12 0 .132 0 .132.128v.997h5.96c.352.014.7-.083.994-.276v.276h1.89c.367.013.732-.055 1.07-.199a1.566 1.566 0 0 0 .477-2.13l-.002-.007zm-13.564.69h-.91v1.037h-1.418l-.895-1.023-.934 1.023h-2.89v-3.093h2.934l.894 1.014.928-1.014h2.331c.58 0 1.23.163 1.23 1.02 0 .856-.634 1.036-1.271 1.036zm4.392-.14a.91.91 0 0 1 .12.56v.612h-.732v-.387a.925.925 0 0 0-.119-.605c-.111-.111-.268-.137-.535-.137h-.783v1.13h-.733V16.89h1.684c.3-.026.603.025.878.147a.724.724 0 0 1 .376.686.865.865 0 0 1-.517.823.796.796 0 0 1 .36.264zm2.999-1.275h-1.709v.56h1.668v.63h-1.668v.615h1.709v.642h-2.436v-3.092h2.436v.645zm1.859 2.453H23.76v-.663h1.416a.423.423 0 0 0 .299-.078.276.276 0 0 0 .086-.2.268.268 0 0 0-.09-.205.38.38 0 0 0-.26-.069c-.681-.023-1.536.022-1.536-.957a.913.913 0 0 1 1.044-.92h1.462v.657H24.84a.492.492 0 0 0-.293.056.26.26 0 0 0 .05.453.84.84 0 0 0 .285.035l.393.01c.3-.027.598.062.834.25a.864.864 0 0 1 .218.653c0 .667-.409.978-1.144.978zm3.755-.299a1.23 1.23 0 0 1-.907.299h-1.41v-.663h1.404a.41.41 0 0 0 .296-.078.274.274 0 0 0 .086-.2.255.255 0 0 0-.09-.205.366.366 0 0 0-.257-.069c-.685-.023-1.54.022-1.54-.957a.916.916 0 0 1 1.047-.92h1.426v.657H27.69a.503.503 0 0 0-.295.056.241.241 0 0 0-.112.224.234.234 0 0 0 .16.23.82.82 0 0 0 .28.035l.396.011c.298-.029.596.061.828.25a.415.415 0 0 1 .068.076l-.024-.033a1.015 1.015 0 0 1-.059 1.288h.005zm-17.5-2.154.799.902-.835.907H9.614v-.615h1.603v-.631H9.613v-.56l1.825-.003zm1.738.912 1.118-1.22v2.478l-1.118-1.258zm3.243-.532c0 .268-.174.408-.455.408h-.943v-.783h.952c.264-.005.447.104.447.376v-.002zm3.257-.045a.335.335 0 0 1-.151.296.691.691 0 0 1-.36.064h-.887v-.695h.895a.71.71 0 0 1 .349.056.295.295 0 0 1 .154.278z" fill="#fff"/>
    </g>
    <defs>
        <clipPath id="cuqev15i2a">
            <path fill="#fff" d="M0 0h32v32H0z"/>
        </clipPath>
    </defs>
</svg>
