<svg width="21" height="20" viewBox="0 0 21 20" fill="none" xmlns="http://www.w3.org/2000/svg">
    <path d="M5.803 18.678h9.463a3.015 3.015 0 0 0 3.012-3.012V6.662a.536.536 0 0 0-.534-.534H14.54v-.8a4.01 4.01 0 0 0-4.006-4.006A4.01 4.01 0 0 0 6.53 5.327v.801H3.325a.536.536 0 0 0-.534.534v9.004a3.015 3.015 0 0 0 3.012 3.012zm1.794-13.35a2.939 2.939 0 0 1 2.937-2.938 2.939 2.939 0 0 1 2.938 2.937v.801H7.597v-.8zM3.86 7.195h2.67v1.336c0 .293.24.534.534.534.294 0 .534-.24.534-.534V7.196h5.875v1.336c0 .293.24.534.534.534.293 0 .534-.24.534-.534V7.196h2.67v8.47c0 1.071-.873 1.944-1.944 1.944H5.803a1.948 1.948 0 0 1-1.944-1.944v-8.47z" fill="#fff" stroke="#fff" stroke-width=".2"/>
</svg>
