<svg width="24" height="24" viewBox="0 0 24 24" fill="none" xmlns="http://www.w3.org/2000/svg">
<path d="M1.10036 18.628L1.1002 18.628V18.6337V18.7907C1.1002 21.436 3.26411 23.5999 5.90939 23.5999H18.1533H18.1538H18.1542H18.1547H18.1551H18.1556H18.1561H18.1565H18.157H18.1574H18.1579H18.1584H18.1588H18.1593H18.1597H18.1602H18.1607H18.1611H18.1616H18.162H18.1625H18.163H18.1634H18.1639H18.1643H18.1648H18.1653H18.1657H18.1662H18.1666H18.1671H18.1675H18.168H18.1685H18.1689H18.1694H18.1698H18.1703H18.1708H18.1712H18.1717H18.1721H18.1726H18.173H18.1735H18.174H18.1744H18.1749H18.1753H18.1758H18.1762H18.1767H18.1771H18.1776H18.1781H18.1785H18.179H18.1794H18.1799H18.1803H18.1808H18.1812H18.1817H18.1821H18.1826H18.183H18.1835H18.1839H18.1844H18.1849H18.1853H18.1858H18.1862H18.1867H18.1871H18.1876H18.188H18.1885H18.1889H18.1894H18.1898H18.1903H18.1907H18.1911H18.1916H18.192H18.1925H18.1929H18.1934H18.1938H18.1943H18.1947H18.1952H18.1956H18.1961H18.1965H18.1969H18.1974H18.1978H18.1983H18.1987H18.1992H18.1996H18.2H18.2005H18.2009H18.2014H18.2018H18.2022H18.2027H18.2031H18.2036H18.204H18.2044H18.2049H18.2053H18.2057H18.2062H18.2066H18.2071H18.2075H18.2079H18.2084H18.2088H18.2092H18.2097H18.2101H18.2105H18.2109H18.2114H18.2118H18.2122H18.2127H18.2131H18.2135H18.214H18.2144H18.2148H18.2152H18.2157H18.2161H18.2165H18.2169H18.2174H18.2178H18.2182H18.2186H18.2191H18.2195H18.2199H18.2203H18.2207H18.2212H18.2216H18.222H18.2224H18.2228H18.2232H18.2237H18.2241H18.2245H18.2249H18.2253H18.2257H18.2262H18.2266H18.227H18.2274H18.2278H18.2282H18.2286H18.229H18.2294H18.2298H18.2302H18.2307H18.2311H18.2315H18.2319H18.2323H18.2327H18.2331H18.2335H18.2339H18.2343H18.2347H18.2351H18.2355H18.2359H18.2363H18.2367H18.2371H18.2375H18.2379H18.2383H18.2387H18.239H18.2394H18.2398H18.2402H18.2406H18.241H18.2414H18.2418H18.2422H18.2425H18.2429H18.2433H18.2437H18.2441H18.2445H18.2449H18.2452H18.2456H18.246H18.2464H18.2468H18.2471H18.2475H18.2479H18.2483H18.2486H18.249H18.2494H18.2498H18.2501H18.2505H18.2509H18.2512H18.2516H18.252H18.2523H18.2527H18.2531H18.2534H18.2538H18.2542H18.2545H18.2549H18.2552H18.2556H18.256H18.2563H18.2567H18.257H18.2574H18.2577H18.2581H18.2584H18.2588H18.2591H18.2595H18.2598H18.2602H18.2605H18.2609H18.2612H18.2616H18.2619H18.2623H18.2626H18.2629H18.2633H18.2636H18.264H18.2643H18.2646H18.265H18.2653H18.2656H18.266H18.2663H18.2666H18.267H18.2673H18.2676H18.2679H18.2683H18.2686H18.2689H18.2692H18.2696H18.2699H18.2702H18.2705H18.2708H18.2712H18.2715H18.2718H18.2721H18.2724H18.2727H18.273H18.2733H18.2737H18.274H18.2743H18.2746H18.2749H18.2752H18.2755H18.2758H18.2761H18.2764H18.2767H18.277H18.2773H18.2776H18.2779H18.2782H18.2785H18.2787H18.279H18.2793H18.2796H18.2799H18.2802H18.2805H18.2808H18.281H18.2813H18.2816H18.2819H18.2821H18.2824H18.2827H18.283H18.2832H18.2835H18.2838H18.2841H18.2843H18.2846H18.2849H18.2851H18.2854H18.2857H18.2859H18.2862H18.2864H18.2867H18.2869H18.2872H18.2875H18.2877H18.288H18.2882H18.2885H18.2887H18.289H18.2892H18.2894H18.2897H18.2899H18.2902H18.2904H18.2906H18.2909H18.2911H18.2914H18.2916H18.2918H18.292H18.2923H18.2925H18.2927H18.293H18.2932H18.2934H18.2936H18.2938H18.2941H18.2943H18.2945H18.2947H18.2949H18.2951H18.2954H18.2956H18.2958H18.296H18.2962H18.2964H18.2966H18.2968H18.297H18.2972H18.2974H18.2976H18.2978H18.298H18.2982H18.2984H18.2986H18.2987H18.2989H18.2991H18.2993H18.2995H18.2997H18.2998H18.3H18.3002H18.3004H18.3005H18.3007H18.3009H18.3011H18.3012H18.3014H18.3016H18.3017H18.3019H18.302H18.3022H18.3024H18.3025H18.3027H18.3028H18.303H18.3031H18.3033H18.3034H18.3036H18.3037H18.3039H18.304H18.3042H18.3043H18.3044H18.3046H18.3047H18.3048H18.305H18.3051H18.3052H18.3054H18.3055H18.3056H18.3057H18.3058H18.306H18.3061H18.3062H18.3063H18.3064H18.3065H18.3067H18.3068H18.3069H18.307H18.3071H18.3072H18.3073H18.3074H18.3075H18.3076H18.3077H18.3078H18.3078H18.3079H18.308H18.3081H18.3082H18.3083H18.3084H18.3084H18.3085H18.3086H18.3087H18.3087H18.3088H18.3089H18.309H18.309H18.3091H18.3091H18.3092H18.3093H18.3093H18.3094H18.3094H18.3095H18.3095H18.3096H18.3096H18.3097H18.3097H18.3098H18.3098H18.3099H18.3099H18.3099H18.31H18.31H18.31H18.3101H18.3101H18.3101H18.3101H18.3102H18.3102H18.3102H18.3102H18.3102H18.3103H18.3103H18.3103C19.596 23.5999 20.7995 23.0373 21.6804 22.0762C22.5599 21.1169 23.0427 19.9136 22.9623 18.6275L22.4915 10.4395C22.4107 7.7945 20.246 5.7916 17.6824 5.7916H6.38031C3.8167 5.7916 1.65208 7.79448 1.5712 10.4394L1.10036 18.628Z" fill="#E29808" stroke="#E29808" stroke-width="0.2"/>
<path d="M6.43711 13.7849C6.43711 16.9011 8.91497 19.3789 12.0312 19.3789C15.1474 19.3789 17.6252 16.9011 17.6252 13.7849C17.6252 13.5267 17.5387 13.3038 17.3801 13.1451C17.2215 12.9865 16.9986 12.9 16.7404 12.9C16.4822 12.9 16.2593 12.9865 16.1006 13.1451C15.942 13.3038 15.8555 13.5267 15.8555 13.7849C15.8555 15.9273 14.1736 17.6092 12.0312 17.6092C9.88878 17.6092 8.20684 15.9273 8.20684 13.7849C8.20684 13.5267 8.12034 13.3038 7.96171 13.1451C7.80309 12.9865 7.58016 12.9 7.32198 12.9C7.06379 12.9 6.84087 12.9865 6.68224 13.1451C6.52361 13.3038 6.43711 13.5267 6.43711 13.7849Z" fill="white" stroke="#E29808" stroke-width="0.2"/>
<circle cx="7" cy="12" r="2" fill="white"/>
<circle cx="17" cy="12" r="2" fill="white"/>
<path d="M17.6254 5.99419C17.6254 2.87798 15.1475 0.400121 12.0313 0.400121C8.91512 0.400121 6.43726 2.87798 6.43726 5.99419C6.43726 6.25237 6.52376 6.4753 6.68239 6.63393C6.84102 6.79255 7.06394 6.87905 7.32213 6.87905C7.58031 6.87905 7.80324 6.79255 7.96187 6.63393C8.12049 6.4753 8.20699 6.25237 8.20699 5.99419C8.20699 3.85179 9.88893 2.16985 12.0313 2.16985C14.1737 2.16985 15.8557 3.85179 15.8557 5.99419C15.8557 6.25237 15.9422 6.4753 16.1008 6.63393C16.2594 6.79255 16.4823 6.87905 16.7405 6.87905C16.9987 6.87905 17.2216 6.79255 17.3803 6.63393C17.5389 6.4753 17.6254 6.25237 17.6254 5.99419Z" fill="#E29808" stroke="#E29808" stroke-width="0.2"/>
</svg>
