<svg width="24" height="24" viewBox="0 0 24 24" fill="none" xmlns="http://www.w3.org/2000/svg">
<path d="M6.36338 22.4134H17.7191C19.7122 22.4134 21.3335 20.792 21.3335 18.799V7.99438C21.3335 7.64191 21.0451 7.35353 20.6927 7.35353H16.8476V6.39227C16.8476 3.74238 14.6912 1.58594 12.0413 1.58594C9.39137 1.58594 7.23493 3.74238 7.23493 6.39227V7.35353H3.38987C3.0374 7.35353 2.74902 7.64191 2.74902 7.99438V18.799C2.74902 20.792 4.37036 22.4134 6.36338 22.4134ZM8.51662 6.39227C8.51662 4.44731 10.0963 2.86763 12.0413 2.86763C13.9862 2.86763 15.5659 4.44731 15.5659 6.39227V7.35353H8.51662V6.39227ZM4.03071 8.63522H7.23493V10.2373C7.23493 10.5898 7.52331 10.8782 7.87578 10.8782C8.22824 10.8782 8.51662 10.5898 8.51662 10.2373V8.63522H15.5659V10.2373C15.5659 10.5898 15.8543 10.8782 16.2067 10.8782C16.5592 10.8782 16.8476 10.5898 16.8476 10.2373V8.63522H20.0518V18.799C20.0518 20.0839 19.004 21.1317 17.7191 21.1317H6.36338C5.07849 21.1317 4.03071 20.0839 4.03071 18.799V8.63522Z" fill="black" stroke="black" stroke-width="0.2"/>
</svg>
