<svg width="24" height="25" viewBox="0 0 24 25" fill="none" xmlns="http://www.w3.org/2000/svg">
    <path d="M6.363 22.914H17.72a3.618 3.618 0 0 0 3.614-3.615V8.495a.643.643 0 0 0-.64-.641h-3.845v-.961a4.812 4.812 0 0 0-4.807-4.807 4.812 4.812 0 0 0-4.806 4.807v.96H3.39a.643.643 0 0 0-.641.642v10.804a3.618 3.618 0 0 0 3.614 3.615zM8.517 6.893a3.527 3.527 0 0 1 3.524-3.525 3.527 3.527 0 0 1 3.525 3.525v.96h-7.05v-.96zM4.03 9.135h3.204v1.603c0 .352.288.64.64.64.353 0 .642-.288.642-.64V9.135h7.049v1.603c0 .352.288.64.64.64.353 0 .642-.288.642-.64V9.135h3.204V19.3a2.337 2.337 0 0 1-2.333 2.333H6.363a2.337 2.337 0 0 1-2.332-2.333V9.135z" fill="#000" stroke="#000" stroke-width=".2"/>
</svg>
