<svg width="24" height="24" viewBox="0 0 24 24" fill="none" xmlns="http://www.w3.org/2000/svg">
    <mask id="v5egn4636a" style="mask-type:alpha" maskUnits="userSpaceOnUse" x="0" y="0" width="24" height="24">
        <path fill="#D9D9D9" d="M0 0h24v24H0z"/>
    </mask>
    <g mask="url(#v5egn4636a)">
        <path d="m12 13.4-4.9 4.9a.948.948 0 0 1-.7.275.948.948 0 0 1-.7-.275.948.948 0 0 1-.274-.7c0-.283.091-.517.275-.7l4.9-4.9-4.9-4.9a.948.948 0 0 1-.275-.7c0-.283.091-.517.275-.7a.948.948 0 0 1 .7-.275c.283 0 .516.092.7.275l4.9 4.9 4.9-4.9a.948.948 0 0 1 .7-.275c.283 0 .516.092.7.275a.948.948 0 0 1 .275.7.948.948 0 0 1-.275.7L13.4 12l4.9 4.9a.948.948 0 0 1 .275.7.949.949 0 0 1-.275.7.949.949 0 0 1-.7.275.948.948 0 0 1-.7-.275L12 13.4z" fill="#1C1B1F"/>
    </g>
</svg>
