<svg width="18" height="18" viewBox="0 0 18 18" fill="none" xmlns="http://www.w3.org/2000/svg">
    <mask id="kldabcxu1a" style="mask-type:alpha" maskUnits="userSpaceOnUse" x="0" y="0" width="18" height="18">
        <path fill="#D9D9D9" d="M0 0h18v18H0z"/>
    </mask>
    <g mask="url(#kldabcxu1a)">
        <path d="M5.25 15.75c-.412 0-.766-.147-1.06-.44a1.445 1.445 0 0 1-.44-1.06V4.5a.726.726 0 0 1-.534-.216A.726.726 0 0 1 3 3.75c0-.212.072-.39.216-.534A.726.726 0 0 1 3.75 3h3c0-.212.072-.39.216-.534A.726.726 0 0 1 7.5 2.25h3c.213 0 .39.072.534.216A.726.726 0 0 1 11.25 3h3c.213 0 .39.072.534.216A.726.726 0 0 1 15 3.75c0 .212-.072.39-.216.534a.726.726 0 0 1-.534.216v9.75c0 .412-.147.766-.44 1.06-.294.293-.648.44-1.06.44h-7.5zm7.5-11.25h-7.5v9.75h7.5V4.5zM7.5 12.75c.213 0 .39-.072.534-.216A.726.726 0 0 0 8.25 12V6.75a.726.726 0 0 0-.216-.534A.726.726 0 0 0 7.5 6a.726.726 0 0 0-.534.216.726.726 0 0 0-.216.534V12c0 .213.072.39.216.534a.726.726 0 0 0 .534.216zm3 0c.213 0 .39-.072.534-.216A.726.726 0 0 0 11.25 12V6.75a.726.726 0 0 0-.216-.534A.726.726 0 0 0 10.5 6a.726.726 0 0 0-.534.216.726.726 0 0 0-.216.534V12c0 .213.072.39.216.534a.726.726 0 0 0 .534.216z" fill="#303030"/>
    </g>
</svg>
