<svg width="22" height="22" viewBox="0 0 22 22" fill="none" xmlns="http://www.w3.org/2000/svg">
<path fill-rule="evenodd" clip-rule="evenodd" d="M18.9408 4.91577C17.9451 4.60513 17.1474 3.8766 16.8069 2.96693C16.5904 2.3885 15.9942 2 15.3231 2H6.67692C6.006 2 5.40963 2.3885 5.19309 2.96693C4.85257 3.8766 4.05494 4.60513 3.05922 4.91577C2.42566 5.11353 2 5.65666 2 6.26736V8.25383C2 10.8461 2.85524 13.342 4.47334 15.472C5.95383 17.4208 7.99395 18.9459 10.3734 19.8824C10.5725 19.9609 10.7862 20 11 20C11.2137 20 11.4273 19.9609 11.6265 19.8824C14.0059 18.946 16.046 17.4208 17.5265 15.472C19.1446 13.342 20 10.8459 20 8.25383V6.26736C20 5.65666 19.5743 5.11353 18.9408 4.91577ZM18.8387 8.25383C18.8387 10.631 18.0544 12.9199 16.5706 14.8731C15.2138 16.6592 13.3444 18.0568 11.1647 18.9147C11.0602 18.9559 10.94 18.956 10.8352 18.9147C8.65534 18.0568 6.78609 16.6592 5.42928 14.8731C3.94561 12.92 3.16129 10.6311 3.16129 8.25383V6.26736C3.16129 6.10696 3.27198 5.96469 3.43664 5.91333C4.76956 5.49736 5.83725 4.52287 6.29254 3.30641C6.34894 3.1559 6.50333 3.05469 6.67692 3.05469H15.3231C15.4965 3.05469 15.6511 3.1559 15.7075 3.30641C16.1628 4.52287 17.2304 5.49736 18.5634 5.91333C18.728 5.96469 18.8387 6.10696 18.8387 6.26736V8.25383ZM13.4676 8.83765H13.4281V7.33582C13.4281 6.12004 12.3389 5.13086 11.0003 5.13086C9.66163 5.13086 8.57247 6.12004 8.57247 7.33582V8.83765H8.533C7.76198 8.83765 7.13477 9.40743 7.13477 10.1077V13.1426C7.13477 14.4467 8.30301 15.5079 9.73875 15.5079H12.2618C13.6977 15.5079 14.8658 14.4467 14.8658 13.1426V10.1077C14.8658 9.40743 14.2386 8.83765 13.4676 8.83765ZM9.73376 7.33582C9.73376 6.70163 10.302 6.18555 11.0003 6.18555C11.6986 6.18555 12.2668 6.70163 12.2668 7.33582V8.83778H9.73376V7.33582ZM13.7045 13.1426C13.7045 13.8653 13.0573 14.453 12.2618 14.453H9.73875C8.94323 14.453 8.29606 13.8653 8.29606 13.1426V10.1077C8.29606 9.98901 8.40236 9.89247 8.533 9.89247H13.4676C13.5982 9.89247 13.7045 9.98901 13.7045 10.1077V13.1426ZM10.4199 11.6738C10.4199 11.3826 10.6799 11.1465 11.0006 11.1465C11.3213 11.1465 11.5812 11.3826 11.5812 11.6738V12.6702C11.5812 12.9614 11.3213 13.1975 11.0006 13.1975C10.6799 13.1975 10.4199 12.9614 10.4199 12.6702V11.6738Z" fill="black"/>
</svg>
