<svg width="21" height="20" viewBox="0 0 21 20" fill="none" xmlns="http://www.w3.org/2000/svg">
    <mask id="unsw6qwrla" style="mask-type:alpha" maskUnits="userSpaceOnUse" x="0" y="0" width="19" height="18">
        <path fill="#D9D9D9" d="M.5 0h18v18H.5z"/>
    </mask>
    <g mask="url(#unsw6qwrla)">
        <path d="M11.161 16.177a.743.743 0 0 1-.55.457.7.7 0 0 1-.683-.206l-.11-.567-.5-5.5-5.5-.5-.784-.327a.7.7 0 0 1-.205-.683.742.742 0 0 1 .457-.55L14.9 3.581c.318-.124.592-.07.822.16.23.229.283.503.16.821l-4.72 11.614z" fill="#fff"/>
    </g>
</svg>
