<svg width="128" height="112" viewBox="0 0 128 112" fill="none" xmlns="http://www.w3.org/2000/svg">
    <circle cx="72" cy="57.5" r="54.5" fill="#FFF2D2"/>
    <path d="M123.5 26h3M122.5 21.5l2.5-2" stroke="#FFCB5E" stroke-width="1.5" stroke-linecap="round"/>
    <rect x="51.114" y="17.873" width="63.91" height="81.764" rx="5.25" transform="rotate(10.386 51.114 17.873)" fill="#fff" stroke="#000" stroke-width="1.5"/>
    <path d="M64.5 39.891c1.333.667 4.6 1.3 7-1.5M97.845 46.517c-1.49-.057-4.658-1.073-5.415-4.682" stroke="#000" stroke-width="1.5" stroke-linecap="round"/>
    <ellipse cx="68" cy="44.891" rx="1.5" ry="2.5" transform="rotate(15.849 68 44.891)" fill="#000"/>
    <ellipse cx="92.626" cy="49.206" rx="1.5" ry="2.5" transform="rotate(15.849 92.626 49.206)" fill="#000"/>
    <path d="M74.5 57.391c1.5-.333 4.9-.5 6.5 1.5" stroke="#000" stroke-width="1.5" stroke-linecap="round"/>
    <ellipse cx="95" cy="55.391" rx="4.5" ry="2" transform="rotate(12.262 95 55.391)" fill="#FFEDC1"/>
    <ellipse cx="63.322" cy="49.301" rx="4.5" ry="2" transform="rotate(12.262 63.322 49.301)" fill="#FFEDC1"/>
    <g clip-path="url(#5bysjy2taa)">
        <path d="m109.809 25.855.408.535.576-.347a6.049 6.049 0 0 1 4.275-.772 6.084 6.084 0 0 1 4.837 7.116c-.393 2.06-1.979 4.231-4.39 6.16-2.305 1.845-5.286 3.402-8.448 4.366-2.585-2.06-4.785-4.604-6.25-7.167-1.532-2.681-2.207-5.285-1.815-7.344a6.084 6.084 0 0 1 7.116-4.837 6.05 6.05 0 0 1 3.691 2.29z" fill="#FF5A4E" stroke="#000" stroke-width="1.5"/>
        <path d="M116.28 32.335a1.177 1.177 0 1 0 .442-2.313 1.177 1.177 0 0 0-.442 2.313z" fill="#FFFDFC"/>
        <path d="M116.29 29.139a.589.589 0 1 0 .221-1.157.589.589 0 0 0-.221 1.157z" fill="#FFECE7"/>
    </g>
    <path d="m53.604 67 31.92 6.113M52.005 75.348l41.25 7.9M50.5 83.205 78 88.472" stroke="#FFEDC1" stroke-width="1.5" stroke-linecap="round"/>
    <path d="m111.107 87.418 4.278 3.899 5.746-.71-3.899 4.278.71 5.746-4.279-3.9-5.745.711 3.899-4.279-.71-5.745zM10.183 66.905l2.386 2.174 3.203-.396-2.174 2.386.396 3.203-2.386-2.174-3.203.396 2.174-2.386-.396-3.203z" fill="#FFCB5E"/>
    <path d="m1.5 38 6-6 6 6 6-6 6 6 6-6M1.5 45l6-6 6 6 6-6 6 6 6-6" stroke="#FFCB5E" stroke-width="1.5" stroke-linecap="round"/>
    <circle cx="85.5" cy="3" r="2.25" stroke="#FFCB5E" stroke-width="1.5"/>
    <path d="M119 17v3" stroke="#FFCB5E" stroke-width="1.5" stroke-linecap="round"/>
    <defs>
        <clipPath id="5bysjy2taa">
            <path fill="#fff" transform="rotate(10.793 -58.043 538.236)" d="M0 0h22.779v22.779H0z"/>
        </clipPath>
    </defs>
</svg>
