<svg width="24" height="24" viewBox="0 0 24 24" fill="none" xmlns="http://www.w3.org/2000/svg">
    <g clip-path="url(#hsx7ro3naa)" fill="#926100" stroke="#926100" stroke-width=".45">
        <path d="M15.57 23.678h1.915a6.199 6.199 0 0 0 6.195-6.196V6.519A6.199 6.199 0 0 0 17.485.323H6.522A6.199 6.199 0 0 0 .326 6.52v10.963a6.199 6.199 0 0 0 6.196 6.196h9.047zm0-.45h-.013a.265.265 0 0 1 0-.53h.012a.265.265 0 0 1 0 .53zm-.013-.98H6.522a4.77 4.77 0 0 1-4.767-4.766V6.519a4.77 4.77 0 0 1 4.767-4.767h10.963a4.77 4.77 0 0 1 4.767 4.767v10.963a4.77 4.77 0 0 1-4.767 4.767h-1.928z"/>
        <path d="M18.804 15.108a.715.715 0 0 1-.706.602h-1.822v7.257a.715.715 0 0 1-1.43 0v-7.972c0-.395.321-.714.715-.714h1.927l.27-1.697h-2.197a.715.715 0 0 1-.714-.715v-1.834a.654.654 0 0 1-.008-.079m3.965 5.152-2.4-7.348h.002c-.514.031-.932.262-1.208.659-.27.39-.39.92-.36 1.537m3.966 5.152.497-3.127a.714.714 0 0 0-.162-.575m-.335 3.702.335-3.702m-4.3-1.45v-.002l.224-.007-.224.01v-.001zm3.269-2.198V6.163c-1.178-.187-2.409-.128-3.385.225-1.009.363-1.696 1.031-1.709 2.09v3.391c0 .395-.319.715-.714.715h-2.049v1.697h2.05c.394 0 .713.32.713.714v7.972a.715.715 0 0 1-1.429 0V15.71H9.536a.715.715 0 0 1-.714-.715V11.87c0-.394.32-.714.714-.714h2.05v-2.69c.015-1.413.741-2.416 1.828-3.043l4.694 2.336zm0 0h-1.66 1.66zm1.031 3.648a.712.712 0 0 0-.544-.25h-2.32m2.864.25-5.725-5.984c1.475-.85 3.664-.98 5.568-.545a.714.714 0 0 1 .555.697v2.899c0 .394-.32.714-.714.714h-2.347a.17.17 0 0 0-.094.037.253.253 0 0 0-.068.11.766.766 0 0 0-.038.162m0 1.66v-1.66m0 1.66h-.225v-.915l.159-.16-.017-.016.011-.012.067-.07-.003-.061-.002-.035a2.196 2.196 0 0 1 .01-.39m0 1.658v.225h2.32L16.04 9.615l.236-.237v.118"/>
    </g>
    <defs>
        <clipPath id="hsx7ro3naa">
            <path fill="#fff" d="M0 0h24v24H0z"/>
        </clipPath>
    </defs>
</svg>
