<svg width="22" height="22" viewBox="0 0 22 22" fill="none" xmlns="http://www.w3.org/2000/svg">
    <g clip-path="url(#2wv51b3sja)" fill-rule="evenodd" clip-rule="evenodd" fill="#000" stroke="#000" stroke-width=".3">
        <path d="M14.258 21.498h1.767a5.476 5.476 0 0 0 5.473-5.473V5.975A5.476 5.476 0 0 0 16.025.502H5.975A5.476 5.476 0 0 0 .502 5.975v10.05a5.476 5.476 0 0 0 5.473 5.473h8.294a.449.449 0 0 0 0-.897H5.975A4.578 4.578 0 0 1 1.4 16.025V5.975A4.578 4.578 0 0 1 5.975 1.4h10.05A4.578 4.578 0 0 1 20.6 5.975v10.05a4.578 4.578 0 0 1-4.576 4.576h-1.767a.449.449 0 0 0 0 .897z"/>
        <path d="M13.812 9.18v1.7c0 .248.2.45.449.45h2.255l-.313 1.967H14.26c-.248 0-.45.2-.45.448v7.308a.45.45 0 0 0 .898 0v-6.859h1.877a.45.45 0 0 0 .443-.378l.456-2.865a.449.449 0 0 0-.443-.52h-2.333V9.096l-.448.45.011-.021.428-.45c-.022-.46.044-.828.39-.858h2.16a.449.449 0 0 0 .449-.45V5.11c0-.21-.145-.39-.35-.437-1.713-.392-3.662-.268-4.954.477-.942.543-1.56 1.401-1.573 2.613v2.67H8.737c-.247 0-.448.2-.448.448v2.865c0 .248.2.45.448.45h2.085v6.858a.45.45 0 0 0 .898 0v-7.308c0-.247-.201-.448-.449-.448H9.187v-1.968h2.084a.449.449 0 0 0 .449-.449V7.77c.012-1.088.73-1.758 1.702-2.109.985-.355 2.224-.395 3.38-.186v1.843h-1.754c-.824.051-1.297.726-1.244 1.8.001.02.004.042.008.063z"/>
    </g>
    <defs>
        <clipPath id="2wv51b3sja">
            <path fill="#fff" d="M0 0h22v22H0z"/>
        </clipPath>
    </defs>
</svg>
