<svg width="35" height="36" viewBox="0 0 35 36" fill="none" xmlns="http://www.w3.org/2000/svg">
<rect width="35" height="35" transform="translate(0 0.5)" fill="white"/>
<path d="M17.6239 6.88525C17.6361 6.88525 17.6483 6.88525 17.6609 6.88525C17.667 6.90116 17.673 6.91706 17.6793 6.93345C17.8415 7.33654 18.1453 7.62308 18.4647 7.9058C18.6066 8.03653 18.7414 8.24157 18.7522 8.43905C18.7554 8.57788 18.7182 8.69337 18.6412 8.80901C18.6111 8.84051 18.5804 8.8715 18.5488 8.90149C18.5649 8.90288 18.581 8.90426 18.5976 8.90568C18.8101 8.92914 18.9967 8.99011 19.1439 9.15215C19.2696 9.32084 19.3375 9.4831 19.3072 9.69689C19.2808 9.83446 19.2155 9.95978 19.0984 10.0405C18.9614 10.1182 18.8289 10.1523 18.6722 10.111C18.5719 10.0676 18.5195 9.99865 18.4748 9.90037C18.4426 9.79865 18.4371 9.68322 18.4817 9.58591C18.5412 9.51274 18.5412 9.51274 18.5881 9.50765C18.603 9.50791 18.6178 9.50818 18.6332 9.50845C18.6555 9.50863 18.6555 9.50863 18.6783 9.50881C18.7152 9.51192 18.7152 9.51192 18.7337 9.53041C18.7345 9.56123 18.7345 9.59208 18.7337 9.6229C18.6971 9.63511 18.6605 9.64732 18.6227 9.6599C18.5937 9.74171 18.6145 9.80107 18.6397 9.88028C18.6645 9.92809 18.6871 9.94766 18.7337 9.97436C18.8242 9.99092 18.899 9.9842 18.9811 9.94314C19.0831 9.85329 19.1397 9.76965 19.1511 9.63331C19.1475 9.4842 19.0711 9.33669 18.9714 9.22809C18.7952 9.08196 18.6029 9.06723 18.3823 9.08647C18.1912 9.12616 18.0363 9.23857 17.925 9.39768C17.791 9.62529 17.7897 9.85286 17.844 10.1055C17.8929 10.2934 17.9944 10.4469 18.1195 10.5925C18.2762 10.7759 18.3719 10.9517 18.3823 11.1952C18.4488 11.1378 18.515 11.0804 18.5785 11.0196C18.8937 10.7196 19.26 10.4892 19.6771 10.3628C19.6963 10.3569 19.7155 10.3511 19.7352 10.345C20.3841 10.166 21.0846 10.2944 21.6645 10.6195C22.1231 10.8868 22.5058 11.3328 22.6485 11.8482C22.7579 12.2776 22.7404 12.7056 22.5257 13.1005C22.4523 13.2181 22.3685 13.3208 22.2668 13.4149C22.2309 13.4022 22.2309 13.4022 22.1928 13.3779C22.1663 13.2996 22.1812 13.2488 22.2078 13.1721C22.2738 12.9812 22.2921 12.7975 22.2911 12.5964C22.291 12.5744 22.2908 12.5523 22.2907 12.5296C22.2844 12.0674 22.1156 11.635 21.7858 11.3062C21.3252 10.8869 20.691 10.7097 20.0799 10.73C19.4532 10.7634 18.8887 11.111 18.4563 11.5467C18.4311 11.5771 18.4062 11.6077 18.3823 11.6391C18.4005 11.6255 18.4187 11.6118 18.4374 11.5977C18.8334 11.3059 19.2628 11.1048 19.7511 11.0287C19.7723 11.0251 19.7723 11.0251 19.794 11.0214C20.2326 10.9589 20.6649 11.0496 21.0274 11.3062C21.0922 11.3588 21.1526 11.4146 21.2124 11.4727C21.2237 11.4826 21.2351 11.4926 21.2467 11.5029C21.52 11.7518 21.6963 12.1793 21.7144 12.542C21.7251 12.8894 21.7339 13.2864 21.4914 13.5669C21.3992 13.654 21.3153 13.6848 21.1893 13.6993C21.0252 13.6829 20.891 13.6154 20.7685 13.5074C20.7571 13.4977 20.7456 13.488 20.7339 13.478C20.6273 13.3806 20.5382 13.2399 20.5236 13.0934C20.5197 12.9499 20.5384 12.8396 20.6353 12.7297C20.7194 12.6505 20.7973 12.602 20.9165 12.6006C21.0073 12.6071 21.0683 12.6332 21.1384 12.6935C21.1947 12.7716 21.2025 12.8345 21.1886 12.9271C21.1644 13.0076 21.1145 13.0709 21.0644 13.1374C21.0093 13.2146 20.9972 13.2642 21.0089 13.3594C21.0388 13.4159 21.065 13.4563 21.1153 13.4958C21.2 13.5194 21.2728 13.5221 21.3522 13.4858C21.4756 13.3933 21.5232 13.2107 21.5454 13.0635C21.6072 12.6016 21.5461 12.1412 21.268 11.7542C21.018 11.4365 20.7068 11.2266 20.3049 11.1628C19.7538 11.1278 19.2479 11.28 18.7707 11.5467C18.7909 11.5449 18.811 11.5431 18.8317 11.5413C19.134 11.5174 19.416 11.5468 19.658 11.7501C19.8052 11.895 19.878 12.0598 19.8887 12.2657C19.8813 12.4588 19.813 12.6305 19.6771 12.7675C19.5848 12.8518 19.4929 12.9142 19.3632 12.916C19.242 12.9069 19.1593 12.8584 19.0725 12.7756C18.9699 12.6404 18.9331 12.4716 18.9557 12.3051C18.9788 12.2486 18.9956 12.2243 19.0436 12.1883C19.1041 12.1698 19.1517 12.1689 19.2147 12.1756C19.2752 12.2105 19.3011 12.235 19.3282 12.2996C19.3458 12.3669 19.3466 12.4229 19.3442 12.4923C19.3388 12.5989 19.3388 12.5989 19.3812 12.6935C19.4346 12.7202 19.4699 12.719 19.5291 12.712C19.6406 12.6244 19.702 12.5061 19.7279 12.3689C19.7467 12.1877 19.7015 12.0287 19.5916 11.8842C19.4772 11.7594 19.2948 11.6964 19.1289 11.6884C18.8192 11.6829 18.5395 11.7506 18.3083 11.9721C18.1227 12.1991 18.0044 12.4506 18.0308 12.749C18.0762 12.9763 18.1934 13.1777 18.3187 13.3698C18.5474 13.7218 18.6719 14.1134 18.5907 14.5338C18.5116 14.8598 18.3156 15.165 18.1188 15.432C17.9431 15.6709 17.9431 15.6709 17.8643 15.9491C17.8773 15.9315 17.8903 15.914 17.9037 15.8959C18.2116 15.541 18.7303 15.3595 19.1509 15.1792C19.2355 15.1427 19.318 15.1039 19.3996 15.0612C19.3906 14.953 19.3582 14.8753 19.3072 14.7803C19.2936 14.7546 19.2801 14.7289 19.2667 14.7032C19.2577 14.6864 19.2577 14.6864 19.2486 14.6693C19.1537 14.4627 19.207 14.1752 19.2785 13.9689C19.395 13.6611 19.5904 13.4309 19.891 13.2877C20.0615 13.2171 20.2136 13.1833 20.3985 13.1929C20.4115 13.2349 20.4115 13.2349 20.417 13.2854C20.3931 13.3203 20.3931 13.3203 20.3581 13.3536C20.2143 13.5058 20.1956 13.6883 20.1897 13.8899C20.177 14.3112 20.0892 14.6616 19.7778 14.9642C19.7511 14.9872 19.7511 14.9872 19.7141 15.0057C19.7395 15.0031 19.765 15.0003 19.7904 14.9976C19.8046 14.9961 19.8187 14.9946 19.8333 14.9931C19.866 14.989 19.8985 14.9839 19.9308 14.9779C20.2648 14.9275 20.6488 14.9479 20.9719 15.0427C20.9841 15.0462 20.9962 15.0496 21.0086 15.0532C21.3231 15.1462 21.5692 15.317 21.739 15.6002C21.882 15.8674 21.9519 16.1478 21.8668 16.4451C21.7612 16.7419 21.5862 16.9395 21.303 17.0779C21.1613 17.1355 20.9898 17.1408 20.8435 17.0988C20.6837 17.0266 20.5889 16.9053 20.5229 16.7459C20.4703 16.5953 20.4803 16.4626 20.5395 16.3146C20.6982 15.9968 21.0454 15.812 21.3601 15.6783C21.3974 15.6716 21.3974 15.6716 21.4381 15.684C21.4792 15.7144 21.48 15.7339 21.4899 15.7826C21.4165 15.8194 21.3432 15.8561 21.2692 15.8916C21.0409 16.002 20.7929 16.1248 20.6771 16.3653C20.6309 16.5176 20.6324 16.633 20.6945 16.7815C20.7507 16.8827 20.8472 16.9289 20.9534 16.9665C21.0745 16.9899 21.1728 16.9645 21.2793 16.9047C21.4733 16.7693 21.5796 16.5466 21.6292 16.3203C21.6644 16.0899 21.633 15.8763 21.5054 15.6791C21.3111 15.4251 21.0115 15.2962 20.713 15.2092C20.6913 15.2029 20.6697 15.1965 20.6474 15.19C20.276 15.1029 19.8389 15.1235 19.4736 15.2277C19.4533 15.2333 19.4533 15.2333 19.4325 15.2391C18.9219 15.3847 18.2853 15.6623 17.9568 16.0971C17.9665 16.0924 17.9762 16.0877 17.9862 16.0828C18.332 15.9292 18.7051 15.938 19.0586 16.0624C19.5021 16.2452 19.7761 16.6075 19.9575 17.0394C20.0644 17.3003 20.0953 17.5629 20.1307 17.8413C20.1731 18.307 20.1731 18.307 20.3615 18.7237C20.3615 18.7359 20.3615 18.7481 20.3615 18.7607C20.45 18.7974 20.5088 18.8009 20.602 18.7792C20.6312 18.7638 20.6312 18.7638 20.661 18.748C20.713 18.7237 20.713 18.7237 20.7558 18.7353C20.787 18.7607 20.787 18.7607 20.8055 18.8162C20.8195 19.0241 20.8036 19.2024 20.676 19.3711C20.6638 19.3895 20.6516 19.4078 20.639 19.4266C20.9658 19.7257 21.319 19.8183 21.7573 19.7997C22.0414 19.7809 22.3335 19.6717 22.5276 19.4578C22.7072 19.2197 22.7577 18.8763 22.72 18.5838C22.6586 18.3097 22.4967 18.138 22.2738 17.9835C22.1377 17.9037 22.0264 17.8824 21.8691 17.8844C21.8442 17.8841 21.8442 17.8841 21.8187 17.8837C21.6964 17.8843 21.5883 17.8978 21.4894 17.9767C21.4054 18.0823 21.3696 18.175 21.373 18.3111C21.3862 18.4073 21.4292 18.4787 21.498 18.5457C21.5762 18.5953 21.6483 18.6164 21.7396 18.6289C21.8225 18.6435 21.8779 18.6566 21.9338 18.7237C21.9657 18.8094 21.9474 18.8789 21.917 18.962C21.8762 19.0414 21.8149 19.084 21.7303 19.1122C21.577 19.1256 21.4623 19.0885 21.3402 18.9938C21.193 18.8671 21.0429 18.7152 21.0206 18.5138C21.0171 18.3217 21.0534 18.1771 21.1604 18.015C21.3852 17.8002 21.6508 17.7196 21.9567 17.7217C22.0322 17.7263 22.1012 17.7427 22.1743 17.7619C22.1685 17.7506 22.1627 17.7393 22.1567 17.7277C22.0091 17.4255 21.9435 17.0677 22.0431 16.739C22.1269 16.5312 22.2597 16.4076 22.4572 16.3062C22.5373 16.2779 22.6034 16.2728 22.6876 16.274C22.7022 16.2741 22.7169 16.2743 22.732 16.2744C22.9096 16.2795 23.0513 16.3259 23.1807 16.4516C23.2653 16.549 23.2779 16.6528 23.2745 16.7777C23.2554 16.9059 23.1953 17.0336 23.0957 17.1191C23.0102 17.1696 22.9174 17.1661 22.8217 17.1514C22.7374 17.1267 22.6876 17.0957 22.6344 17.0254C22.6132 16.9482 22.6229 16.9098 22.6552 16.837C22.744 16.7526 22.8025 16.7395 22.9212 16.7401C22.99 16.7463 23.0382 16.7682 23.0992 16.8C23.1093 16.7007 23.096 16.6472 23.0354 16.5713C22.9533 16.4847 22.8666 16.432 22.7477 16.4115C22.5975 16.4093 22.4424 16.4629 22.3299 16.5644C22.1903 16.7361 22.1375 16.9533 22.1558 17.1699C22.2013 17.5317 22.3533 17.7869 22.5872 18.0583C22.8335 18.3448 22.9027 18.5899 22.8772 18.9642C22.8482 19.2115 22.7099 19.4655 22.5442 19.6486C22.5328 19.6622 22.5214 19.6757 22.5096 19.6897C22.3884 19.8235 22.2403 19.9003 22.0818 19.9816C22.0644 19.9909 22.0471 20.0003 22.0292 20.01C21.6715 20.1904 21.247 20.1927 20.8714 20.0722C20.3818 19.8934 19.9902 19.5242 19.7631 19.0565C19.7051 18.9314 19.6547 18.8023 19.6216 18.6682C19.6181 18.6542 19.6146 18.6402 19.611 18.6258C19.5691 18.4233 19.5813 18.2149 19.5835 18.0093C19.584 17.9504 19.5844 17.8916 19.5848 17.8328C19.585 17.7964 19.5853 17.76 19.5858 17.7236C19.5859 17.7073 19.586 17.691 19.5861 17.6742C19.5863 17.6598 19.5864 17.6454 19.5866 17.6306C19.5869 17.5938 19.5869 17.5938 19.5661 17.5584C19.4889 17.5835 19.4482 17.6165 19.3939 17.6763C19.2939 17.7801 19.185 17.8497 19.0373 17.8581C18.8288 17.862 18.6352 17.8645 18.4678 17.7237C18.3079 17.5648 18.2369 17.3918 18.2054 17.1711C18.212 17.0314 18.2987 16.8923 18.3973 16.7977C18.4724 16.7393 18.5455 16.7082 18.6412 16.7075C18.747 16.728 18.8424 16.7791 18.9038 16.8694C18.9549 16.9604 18.9691 17.0293 18.9557 17.1329C18.9253 17.1915 18.8993 17.2304 18.847 17.2705C18.7606 17.2934 18.691 17.2608 18.6135 17.2243C18.5459 17.193 18.4948 17.1755 18.4193 17.1884C18.3787 17.2493 18.3761 17.2779 18.3873 17.3491C18.4356 17.5024 18.5648 17.6354 18.7037 17.7121C18.8526 17.7511 18.9894 17.7562 19.1288 17.6837C19.3172 17.5656 19.4266 17.3969 19.4856 17.1817C19.5201 16.9231 19.4985 16.6888 19.3488 16.4693C19.2823 16.3839 19.2149 16.3193 19.1222 16.2635C19.1085 16.2552 19.0949 16.2469 19.0809 16.2383C18.8001 16.0828 18.4807 16.089 18.1788 16.1711C18.0744 16.211 17.9791 16.2593 17.8944 16.3329C17.8425 16.3774 17.8005 16.3943 17.7349 16.4115C17.7517 16.4218 17.7684 16.4321 17.7857 16.4427C17.8707 16.5032 17.9288 16.5687 17.9568 16.6705C17.9522 16.757 17.9119 16.8395 17.8643 16.911C17.7675 16.9881 17.6919 17.0136 17.5684 17.0034C17.487 16.9769 17.4322 16.9428 17.3753 16.8786C17.3276 16.7794 17.3146 16.6973 17.3476 16.593C17.3848 16.5054 17.4463 16.4541 17.5314 16.4115C17.5161 16.4047 17.5009 16.3978 17.4851 16.3907C17.4338 16.3632 17.3949 16.3373 17.3499 16.3017C17.1492 16.1499 16.8565 16.0876 16.6065 16.1156C16.3312 16.1548 16.0977 16.2543 15.9279 16.4786C15.7842 16.6967 15.7612 16.9343 15.8014 17.1882C15.8135 17.2339 15.8287 17.2748 15.8481 17.3179C15.8555 17.3348 15.863 17.3516 15.8707 17.369C15.9421 17.5145 16.0422 17.6334 16.1903 17.7052C16.3263 17.7465 16.453 17.7583 16.588 17.7064C16.7298 17.6282 16.8529 17.4915 16.9025 17.3364C16.9009 17.2561 16.9009 17.2561 16.8655 17.1884C16.7731 17.1874 16.695 17.2057 16.6123 17.2462C16.5581 17.272 16.5328 17.2809 16.4712 17.2821C16.3971 17.2527 16.364 17.2028 16.329 17.1329C16.3189 17.015 16.3357 16.9352 16.403 16.837C16.4768 16.7562 16.5464 16.7255 16.6525 16.7094C16.7509 16.7053 16.8132 16.733 16.8864 16.798C16.9897 16.9068 17.0582 17.0156 17.0782 17.1653C17.0649 17.3881 16.9628 17.5773 16.8077 17.7318C16.6342 17.8764 16.3962 17.8732 16.1811 17.8543C16.0503 17.8237 15.9622 17.741 15.8666 17.6509C15.8014 17.5846 15.8014 17.5846 15.7186 17.5584C15.6971 17.6014 15.6982 17.6251 15.6989 17.673C15.6991 17.6891 15.6993 17.7051 15.6995 17.7217C15.6999 17.7479 15.6999 17.7479 15.7003 17.7747C15.7006 17.812 15.7009 17.8493 15.7012 17.8866C15.7018 17.9452 15.7024 18.0038 15.7033 18.0624C15.7121 18.6874 15.5361 19.1851 15.1036 19.6428C14.751 19.9797 14.3202 20.162 13.8297 20.153C13.417 20.1362 13.0142 19.9402 12.7292 19.6449C12.468 19.3388 12.3774 18.9871 12.4076 18.5942C12.447 18.3415 12.604 18.1583 12.7726 17.9762C13.0027 17.7135 13.1484 17.3845 13.1342 17.0298C13.1113 16.8329 13.0507 16.6449 12.8943 16.5144C12.7878 16.4428 12.6601 16.4023 12.5313 16.4138C12.3989 16.4452 12.303 16.5067 12.2168 16.6115C12.1807 16.6797 12.1795 16.7239 12.1856 16.8C12.2031 16.7908 12.2207 16.7817 12.2388 16.7722C12.3248 16.7358 12.408 16.7304 12.5 16.7445C12.56 16.7766 12.6004 16.8078 12.648 16.8555C12.6674 16.921 12.6689 16.9585 12.6492 17.0243C12.5974 17.0964 12.5478 17.1265 12.463 17.1514C12.3674 17.1661 12.2746 17.1696 12.189 17.1191C12.0894 17.0336 12.0303 16.9062 12.0096 16.7784C12.0046 16.6412 12.0303 16.5404 12.1197 16.4359C12.263 16.2975 12.4432 16.2699 12.6348 16.2707C12.7686 16.2762 12.8699 16.3182 12.981 16.393C13.0012 16.4064 13.0214 16.4197 13.0423 16.4335C13.2351 16.6353 13.2862 16.8565 13.2848 17.1276C13.2781 17.3542 13.2145 17.5605 13.1105 17.7619C13.1337 17.7557 13.157 17.7496 13.181 17.7434C13.435 17.6877 13.7178 17.736 13.9415 17.8677C14.0568 17.9462 14.1371 18.0266 14.2018 18.1503C14.2112 18.167 14.2112 18.167 14.2208 18.184C14.2834 18.3167 14.2819 18.4895 14.2424 18.6283C14.1532 18.8236 13.9753 19.0072 13.7764 19.0914C13.6781 19.1237 13.593 19.1263 13.4943 19.0902C13.4047 19.0311 13.3682 18.975 13.3428 18.8717C13.3331 18.8119 13.3311 18.7834 13.3498 18.7249C13.425 18.6497 13.5097 18.6316 13.6111 18.6139C13.7218 18.5932 13.7874 18.5546 13.8561 18.4636C13.9153 18.3607 13.9208 18.2628 13.898 18.1474C13.8667 18.0478 13.8099 17.9826 13.7209 17.9283C13.5565 17.8559 13.2887 17.8575 13.1197 17.9168C12.9501 18.0028 12.7824 18.1339 12.685 18.2983C12.6765 18.3114 12.668 18.3246 12.6593 18.3382C12.5152 18.5865 12.5462 18.8868 12.6064 19.1557C12.6697 19.3745 12.8009 19.5384 12.9995 19.6486C13.3255 19.8144 13.729 19.8537 14.0841 19.7626C14.2989 19.6883 14.4781 19.5801 14.6458 19.4266C14.6384 19.4168 14.631 19.4069 14.6234 19.3967C14.4955 19.2168 14.4517 19.0378 14.4793 18.8162C14.5075 18.7622 14.5075 18.7622 14.5348 18.7237C14.6404 18.7581 14.6404 18.7581 14.6909 18.7827C14.7717 18.8083 14.8446 18.7869 14.9232 18.7607C14.9425 18.7213 14.9425 18.7213 14.9602 18.6682C14.9655 18.6576 14.9709 18.6471 14.9763 18.6362C15.107 18.3739 15.1275 18.0646 15.1597 17.7778C15.2242 17.2088 15.4171 16.647 15.8666 16.2635C16.1649 16.0431 16.5343 15.9262 16.9046 15.9775C17.0533 16.0004 17.1915 16.031 17.3279 16.0971C17.1441 15.8538 16.8701 15.7029 16.6065 15.5606C16.5938 15.5537 16.581 15.5469 16.5679 15.5398C15.9723 15.2213 15.2422 15.0135 14.5718 15.2092C14.5592 15.2129 14.5466 15.2165 14.5336 15.2203C14.2228 15.3137 13.8979 15.4646 13.729 15.756C13.625 15.9703 13.6184 16.202 13.6832 16.4305C13.7542 16.6345 13.8582 16.8222 14.0515 16.9306C14.1647 16.9803 14.2629 16.9891 14.3808 16.9501C14.5017 16.8961 14.5734 16.8319 14.6231 16.7091C14.6632 16.5782 14.645 16.4597 14.5891 16.3364C14.4491 16.0797 14.1811 15.9569 13.9212 15.8511C13.8846 15.8358 13.8489 15.8186 13.8134 15.8011C13.8042 15.7736 13.8042 15.7736 13.7949 15.7456C13.8215 15.7051 13.8215 15.7051 13.8504 15.6716C14.1737 15.764 14.537 15.9562 14.7104 16.2557C14.7842 16.3985 14.8208 16.5245 14.7811 16.6844C14.7169 16.8762 14.6201 16.9981 14.4423 17.0959C14.2714 17.1529 14.0842 17.1207 13.9232 17.0506C13.8404 17.0069 13.7717 16.955 13.7024 16.8925C13.6912 16.8837 13.6801 16.8749 13.6686 16.8658C13.5005 16.7211 13.4027 16.4668 13.3811 16.2503C13.3752 15.9182 13.4858 15.6236 13.7153 15.3796C13.981 15.1085 14.3753 14.9809 14.7503 14.966C14.8142 14.9656 14.8782 14.9653 14.9421 14.9653C14.983 14.9652 15.0238 14.9649 15.0646 14.9646C15.1977 14.964 15.3252 14.9686 15.4558 14.9977C15.5018 15.0081 15.5018 15.0081 15.5706 15.0057C15.5615 14.9983 15.5523 14.9909 15.5428 14.9832C15.2853 14.7678 15.1473 14.4868 15.1082 14.1548C15.1044 14.0886 15.1023 14.0223 15.1001 13.956C15.0905 13.7295 15.0816 13.5471 14.9417 13.3594C14.9279 13.3474 14.9142 13.3353 14.9 13.3229C14.8893 13.3106 14.8787 13.2982 14.8677 13.2854C14.8724 13.2346 14.8724 13.2346 14.8862 13.1929C15.2008 13.1698 15.4726 13.298 15.708 13.4985C15.8413 13.6269 15.9313 13.7791 15.9961 13.9513C16.0034 13.9705 16.0106 13.9896 16.0181 14.0094C16.0896 14.2237 16.1221 14.4941 16.0199 14.7035C16.0081 14.7249 16.0081 14.7249 15.9961 14.7467C15.9759 14.7856 15.9559 14.8245 15.936 14.8635C15.9215 14.8903 15.9215 14.8903 15.9068 14.9176C15.8841 14.971 15.8833 15.0042 15.8851 15.0612C15.9409 15.0883 15.9968 15.1153 16.0527 15.1421C16.0702 15.1505 16.0877 15.1589 16.1057 15.1676C16.2129 15.2187 16.3209 15.2666 16.4305 15.3122C16.8134 15.4722 17.1647 15.6708 17.4574 15.9676C17.3673 15.7677 17.271 15.582 17.1451 15.4019C16.9935 15.1849 16.8509 14.9574 16.7545 14.7097C16.7472 14.6914 16.74 14.673 16.7325 14.654C16.6372 14.3743 16.648 14.0593 16.7545 13.7849C16.765 13.7554 16.765 13.7554 16.7757 13.7253C16.8378 13.5647 16.926 13.4248 17.0178 13.2798C17.1872 13.011 17.3038 12.7572 17.2331 12.4345C17.2013 12.3193 17.1508 12.221 17.0874 12.1201C17.0752 12.1001 17.0752 12.1001 17.0627 12.0797C16.9238 11.8736 16.6767 11.7504 16.44 11.6946C16.2023 11.6711 15.9679 11.6814 15.766 11.8206C15.6377 11.9277 15.5774 12.0469 15.5521 12.2126C15.5465 12.3756 15.5911 12.5238 15.6839 12.6577C15.7288 12.704 15.7452 12.7113 15.81 12.7155C15.8698 12.7166 15.8698 12.7166 15.9221 12.675C15.9436 12.6106 15.9405 12.5625 15.9383 12.4947C15.9375 12.3709 15.9432 12.2896 16.0285 12.1952C16.0993 12.1618 16.1671 12.1657 16.2412 12.1883C16.2892 12.2243 16.306 12.2486 16.329 12.3051C16.3508 12.4653 16.3175 12.6158 16.2293 12.7516C16.1548 12.8449 16.0795 12.8863 15.9626 12.9132C15.8526 12.9226 15.7637 12.892 15.6743 12.8285C15.5067 12.6872 15.4265 12.5323 15.3982 12.3149C15.3891 12.128 15.4503 11.9455 15.5724 11.8042C15.7401 11.6346 15.9618 11.5424 16.1996 11.5282C16.3047 11.5294 16.4093 11.5375 16.514 11.5467C16.1854 11.36 15.8535 11.23 15.4782 11.1767C15.453 11.1731 15.453 11.1731 15.4273 11.1694C15.3825 11.164 15.3382 11.1606 15.2932 11.1582C15.2753 11.1572 15.2574 11.1562 15.2389 11.1552C14.8368 11.1439 14.4835 11.284 14.1898 11.5579C13.903 11.836 13.7284 12.2246 13.7178 12.6259C13.715 12.9136 13.7249 13.2035 13.8874 13.4519C13.9514 13.5049 14.0076 13.5173 14.0909 13.514C14.1661 13.5006 14.2189 13.4597 14.2642 13.3999C14.2861 13.3233 14.2934 13.2617 14.2536 13.1898C14.2342 13.1614 14.2145 13.1332 14.1945 13.1051C14.1308 13.0157 14.0832 12.9416 14.0908 12.8288C14.1042 12.7534 14.1243 12.7079 14.1833 12.6565C14.2736 12.6042 14.3565 12.5923 14.459 12.609C14.5743 12.6402 14.6528 12.7286 14.7198 12.823C14.774 12.9314 14.7778 13.0681 14.7427 13.1837C14.6396 13.4242 14.4793 13.5746 14.2388 13.6739C14.1135 13.7113 14.002 13.696 13.8874 13.6369C13.7193 13.5359 13.6511 13.3458 13.603 13.164C13.4873 12.6717 13.5895 12.158 13.8504 11.7316C13.8958 11.6661 13.9451 11.606 13.9983 11.5467C14.0134 11.5299 14.0284 11.5131 14.0439 11.4959C14.3306 11.1928 14.7063 11.0288 15.1229 11.0065C15.7898 10.9986 16.375 11.2443 16.9025 11.6391C16.5149 11.1629 15.9143 10.8079 15.3004 10.7367C14.6831 10.6822 14.0847 10.8571 13.5914 11.2322C13.5693 11.2489 13.5693 11.2489 13.5467 11.2659C13.2257 11.5283 13.0538 11.9395 12.9995 12.3421C12.9937 12.4227 12.9924 12.5029 12.9925 12.5837C12.9925 12.6055 12.9925 12.6273 12.9925 12.6497C12.9947 12.8196 13.0179 12.9746 13.0634 13.1377C13.0749 13.1796 13.0858 13.2216 13.096 13.2638C13.0994 13.2774 13.1028 13.291 13.1062 13.305C13.1105 13.3409 13.1105 13.3409 13.085 13.3883C13.0701 13.4015 13.0701 13.4015 13.055 13.4149C12.8515 13.3278 12.7465 13.0903 12.6665 12.897C12.5103 12.4726 12.5479 12.0068 12.7266 11.5944C12.8335 11.3757 12.9651 11.1899 13.129 11.0102C13.1399 10.9979 13.1509 10.9857 13.1622 10.973C13.5862 10.5228 14.2348 10.2956 14.8402 10.2673C15.376 10.2554 15.8926 10.402 16.329 10.7143C16.3391 10.7215 16.3492 10.7287 16.3596 10.7361C16.501 10.8385 16.6301 10.9518 16.7568 11.0719C16.8038 11.1155 16.8518 11.1559 16.9025 11.1952C16.9027 11.1844 16.903 11.1736 16.9033 11.1625C16.9166 10.9338 17.0161 10.7735 17.1614 10.6033C17.3564 10.3614 17.4937 10.1005 17.4811 9.77999C17.4559 9.55625 17.3772 9.36833 17.1999 9.22455C17.0183 9.09654 16.8253 9.06471 16.6065 9.08647C16.4768 9.11397 16.3567 9.16546 16.2736 9.27145C16.1876 9.40816 16.1079 9.54922 16.1441 9.71539C16.1791 9.82515 16.2357 9.8903 16.329 9.95586C16.4043 9.98093 16.4724 9.98651 16.551 9.97436C16.6278 9.91884 16.6616 9.86333 16.6805 9.77088C16.6751 9.71037 16.6751 9.71037 16.662 9.6599C16.6071 9.64158 16.6071 9.64158 16.551 9.6229C16.5502 9.59208 16.5503 9.56123 16.551 9.53041C16.58 9.50138 16.6091 9.50738 16.6493 9.50613C16.7116 9.50673 16.7304 9.50783 16.7822 9.54544C16.8419 9.63251 16.8388 9.72465 16.8285 9.82637C16.7994 9.9371 16.7643 10.0255 16.662 10.0853C16.5513 10.1362 16.4364 10.1433 16.3191 10.1083C16.1515 10.0371 16.0591 9.93441 15.9903 9.76741C15.9504 9.54601 15.9846 9.3852 16.1071 9.19746C16.2336 9.03301 16.3867 8.94891 16.5902 8.91912C16.6449 8.91211 16.6996 8.90646 16.7545 8.90149C16.7381 8.89005 16.7217 8.8786 16.7048 8.86681C16.6081 8.78574 16.5534 8.66642 16.5325 8.5431C16.5218 8.35201 16.5994 8.16108 16.7175 8.01361C16.8605 7.85418 17.0182 7.7097 17.1799 7.56967C17.3955 7.37732 17.5185 7.14932 17.6239 6.88525ZM17.8089 15.9861C17.8274 16.0231 17.8274 16.0231 17.8274 16.0231L17.8089 15.9861Z" fill="#DFDFDF"/>
<path d="M10.16 19.151C10.4221 19.3511 10.5834 19.6576 10.6316 19.9817C10.6522 20.2355 10.6138 20.4667 10.4466 20.6661C10.3186 20.7771 10.188 20.8244 10.0191 20.8211C9.90738 20.8063 9.81733 20.7545 9.73446 20.6799C9.68901 20.5966 9.66165 20.5163 9.676 20.4207C9.70858 20.3104 9.76924 20.2218 9.83619 20.1296C9.86025 20.0965 9.88427 20.0634 9.90823 20.0302C9.92463 20.0075 9.94114 19.9849 9.95777 19.9624C10.0315 19.861 10.0684 19.78 10.0651 19.6549C10.0461 19.5367 9.96178 19.4497 9.87138 19.3771C9.70701 19.2633 9.55113 19.247 9.35526 19.2602C9.11234 19.3058 8.92966 19.4532 8.78956 19.6522C8.6426 19.8754 8.54506 20.129 8.48587 20.3886C8.48287 20.4016 8.47986 20.4147 8.47677 20.4281C8.37246 20.9055 8.4104 21.3938 8.57836 21.8499C8.57709 21.8388 8.57582 21.8277 8.57451 21.8163C8.51582 21.2727 8.6026 20.7908 8.9512 20.3575C9.05916 20.2325 9.1809 20.1287 9.31826 20.0371C9.34268 20.0371 9.36709 20.0371 9.39225 20.0371C9.40605 20.0767 9.40605 20.0767 9.41075 20.1296C9.38134 20.1802 9.38134 20.1802 9.33791 20.236C9.12209 20.5289 8.98255 20.8901 9.0223 21.258C9.03919 21.3012 9.03919 21.3012 9.05929 21.332C9.07188 21.3228 9.08447 21.3137 9.09745 21.3042C9.16666 21.2689 9.20415 21.266 9.28127 21.2765C9.351 21.3106 9.41136 21.3511 9.46624 21.406C9.46243 21.4688 9.43886 21.5179 9.4119 21.5736C9.36514 21.6743 9.35082 21.7775 9.33676 21.8869C9.34935 21.8758 9.36194 21.8648 9.37491 21.8534C9.52872 21.7388 9.69341 21.7268 9.88013 21.7493C9.95336 21.7629 9.99602 21.776 10.0443 21.8337C10.055 21.8513 10.0657 21.8688 10.0767 21.8869C10.0713 21.8961 10.0659 21.9054 10.0603 21.9149C9.88218 22.2269 9.75641 22.5457 9.82983 22.9088C9.91057 23.1542 10.0874 23.3401 10.3148 23.4557C10.7447 23.6649 11.1911 23.5999 11.6392 23.4929C11.7453 23.4682 11.852 23.4469 11.9588 23.4257C11.9776 23.4219 11.9964 23.418 12.0158 23.4141C12.3481 23.3476 12.7525 23.3024 13.0617 23.4708C13.2438 23.5928 13.3422 23.7699 13.4432 23.9586C13.4731 24.0142 13.503 24.0698 13.533 24.1253C13.5535 24.1635 13.574 24.2017 13.5943 24.24C13.8989 24.8085 14.3379 25.119 14.9521 25.3051C15.4846 25.4559 15.9125 25.4414 16.404 25.1737C16.4185 25.1655 16.433 25.1573 16.448 25.1488C16.5334 25.1014 16.6007 25.0733 16.6988 25.0685C16.7427 25.0847 16.7427 25.0847 16.7728 25.124C16.7942 25.2054 16.7929 25.2822 16.7826 25.365C16.6987 26.0731 16.9007 26.841 17.3419 27.4054C17.4637 27.556 17.4637 27.556 17.6237 27.6582C17.7708 27.6343 17.9076 27.4564 17.9936 27.3437C18.2508 26.9738 18.4251 26.5308 18.4931 26.0859C18.4965 26.0637 18.4999 26.0415 18.5035 26.0187C18.516 25.9146 18.5143 25.8102 18.5139 25.7055C18.5139 25.6842 18.5139 25.663 18.5139 25.641C18.5134 25.5036 18.5076 25.3689 18.4917 25.2323C18.4934 25.1664 18.5053 25.1367 18.5486 25.087C18.6208 25.0597 18.6529 25.0658 18.7247 25.0945C18.7486 25.1072 18.7724 25.1201 18.796 25.1332C18.8221 25.1471 18.8484 25.1608 18.8746 25.1745C18.8879 25.1815 18.9013 25.1885 18.9151 25.1958C19.2351 25.3596 19.5449 25.4611 19.9058 25.398C19.9201 25.3955 19.9343 25.393 19.949 25.3905C20.2434 25.337 20.5158 25.251 20.7868 25.124C20.7994 25.1181 20.812 25.1122 20.8249 25.1061C21.2315 24.9121 21.4791 24.6298 21.6858 24.2351C22.0612 23.5185 22.0612 23.5185 22.3996 23.3993C22.8941 23.2652 23.4459 23.4437 23.9287 23.5574C24.3049 23.6402 24.7176 23.6074 25.054 23.4118C25.2544 23.2798 25.4152 23.0884 25.4667 22.8488C25.4895 22.4841 25.3976 22.1974 25.2077 21.8869C25.248 21.8207 25.274 21.7847 25.3486 21.7597C25.5615 21.7201 25.7236 21.7416 25.9106 21.8499C25.9228 21.856 25.935 21.8621 25.9476 21.8684C25.9173 21.6902 25.9173 21.6902 25.8505 21.5239C25.8181 21.4615 25.8181 21.4615 25.8227 21.423C25.8482 21.3579 25.9075 21.3279 25.9638 21.2904C26.048 21.2607 26.1155 21.269 26.1962 21.3042C26.2118 21.3134 26.2275 21.3225 26.2436 21.332C26.3421 21.0083 26.1925 20.6544 26.0438 20.3721C26.0024 20.2994 25.9525 20.2346 25.8983 20.1708C25.8736 20.1296 25.8736 20.1296 25.879 20.078C25.8833 20.0645 25.8877 20.0511 25.8921 20.0371C25.9937 20.0435 26.0572 20.1046 26.1326 20.1666C26.146 20.1773 26.1594 20.188 26.1733 20.1991C26.4332 20.4164 26.6001 20.7302 26.6875 21.0545C26.6917 21.0692 26.6958 21.0839 26.7001 21.0991C26.7555 21.3383 26.7345 21.6079 26.706 21.8499C26.8791 21.3799 26.9114 20.8787 26.7985 20.3886C26.7955 20.3755 26.7926 20.3625 26.7895 20.349C26.7027 19.9855 26.5292 19.5641 26.1988 19.3589C26.0127 19.2627 25.8094 19.2192 25.6022 19.2731C25.4434 19.3383 25.2958 19.452 25.2262 19.6117C25.219 19.6503 25.219 19.6503 25.2193 19.6903C25.2187 19.7034 25.2182 19.7165 25.2177 19.7299C25.2461 19.891 25.3672 20.0195 25.4658 20.1437C25.5489 20.2521 25.6201 20.3679 25.612 20.5094C25.5963 20.6072 25.559 20.6725 25.4852 20.7401C25.3688 20.8152 25.2515 20.8332 25.1152 20.814C24.9371 20.7644 24.833 20.676 24.7375 20.519C24.6149 20.2826 24.6281 20.01 24.7013 19.76C24.7923 19.48 24.9715 19.2318 25.2286 19.0827C25.4769 18.9614 25.7161 18.9497 25.9787 19.0334C26.1407 19.095 26.2792 19.1843 26.4101 19.2972C26.4224 19.3078 26.4347 19.3184 26.4474 19.3293C26.7325 19.5929 26.8672 19.9818 26.9465 20.3516C26.9495 20.3658 26.9526 20.38 26.9557 20.3946C27.0334 20.774 27.0453 21.1961 26.9465 21.5724C26.9428 21.5868 26.9391 21.6011 26.9354 21.6159C26.7614 22.2791 26.3719 22.8988 25.8181 23.3112C25.8034 23.3223 25.8034 23.3223 25.7884 23.3337C25.3091 23.6936 24.8351 23.8446 24.2331 23.7669C23.9266 23.7231 23.6236 23.6533 23.321 23.5887C23.3307 23.599 23.3405 23.6093 23.3505 23.62C23.432 23.7085 23.4976 23.792 23.5487 23.9008C23.5549 23.9136 23.561 23.9263 23.5674 23.9394C23.7268 24.2784 23.7333 24.6653 23.615 25.0184C23.5303 25.2342 23.406 25.4336 23.1913 25.536C23.0096 25.6023 22.7472 25.5979 22.571 25.5208C22.3397 25.3843 22.2196 25.1661 22.1429 24.916C22.0932 24.7222 22.1056 24.5222 22.1951 24.3417C22.2624 24.2286 22.3425 24.1314 22.4701 24.0881C22.6026 24.0756 22.7255 24.0711 22.84 24.1436C22.9109 24.2119 22.9647 24.2717 22.9733 24.3733C22.9767 24.5774 22.9145 24.687 22.7983 24.8532C22.7458 24.9326 22.7398 24.9932 22.7475 25.087C22.7846 25.2092 22.8587 25.285 22.9695 25.346C23.0714 25.3799 23.1451 25.3578 23.2402 25.3156C23.3715 25.2401 23.4426 25.1003 23.4851 24.9595C23.5125 24.855 23.5363 24.751 23.5429 24.6431C23.5444 24.6193 23.5444 24.6193 23.5459 24.5951C23.5555 24.2846 23.4732 23.9881 23.277 23.7436C23.2046 23.6684 23.1168 23.6185 23.025 23.5702C23.0138 23.5637 23.0027 23.5573 22.9912 23.5506C22.9135 23.517 22.8275 23.5272 22.7441 23.5274C22.7255 23.5271 22.7069 23.5268 22.6878 23.5265C22.4887 23.5264 22.3644 23.569 22.2202 23.7071C21.9805 23.957 21.9079 24.1544 21.8712 24.4916C21.8426 24.7326 21.8099 24.9533 21.6174 25.1207C21.5182 25.198 21.5182 25.198 21.4712 25.198C21.4773 25.2163 21.4834 25.2346 21.4897 25.2535C21.5032 25.3781 21.4948 25.4855 21.4157 25.5864C21.245 25.7475 20.979 25.7454 20.7586 25.7397C20.395 25.7241 20.0343 25.6509 19.6769 25.5864C19.6942 25.5929 19.7114 25.5995 19.7292 25.6062C20.1898 25.7831 20.5341 26.0419 20.7406 26.4989C20.9125 26.9236 20.8937 27.325 20.7214 27.745C20.409 28.4499 19.9205 28.8489 19.2072 29.125C19.1193 29.1587 19.0313 29.192 18.943 29.2247C18.7688 29.2896 18.598 29.3585 18.4299 29.4383C18.4141 29.4458 18.3982 29.4533 18.3819 29.461C18.2486 29.5256 18.1289 29.6012 18.0121 29.6929C17.9971 29.7046 17.982 29.7163 17.9665 29.7284C17.7321 29.923 17.5582 30.204 17.5127 30.5068C17.4957 30.7089 17.5293 30.8996 17.5821 31.0945C17.6099 31.1993 17.6099 31.1993 17.5798 31.2664C17.5649 31.2841 17.5649 31.2841 17.5497 31.3022C17.4942 31.2837 17.4942 31.2837 17.478 31.2528C17.4738 31.2396 17.4695 31.2265 17.4652 31.213C17.4604 31.1985 17.4557 31.184 17.4508 31.1691C17.446 31.1539 17.4413 31.1387 17.4364 31.123C17.4315 31.1081 17.4266 31.0933 17.4216 31.0779C17.3112 30.7353 17.3474 30.3798 17.4977 30.0559C17.5615 29.9364 17.6378 29.8425 17.7347 29.7484C17.7499 29.7332 17.7651 29.7181 17.7808 29.7024C18.1426 29.3568 18.602 29.1917 19.0615 29.0173C19.5627 28.8323 19.5627 28.8323 20.0099 28.546C20.0038 28.5277 19.9977 28.5094 19.9914 28.4906C19.9811 28.4888 19.9709 28.487 19.9604 28.4852C19.6657 28.4336 19.468 28.3737 19.2515 28.1576C19.2399 28.1462 19.2283 28.1348 19.2163 28.1231C18.9888 27.8827 18.8697 27.5584 18.8765 27.2303C18.8874 27.0756 18.9353 26.9552 19.0517 26.8511C19.1649 26.7651 19.2778 26.7386 19.418 26.7518C19.5655 26.7799 19.6726 26.8559 19.7615 26.9761C19.8315 27.085 19.8591 27.1769 19.8434 27.3067C19.8102 27.377 19.7853 27.4083 19.7185 27.4478C19.6115 27.4601 19.537 27.3998 19.4526 27.3391C19.3898 27.3008 19.3608 27.2947 19.2885 27.3067C19.2005 27.3525 19.1473 27.4025 19.1035 27.4917C19.0737 27.6529 19.1467 27.78 19.2318 27.9114C19.2505 27.9381 19.2694 27.9647 19.2885 27.9911C19.3022 28.0102 19.3159 28.0293 19.3301 28.0489C19.4641 28.189 19.6291 28.2913 19.8249 28.3056C19.8861 28.2988 19.8861 28.2988 19.9359 28.2871C19.9306 28.2774 19.9252 28.2678 19.9197 28.2578C19.8564 28.1323 19.8333 28.0118 19.8748 27.8746C19.9193 27.7753 19.9858 27.7072 20.0839 27.6582C20.112 27.6564 20.1401 27.6558 20.1683 27.6559C20.1832 27.6558 20.1981 27.6558 20.2134 27.6557C20.2504 27.6582 20.2504 27.6582 20.2688 27.6767C20.2743 27.7436 20.2661 27.7854 20.2319 27.8431C20.2636 27.8816 20.2846 27.8977 20.3324 27.9137C20.3893 27.9178 20.4092 27.9159 20.4538 27.8801C20.513 27.7787 20.5264 27.682 20.5093 27.5657C20.472 27.4668 20.4022 27.3738 20.3174 27.3113C20.2371 27.2425 20.1738 27.165 20.147 27.0608C20.1377 26.9191 20.1874 26.7825 20.2293 26.6489C20.2625 26.5425 20.2945 26.4348 20.2504 26.3263C20.232 26.3202 20.2137 26.3141 20.1949 26.3078C20.1895 26.3273 20.1842 26.3468 20.1787 26.3668C20.1481 26.4489 20.1008 26.514 20.048 26.583C20.0401 26.5936 20.0321 26.6041 20.0239 26.615C19.9813 26.6693 19.946 26.7093 19.8804 26.7333C19.8249 26.6963 19.8249 26.6963 19.8153 26.6568C19.8117 26.6256 19.8082 26.5943 19.8049 26.5631C19.7612 26.4297 19.6488 26.3566 19.5324 26.2893C19.506 26.2733 19.4797 26.2572 19.4534 26.2411C19.4346 26.2296 19.4346 26.2296 19.4154 26.2179C19.1836 26.0761 19.0765 25.8658 18.9547 25.6313C18.8507 25.4279 18.8507 25.4279 18.6781 25.2905C18.6779 25.3097 18.6777 25.329 18.6775 25.3488C18.6698 26.0868 18.6698 26.0868 18.5856 26.3818C18.5806 26.3992 18.5757 26.4166 18.5706 26.4345C18.4409 26.8764 18.2553 27.3475 17.9012 27.6582C17.8857 27.6723 17.8702 27.6865 17.8542 27.7011C17.7364 27.8032 17.7364 27.8032 17.6532 27.8153C17.5733 27.8043 17.5276 27.7734 17.4676 27.7229C17.4571 27.7144 17.4467 27.7058 17.4359 27.697C17.4057 27.6721 17.3759 27.6467 17.3462 27.6212C17.3258 27.6046 17.3258 27.6046 17.305 27.5876C16.9059 27.2322 16.6538 26.4749 16.6225 25.9548C16.6209 25.9122 16.6199 25.8696 16.619 25.827C16.6186 25.8116 16.6182 25.7961 16.6178 25.7803C16.6166 25.7314 16.6155 25.6826 16.6144 25.6338C16.6136 25.6006 16.6128 25.5673 16.612 25.534C16.61 25.4528 16.6081 25.3717 16.6063 25.2905C16.423 25.3883 16.3384 25.6102 16.2463 25.7876C16.1692 25.933 16.085 26.081 15.9439 26.1726C15.9282 26.1829 15.9125 26.1933 15.8963 26.2039C15.8486 26.2334 15.8004 26.2621 15.752 26.2905C15.6312 26.3621 15.528 26.4305 15.478 26.5668C15.4753 26.5897 15.4726 26.6126 15.4699 26.6362C15.4664 26.656 15.463 26.6758 15.4595 26.6963C15.4213 26.7229 15.4213 26.7229 15.3855 26.7333C15.3134 26.6798 15.2603 26.6233 15.2063 26.5518C15.1921 26.5333 15.1779 26.5149 15.1633 26.4959C15.123 26.4317 15.1067 26.3811 15.0895 26.3078C15.0712 26.3139 15.0529 26.32 15.034 26.3263C15.0091 26.4671 15.0247 26.57 15.0699 26.7044C15.168 27.0219 15.168 27.0219 15.0953 27.1645C15.0812 27.1809 15.0671 27.1973 15.0525 27.2142C15.0376 27.2329 15.0228 27.2516 15.0074 27.2709C14.9627 27.3222 14.9156 27.3696 14.8675 27.4177C14.7863 27.5124 14.7684 27.5791 14.7699 27.7017C14.7779 27.7774 14.8013 27.839 14.849 27.8986C14.906 27.9249 14.932 27.9195 14.9924 27.9044C15.0365 27.884 15.0365 27.884 15.0514 27.8431C15.0517 27.8309 15.0521 27.8187 15.0525 27.8061C15.0403 27.7939 15.0281 27.7817 15.0155 27.7692C15.0121 27.7218 15.0121 27.7218 15.0155 27.6767C15.0442 27.648 15.0717 27.6537 15.1115 27.6524C15.1982 27.6535 15.2447 27.6747 15.3115 27.7322C15.4075 27.8362 15.4306 27.9289 15.4287 28.0675C15.4191 28.149 15.3879 28.2158 15.3485 28.2871C15.5086 28.3197 15.6326 28.2858 15.7693 28.1969C15.7957 28.1779 15.8219 28.1587 15.8479 28.1391C15.867 28.1254 15.8861 28.1116 15.9057 28.0975C16.0404 27.9686 16.1804 27.7703 16.1867 27.5784C16.1854 27.4926 16.1647 27.4461 16.1069 27.3807C16.0512 27.3347 16.0154 27.3089 15.9432 27.3009C15.873 27.3079 15.8393 27.3298 15.782 27.3703C15.7174 27.4157 15.6686 27.4476 15.589 27.4547C15.5124 27.4219 15.4727 27.3836 15.441 27.3067C15.4187 27.1645 15.4615 27.0663 15.5435 26.9527C15.6315 26.8437 15.7289 26.7806 15.8664 26.7518C16.0167 26.7418 16.123 26.7705 16.241 26.8662C16.3449 26.9626 16.3978 27.078 16.4066 27.2188C16.411 27.5719 16.2908 27.8781 16.0514 28.1391C16.0396 28.1524 16.0278 28.1656 16.0157 28.1793C15.8135 28.3953 15.5763 28.4485 15.293 28.4906C15.293 28.515 15.293 28.5394 15.293 28.5645C15.3293 28.5952 15.3625 28.6188 15.4028 28.6432C15.4195 28.6534 15.4195 28.6534 15.4366 28.6638C15.5218 28.7147 15.6081 28.7605 15.698 28.8025C15.7182 28.812 15.7182 28.812 15.7389 28.8216C15.8745 28.8842 16.0129 28.9384 16.1526 28.9913C16.2253 29.0189 16.2978 29.047 16.3704 29.075C16.3845 29.0805 16.3987 29.086 16.4133 29.0916C16.8422 29.2577 17.2254 29.4349 17.5682 29.7484C17.5569 29.8032 17.545 29.8294 17.5127 29.8779C17.4587 29.8538 17.4254 29.8297 17.3867 29.7854C17.2364 29.6325 17.0452 29.5286 16.8531 29.4376C16.8363 29.4296 16.8195 29.4217 16.8022 29.4135C16.6349 29.3354 16.4635 29.2699 16.2904 29.2058C15.8791 29.0527 15.4763 28.8982 15.145 28.6015C15.1242 28.5832 15.1242 28.5832 15.103 28.5644C14.7393 28.2214 14.4497 27.6805 14.4192 27.1786C14.4075 26.7226 14.5657 26.3293 14.8785 25.9981C15.0592 25.8235 15.2726 25.7195 15.5026 25.6258C15.5497 25.6095 15.5497 25.6095 15.5705 25.5864C15.5537 25.5896 15.537 25.5928 15.5197 25.596C14.2837 25.8287 14.2837 25.8287 13.9323 25.6385C13.8586 25.5861 13.8183 25.5255 13.7947 25.4385C13.786 25.3539 13.7862 25.2789 13.8132 25.198C13.801 25.1945 13.7888 25.1911 13.7762 25.1876C13.6248 25.115 13.5377 25.0018 13.4802 24.8465C13.4444 24.7335 13.426 24.6199 13.4117 24.5026C13.4083 24.4748 13.4083 24.4748 13.4048 24.4464C13.4005 24.4096 13.3964 24.3728 13.3926 24.336C13.36 24.0489 13.2039 23.8083 12.9808 23.6257C12.7868 23.5041 12.5553 23.5109 12.3334 23.5332C12.2521 23.5574 12.1951 23.5907 12.1299 23.6442C12.1164 23.654 12.1029 23.6638 12.089 23.6739C11.9887 23.7524 11.9292 23.8467 11.8709 23.9586C11.8639 23.9713 11.8569 23.984 11.8496 23.9971C11.7006 24.2917 11.7195 24.6462 11.7969 24.9575C11.8474 25.1102 11.9261 25.2477 12.0704 25.3271C12.1568 25.3664 12.2217 25.3693 12.3129 25.3432C12.4191 25.3003 12.4787 25.2263 12.524 25.1247C12.5535 25.0383 12.546 24.9692 12.5079 24.8881C12.4637 24.8067 12.4123 24.7296 12.3609 24.6526C12.2988 24.5477 12.3034 24.429 12.3149 24.3101C12.3609 24.2147 12.4275 24.1507 12.5234 24.1052C12.6343 24.0677 12.7566 24.0681 12.8672 24.1065C13.0227 24.1899 13.094 24.3202 13.145 24.4847C13.2046 24.74 13.1464 25.0006 13.0132 25.2245C12.8953 25.3971 12.764 25.5224 12.5553 25.5679C12.3113 25.588 12.1072 25.5737 11.9133 25.4121C11.694 25.2114 11.6063 24.8978 11.5893 24.61C11.5771 24.2202 11.7015 23.8906 11.9449 23.5887C11.9219 23.5935 11.8989 23.5984 11.8752 23.6034C11.7883 23.6217 11.7014 23.6397 11.6145 23.6578C11.5771 23.6656 11.5398 23.6734 11.5025 23.6813C10.8717 23.8142 10.2835 23.8602 9.71755 23.4931C9.30729 23.2182 8.96702 22.8806 8.70784 22.4603C8.70066 22.4489 8.69349 22.4374 8.6861 22.4255C8.30486 21.8085 8.1863 21.0594 8.33789 20.3516C8.34096 20.337 8.34404 20.3224 8.34721 20.3073C8.44549 19.8566 8.647 19.4197 9.04658 19.162C9.41087 18.949 9.79881 18.9036 10.16 19.151Z" fill="#DFDFDF"/>
<path d="M12.2097 9.59978C12.3107 9.68436 12.3639 9.77117 12.3889 9.90036C12.3935 10.0183 12.3751 10.1052 12.2964 10.1963C12.1953 10.3008 12.0952 10.3538 11.9507 10.3709C11.875 10.3609 11.8465 10.3471 11.7969 10.2888C11.7794 10.2386 11.7693 10.1935 11.7784 10.1408C11.8371 10.0586 11.9199 10.0382 12.012 10.009C12.0404 9.99983 12.0688 9.99054 12.0971 9.98114C12.1159 9.97517 12.1159 9.97517 12.135 9.96907C12.1709 9.95658 12.1709 9.95658 12.2039 9.91886C12.2043 9.87777 12.2043 9.87777 12.197 9.83331C12.1949 9.81819 12.1929 9.80307 12.1907 9.7875C12.1881 9.77011 12.1881 9.77011 12.1854 9.75238C12.0932 9.70135 12.0359 9.68817 11.9337 9.7169C11.735 9.79308 11.6091 9.91648 11.5149 10.105C11.397 10.3766 11.3717 10.6547 11.464 10.9362C11.4847 10.9794 11.5063 11.0222 11.5287 11.0646C11.6767 11.3483 11.6737 11.6425 11.5828 11.9429C11.5005 12.1894 11.3652 12.4161 11.205 12.6195C11.1875 12.6431 11.1699 12.6667 11.1524 12.6903C11.1061 12.7523 11.0577 12.8122 11.0082 12.8716C10.826 13.0907 10.6622 13.3142 10.5576 13.5814C10.5482 13.6051 10.5482 13.6051 10.5386 13.6292C10.4665 13.8453 10.4664 14.149 10.5576 14.3583C10.6163 14.47 10.6828 14.5768 10.7507 14.683C10.7772 14.7246 10.8031 14.7665 10.8288 14.8085C10.9071 14.9341 10.9858 15.037 11.1083 15.1238C11.1513 15.155 11.1869 15.1893 11.2235 15.2277C11.2231 15.2147 11.2227 15.2016 11.2222 15.1882C11.2156 14.8238 11.3194 14.4818 11.4501 14.1444C11.5526 13.8792 11.5939 13.6295 11.56 13.346C11.5583 13.3252 11.5583 13.3252 11.5565 13.3039C11.575 13.2854 11.575 13.2854 11.6265 13.2799C11.7335 13.2899 11.7867 13.3729 11.8524 13.4519C12.0932 13.7792 12.1713 14.1431 12.1219 14.543C12.0744 14.8227 11.9562 15.0463 11.7784 15.2647C11.5143 15.6038 11.4999 15.8498 11.5501 16.2621C11.5554 16.3059 11.5605 16.3497 11.5655 16.3935C11.5688 16.4216 11.5722 16.4497 11.5755 16.4777C11.577 16.4907 11.5785 16.5037 11.5801 16.5171C11.5867 16.5709 11.5948 16.6189 11.612 16.6705C11.6183 16.6544 11.6183 16.6544 11.6247 16.638C11.6439 16.5891 11.6632 16.5402 11.6825 16.4913C11.6891 16.4744 11.6957 16.4576 11.7025 16.4402C11.7699 16.27 11.7699 16.27 11.8154 16.208C11.8277 16.208 11.8399 16.208 11.8524 16.208C11.8596 16.1882 11.8596 16.1882 11.8668 16.1679C11.9885 15.8864 12.2435 15.6872 12.5207 15.5745C12.8513 15.4638 13.1804 15.4686 13.5172 15.5421C13.5056 15.5963 13.4879 15.6413 13.4617 15.6901C13.4416 15.6874 13.4215 15.6848 13.4007 15.682C13.0333 15.6348 12.65 15.6287 12.338 15.8624C12.3115 15.8847 12.2853 15.9075 12.2594 15.9306C12.2473 15.9407 12.2352 15.9509 12.2228 15.9614C11.8916 16.2615 11.7589 16.7551 11.6399 17.1688C11.6343 17.188 11.6287 17.2073 11.623 17.2272C11.6181 17.2443 11.6133 17.2614 11.6083 17.279C11.5935 17.3179 11.5935 17.3179 11.5565 17.3364C11.4917 17.3399 11.4917 17.3399 11.427 17.3364C11.4148 17.3242 11.4026 17.312 11.39 17.2994C11.3935 17.2534 11.3991 17.2096 11.4062 17.1641C11.432 16.9743 11.4312 16.7877 11.427 16.5965C11.4267 16.5782 11.4265 16.5599 11.4262 16.541C11.4186 16.0472 11.3203 15.5593 10.9646 15.1907C10.7635 15.0178 10.5755 14.94 10.3117 14.945C10.2232 14.9517 10.1663 14.9726 10.0952 15.0242C10.0765 15.0368 10.0578 15.0494 10.0385 15.0624C9.97202 15.1207 9.92969 15.1965 9.88432 15.2715C9.8547 15.3202 9.8547 15.3202 9.81308 15.3757C9.70992 15.5525 9.69573 15.7719 9.73735 15.9698C9.78957 16.1321 9.89061 16.2555 10.0387 16.3403C10.1062 16.3682 10.1522 16.3669 10.2246 16.356C10.2845 16.3131 10.3052 16.2792 10.3171 16.208C10.317 16.1469 10.3158 16.0861 10.3132 16.0251C10.3112 15.9302 10.3274 15.8665 10.3726 15.7826C10.4377 15.7392 10.4625 15.7349 10.5391 15.7456C10.6239 15.8087 10.6666 15.884 10.6871 15.9861C10.6957 16.1099 10.6643 16.2006 10.5909 16.2998C10.4899 16.4142 10.3654 16.4931 10.2123 16.5092C10.0467 16.5147 9.94327 16.4809 9.81539 16.3757C9.64203 16.2117 9.57869 16.0043 9.5703 15.7722C9.57546 15.4731 9.67763 15.21 9.88367 14.9915C10.04 14.8482 10.2178 14.7851 10.4281 14.7837C10.503 14.7923 10.5764 14.8052 10.6501 14.8207C10.5598 14.6444 10.3643 14.5691 10.1866 14.505C9.95657 14.432 9.71222 14.4733 9.49609 14.5718C9.20888 14.7325 9.0442 14.9527 8.94766 15.2676C8.80164 15.8488 8.97448 16.4506 9.27458 16.9549C9.37016 17.1095 9.4802 17.2518 9.59573 17.3919C9.60668 17.4059 9.61762 17.4199 9.6289 17.4344C9.926 17.8012 10.4001 17.9431 10.8518 17.9961C11.0122 18.0107 11.1736 18.0154 11.3345 18.0208C11.3542 18.0647 11.3542 18.0647 11.3715 18.1133C11.353 18.1503 11.353 18.1503 11.3137 18.1711C11.1638 18.2689 11.0634 18.4317 11.026 18.6057C10.9904 18.8697 11.0426 19.1201 11.205 19.3341C11.3815 19.5337 11.6497 19.63 11.8898 19.7278C12.4255 19.9466 12.8561 20.2369 13.0954 20.7783C13.133 20.8683 13.1609 20.9598 13.1843 21.0544C13.1902 21.0777 13.1902 21.0777 13.1962 21.1015C13.2862 21.5185 13.2371 21.975 13.0234 22.3486C12.9928 22.3943 12.9607 22.4366 12.9253 22.4787C12.915 22.4911 12.9047 22.5034 12.8942 22.5161C12.8023 22.6169 12.689 22.6742 12.5553 22.7007C12.5261 22.7019 12.4968 22.7023 12.4675 22.7019C12.4527 22.7017 12.4379 22.7015 12.4227 22.7014C12.4059 22.701 12.4059 22.701 12.3889 22.7007C12.3864 22.7123 12.3839 22.724 12.3813 22.736C12.3417 22.8933 12.2671 22.9952 12.1322 23.0857C12.1071 23.0998 12.0817 23.1133 12.0559 23.1262C12.0387 23.135 12.0387 23.135 12.0212 23.1441C11.8686 23.2085 11.6604 23.2081 11.5012 23.1676C11.4611 23.1505 11.4262 23.1319 11.39 23.1077C11.374 23.0974 11.358 23.0871 11.3414 23.0764C11.2874 23.0238 11.2443 22.9658 11.2003 22.9046C11.1653 22.864 11.1435 22.8497 11.094 22.8302C11.0469 22.8266 11.0469 22.8266 10.9962 22.8298C10.9772 22.8304 10.9583 22.8309 10.9388 22.8315C10.8993 22.8329 10.8599 22.8346 10.8205 22.8365C10.6684 22.8402 10.5468 22.8106 10.431 22.7072C10.2372 22.5037 10.1967 22.2214 10.1984 21.9521C10.2057 21.6969 10.2732 21.4778 10.4605 21.2984C10.6012 21.1826 10.7757 21.1457 10.9518 21.1192C11.0759 21.136 11.2113 21.1966 11.2975 21.2903C11.4172 21.4848 11.4172 21.4848 11.4011 21.578C11.3975 21.5883 11.3938 21.5987 11.39 21.6094C11.3251 21.6014 11.2778 21.5903 11.2189 21.5608C11.1168 21.5234 11.0291 21.5323 10.9265 21.5666C10.8468 21.6049 10.8069 21.6564 10.7733 21.7352C10.7297 21.8802 10.7703 22.0132 10.8351 22.1458C10.9669 22.3693 11.1242 22.4679 11.3715 22.5342C11.6263 22.5869 11.8903 22.5432 12.1114 22.4047C12.3484 22.2466 12.4701 21.9635 12.528 21.6941C12.5337 21.6532 12.5358 21.6137 12.5369 21.5724C12.5378 21.5519 12.5387 21.5314 12.5397 21.5104C12.5463 21.256 12.5015 21.024 12.3889 20.7955C12.3811 20.7797 12.3734 20.764 12.3654 20.7478C12.1691 20.388 11.7875 20.2216 11.4373 20.0468C11.1323 19.8936 10.8464 19.7071 10.6686 19.4081C10.6599 19.3938 10.6512 19.3794 10.6422 19.3646C10.5229 19.1487 10.4846 18.8896 10.549 18.6499C10.5766 18.5612 10.6085 18.4739 10.6501 18.3908C10.6309 18.4008 10.6117 18.4108 10.5919 18.4212C10.351 18.5455 10.1329 18.6452 9.85426 18.5815C9.65276 18.514 9.47283 18.3896 9.37492 18.1965C9.36843 18.1813 9.36194 18.166 9.35526 18.1503C9.34694 18.1575 9.33862 18.1646 9.33004 18.172C9.19527 18.2811 9.0433 18.3514 8.86688 18.3421C8.65207 18.3115 8.50877 18.2183 8.37554 18.0485C8.31055 17.9531 8.26199 17.8519 8.21766 17.7457C8.2127 17.734 8.20775 17.7223 8.20265 17.7103C8.17509 17.6402 8.16683 17.5936 8.18991 17.5214C8.22113 17.5075 8.22113 17.5075 8.2639 17.5029C8.27802 17.5143 8.29213 17.5258 8.30668 17.5376C8.37013 17.5877 8.40497 17.5982 8.48587 17.5954C8.61262 17.5331 8.66134 17.4066 8.70784 17.2809C8.72211 17.2378 8.73405 17.1956 8.74484 17.1514C8.73208 17.1523 8.71933 17.1531 8.70618 17.154C8.5383 17.1605 8.42692 17.1245 8.29743 17.0173C8.13383 16.8638 8.01481 16.6615 8.00053 16.4337C7.99455 16.1969 8.03966 15.9998 8.12112 15.7781C8.13712 15.7345 8.15311 15.6909 8.1691 15.6473C8.1773 15.6252 8.18549 15.603 8.19394 15.5801C8.24879 15.4281 8.28965 15.2771 8.32286 15.119C8.38606 14.8225 8.4881 14.5753 8.74946 14.3999C8.97935 14.2625 9.19586 14.203 9.46162 14.2034C9.48367 14.2034 9.50573 14.2034 9.52845 14.2035C9.72466 14.2061 9.90564 14.236 10.0952 14.2843C10.1247 14.2915 10.1542 14.2986 10.1837 14.3057C10.253 14.3225 10.3221 14.3402 10.3911 14.3583C10.3806 14.3426 10.3701 14.3269 10.3593 14.3107C10.0952 13.9115 10.0952 13.9115 10.0952 13.7849C10.083 13.7849 10.0707 13.7849 10.0582 13.7849C10.0055 13.607 9.99959 13.4391 10.0767 13.2669C10.1548 13.1304 10.2631 13.022 10.3715 12.9097C10.5607 12.7134 10.7189 12.5175 10.7362 12.236C10.7426 12.1941 10.7426 12.1941 10.7796 12.1386C10.8585 12.1423 10.8986 12.1586 10.953 12.2137C10.977 12.2406 10.977 12.2406 11.0015 12.2681C11.0667 12.1166 11.1167 11.9609 11.166 11.8037C11.1796 11.7606 11.1933 11.7176 11.207 11.6747C11.3125 11.3749 11.3125 11.3749 11.2975 11.0657C11.2324 10.9721 11.1469 10.9397 11.0385 10.9177C10.8343 10.8923 10.6273 10.9512 10.4616 11.0726C10.3891 11.1378 10.3545 11.2115 10.3368 11.3073C10.3355 11.3884 10.345 11.4251 10.3911 11.4912C10.4458 11.5346 10.501 11.5523 10.5669 11.5721C10.6635 11.603 10.7192 11.6501 10.7669 11.7409C10.7813 11.7932 10.7888 11.8257 10.7796 11.8796C10.718 11.9738 10.6477 12.0319 10.5391 12.0646C10.4429 12.0781 10.3518 12.0801 10.264 12.0345C10.1356 11.9369 10.0772 11.8324 10.0397 11.6761C10.014 11.4826 10.0542 11.3204 10.1695 11.1626C10.2561 11.0612 10.3486 10.9823 10.4651 10.9177C10.4801 10.9094 10.495 10.901 10.5104 10.8924C10.7477 10.7726 10.9709 10.7447 11.2235 10.8252C11.2357 10.8313 11.2479 10.8375 11.2605 10.8437C11.2544 10.8315 11.2483 10.8193 11.242 10.8067C11.2139 10.4674 11.3044 10.0885 11.5138 9.81734C11.6872 9.62866 11.9586 9.46715 12.2097 9.59978Z" fill="#DFDFDF"/>
<path d="M23.5093 9.61612C23.7788 9.76336 23.8927 9.97783 23.982 10.2625C24.0219 10.3986 24.0483 10.5248 24.0458 10.667C24.0457 10.6866 24.0457 10.6866 24.0457 10.7066C24.0449 10.8017 24.0449 10.8017 24.0238 10.8439C24.0343 10.8401 24.0448 10.8363 24.0557 10.8324C24.0699 10.8274 24.0842 10.8224 24.0989 10.8173C24.1129 10.8124 24.1268 10.8074 24.1412 10.8024C24.3901 10.7316 24.6284 10.814 24.8468 10.9344C25.0247 11.0383 25.1607 11.1899 25.2318 11.3847C25.2749 11.5562 25.2515 11.7236 25.1707 11.8798C25.1133 11.9677 25.0504 12.0321 24.9487 12.0647C24.8163 12.081 24.7066 12.0703 24.5972 11.9908C24.5528 11.9549 24.5353 11.931 24.5047 11.8798C24.498 11.8073 24.517 11.7479 24.5429 11.6809C24.6116 11.6011 24.709 11.571 24.8065 11.5376C24.887 11.5054 24.887 11.5054 24.9302 11.4358C24.9589 11.3291 24.9448 11.2534 24.8932 11.1584C24.7674 11.0039 24.5922 10.9345 24.3982 10.912C24.2715 10.9065 24.1541 10.9307 24.0423 10.9919C23.9762 11.0633 23.9661 11.1374 23.9683 11.2324C23.9978 11.429 24.0602 11.6183 24.1208 11.8071C24.1361 11.8549 24.1512 11.9027 24.1663 11.9505C24.1761 11.9811 24.1858 12.0117 24.1956 12.0423C24.2 12.0565 24.2045 12.0707 24.2092 12.0853C24.2296 12.1488 24.2502 12.2098 24.2828 12.2682C24.2924 12.2587 24.302 12.2491 24.3119 12.2392C24.3248 12.2271 24.3377 12.2149 24.351 12.2023C24.3636 12.1901 24.3763 12.1779 24.3893 12.1653C24.4307 12.1387 24.4307 12.1387 24.4808 12.1417C24.5232 12.1572 24.5232 12.1572 24.5417 12.1942C24.5467 12.2312 24.5512 12.2682 24.5556 12.3052C24.5997 12.5954 24.7981 12.7878 24.9957 12.9901C25.1503 13.151 25.263 13.3178 25.2689 13.5469C25.2664 13.6306 25.2499 13.7049 25.2261 13.785C25.2139 13.785 25.2017 13.785 25.1891 13.785C25.1873 13.7978 25.1854 13.8105 25.1834 13.8237C25.1682 13.8877 25.1434 13.9401 25.114 13.9989C25.1039 14.0195 25.0937 14.0402 25.0833 14.0614C25.028 14.1653 24.9594 14.2614 24.8932 14.3584C24.9088 14.3546 24.9243 14.3508 24.9404 14.3469C24.9987 14.3326 25.057 14.3183 25.1153 14.3041C25.1404 14.298 25.1655 14.2919 25.1907 14.2857C25.227 14.2768 25.2633 14.2679 25.2996 14.2591C25.3214 14.2538 25.3432 14.2484 25.3657 14.243C25.7803 14.1523 26.197 14.1849 26.558 14.4139C26.841 14.6139 26.9179 14.9183 26.9897 15.2381C27.0357 15.4342 27.1023 15.6212 27.1724 15.8097C27.2767 16.0908 27.3433 16.3864 27.2287 16.6767C27.1333 16.8794 27.0129 17.0489 26.7984 17.1331C26.7402 17.1525 26.6988 17.1535 26.6377 17.1527C26.6194 17.1526 26.601 17.1524 26.582 17.1522C26.568 17.152 26.5539 17.1518 26.5395 17.1516C26.6134 17.4112 26.6134 17.4112 26.7984 17.5955C26.9003 17.5955 26.9438 17.5652 27.0204 17.503C27.0632 17.5077 27.0632 17.5077 27.0944 17.5215C27.1268 17.6151 27.0947 17.6793 27.0574 17.7655C27.0515 17.7795 27.0455 17.7934 27.0394 17.8079C26.9535 18.0033 26.8325 18.1921 26.634 18.287C26.4527 18.3535 26.3053 18.3563 26.1257 18.2853C26.0526 18.2495 25.9906 18.2034 25.9291 18.1505C25.923 18.1621 25.9169 18.1737 25.9106 18.1857C25.7944 18.3948 25.6404 18.5142 25.4128 18.5873C25.1155 18.6423 24.8881 18.5235 24.6342 18.3909C24.6405 18.4044 24.6467 18.4178 24.6532 18.4317C24.7705 18.6962 24.7974 18.9494 24.7059 19.2279C24.6602 19.3449 24.6026 19.4408 24.5232 19.5378C24.5109 19.5532 24.4985 19.5685 24.4857 19.5844C24.3021 19.8005 24.0734 19.9282 23.8249 20.0546C23.662 20.1379 23.5008 20.2224 23.345 20.3188C23.3331 20.3261 23.3212 20.3334 23.3089 20.341C23.1296 20.4541 22.9893 20.605 22.8954 20.7956C22.8871 20.8125 22.8788 20.8294 22.8702 20.8468C22.7146 21.1902 22.7004 21.5691 22.8215 21.924C22.9114 22.1497 23.0486 22.3433 23.2654 22.4604C23.5418 22.5749 23.8151 22.5852 24.0967 22.4764C24.1866 22.4339 24.2551 22.3893 24.3198 22.3124C24.3302 22.3006 24.3406 22.2889 24.3514 22.2767C24.4625 22.145 24.54 21.9917 24.5302 21.8154C24.5119 21.7124 24.4739 21.6472 24.3914 21.5829C24.3095 21.5439 24.2252 21.5289 24.1348 21.5355C24.0892 21.5517 24.0479 21.5714 24.005 21.5936C23.9566 21.6146 23.9245 21.6099 23.8758 21.591C23.8973 21.4528 23.9338 21.3351 24.0451 21.244C24.1849 21.1479 24.2898 21.1097 24.4612 21.1409C24.6742 21.1958 24.8398 21.2748 24.9672 21.4615C25.0539 21.6293 25.0852 21.806 25.0839 21.9933C25.0838 22.0176 25.0838 22.0176 25.0837 22.0422C25.0794 22.2817 25.0237 22.5285 24.8534 22.7074C24.7376 22.8107 24.6176 22.8399 24.4656 22.8349C24.4369 22.8332 24.4369 22.8332 24.4076 22.8315C24.2623 22.821 24.2623 22.821 24.1257 22.8615C24.0797 22.904 24.0438 22.9458 24.0076 22.9968C23.9269 23.102 23.8531 23.1401 23.7278 23.1818C23.4912 23.1965 23.2729 23.1913 23.0804 23.0338C22.9742 22.9352 22.9259 22.8422 22.8954 22.7009C22.8605 22.7032 22.8605 22.7032 22.8249 22.7055C22.6641 22.7047 22.5264 22.645 22.4115 22.5336C22.4003 22.5217 22.3891 22.5097 22.3775 22.4974C22.3607 22.4798 22.3607 22.4798 22.3436 22.4618C22.1027 22.1825 22.0273 21.7396 22.0508 21.383C22.086 20.9523 22.2376 20.5808 22.5255 20.2592C22.5408 20.2416 22.5408 20.2416 22.5563 20.2237C22.8007 19.9601 23.1629 19.8234 23.4871 19.689C23.6511 19.6207 23.8047 19.5495 23.9498 19.4453C23.9683 19.4323 23.9683 19.4323 23.9871 19.419C24.1473 19.295 24.2249 19.1027 24.2643 18.9089C24.2876 18.6965 24.257 18.4888 24.1255 18.3158C24.1046 18.291 24.083 18.2667 24.0608 18.2429C24.0484 18.2296 24.036 18.2163 24.0232 18.2026C23.9875 18.165 23.9875 18.165 23.9313 18.1505C23.9163 18.1158 23.9163 18.1158 23.9128 18.0765C23.925 18.0582 23.9372 18.0398 23.9498 18.021C23.9855 18.0139 23.9855 18.0139 24.0294 18.0135C24.0458 18.0131 24.0621 18.0127 24.0789 18.0124C24.1054 18.012 24.1054 18.012 24.1325 18.0117C24.6671 17.9958 25.202 17.8907 25.5961 17.503C25.6554 17.4379 25.7094 17.3698 25.7626 17.2996C25.776 17.2827 25.7895 17.2658 25.8033 17.2484C26.19 16.7536 26.4478 16.118 26.3788 15.4833C26.3471 15.2639 26.2803 15.0589 26.151 14.8764C26.1433 14.8651 26.1357 14.8538 26.1278 14.8422C25.9743 14.6406 25.7177 14.5178 25.4734 14.4752C25.2094 14.4404 24.9633 14.5356 24.744 14.678C24.6972 14.7197 24.6673 14.7679 24.6342 14.8209C24.6534 14.8178 24.6727 14.8147 24.6925 14.8115C24.9413 14.7739 25.1176 14.7954 25.3371 14.9319C25.5364 15.0877 25.6584 15.3374 25.7012 15.5838C25.7309 15.8424 25.7034 16.0901 25.5406 16.3007C25.4191 16.4328 25.3068 16.5039 25.1267 16.5123C24.9645 16.5069 24.8377 16.4461 24.721 16.3348C24.6261 16.2313 24.5917 16.1275 24.5972 15.9862C24.6173 15.8842 24.6606 15.8087 24.7452 15.7458C24.8007 15.7342 24.8007 15.7342 24.8562 15.7458C24.9233 15.7935 24.9453 15.8236 24.9637 15.9042C24.9685 15.969 24.9662 16.0334 24.9649 16.0984C24.9639 16.1938 24.975 16.2551 25.0227 16.3377C25.0836 16.3682 25.142 16.3679 25.2076 16.3562C25.3567 16.2858 25.4649 16.1741 25.529 16.0232C25.5975 15.8131 25.5715 15.5949 25.4851 15.3943C25.4527 15.3347 25.4154 15.2816 25.3741 15.2278C25.364 15.2133 25.3539 15.1988 25.3434 15.1839C25.2615 15.0704 25.175 14.995 25.0412 14.9504C24.7863 14.9313 24.5985 14.981 24.3938 15.1353C24.3828 15.1431 24.3718 15.1508 24.3605 15.1587C24.0857 15.3686 23.9423 15.7653 23.8851 16.0946C23.8801 16.1449 23.8777 16.1947 23.8758 16.2452C23.8742 16.2708 23.8725 16.2965 23.8708 16.3221C23.852 16.6161 23.8386 16.9122 23.8844 17.2043C23.8891 17.2359 23.8919 17.2677 23.8943 17.2996C23.8573 17.3366 23.8573 17.3366 23.7926 17.34C23.7278 17.3366 23.7278 17.3366 23.6908 17.3181C23.6766 17.2794 23.6642 17.24 23.6526 17.2004C23.6452 17.1755 23.6377 17.1506 23.6303 17.1257C23.6264 17.1125 23.6225 17.0994 23.6185 17.0859C23.4937 16.6655 23.3569 16.2684 23.0434 15.9492C23.033 15.9386 23.0226 15.9279 23.0118 15.9169C22.7969 15.7156 22.4886 15.6484 22.2028 15.6502C22.0753 15.6562 21.949 15.6735 21.8226 15.6903C21.7671 15.6047 21.7671 15.6047 21.7671 15.5423C22.1922 15.4495 22.6179 15.4666 23.0006 15.6937C23.1843 15.8176 23.3231 15.9792 23.4319 16.1712C23.4319 16.1834 23.4319 16.1956 23.4319 16.2082C23.4502 16.2143 23.4685 16.2204 23.4874 16.2267C23.5087 16.2636 23.5087 16.2636 23.5286 16.3115C23.5358 16.3288 23.5431 16.346 23.5505 16.3637C23.5616 16.3909 23.5616 16.3909 23.5729 16.4186C23.5805 16.4366 23.588 16.4546 23.5958 16.4731C23.623 16.5385 23.6499 16.6034 23.6723 16.6707C23.809 16.0313 23.809 16.0313 23.633 15.4359C23.5957 15.384 23.5573 15.3338 23.5171 15.2841C23.2372 14.9378 23.124 14.563 23.1544 14.118C23.193 13.7871 23.3466 13.5345 23.5799 13.3041C23.586 13.298 23.5921 13.2919 23.5984 13.2856C23.6538 13.2833 23.6538 13.2833 23.7093 13.2856C23.7154 13.2917 23.7215 13.2978 23.7278 13.3041C23.7236 13.3719 23.717 13.4394 23.7104 13.5071C23.7013 13.7309 23.7509 13.9351 23.8308 14.1423C23.8546 14.2041 23.8772 14.2664 23.8997 14.3287C23.9042 14.3409 23.9086 14.3531 23.9132 14.3656C24.0165 14.6524 24.0622 14.9237 24.0608 15.2278C24.0684 15.2198 24.0761 15.2117 24.0839 15.2034C24.0946 15.1924 24.1053 15.1814 24.1163 15.17C24.1317 15.1539 24.1317 15.1539 24.1475 15.1375C24.1903 15.0984 24.1903 15.0984 24.223 15.0767C24.3434 14.9963 24.4064 14.8932 24.4793 14.77C24.4909 14.7509 24.5026 14.7318 24.5146 14.7121C24.5376 14.6742 24.5604 14.6362 24.5831 14.5981C24.6044 14.5625 24.6259 14.5269 24.6477 14.4916C24.6576 14.4756 24.6674 14.4596 24.6776 14.4431C24.6906 14.4221 24.6906 14.4221 24.7038 14.4008C24.8202 14.1854 24.8137 13.8831 24.7545 13.6509C24.6611 13.37 24.4904 13.1444 24.3048 12.918C24.2945 12.9054 24.2841 12.8928 24.2735 12.8798C24.2632 12.8672 24.2529 12.8547 24.2423 12.8417C24.1503 12.7287 24.0671 12.6118 23.9868 12.4902C23.9698 12.4653 23.9698 12.4653 23.9524 12.4398C23.7348 12.113 23.5826 11.7231 23.6527 11.326C23.6818 11.2069 23.7322 11.1021 23.7861 10.9928C23.8339 10.8949 23.8675 10.8055 23.8758 10.6959C23.8771 10.6803 23.8783 10.6647 23.8796 10.6487C23.8902 10.3798 23.8051 10.0968 23.6315 9.88853C23.5238 9.78708 23.3799 9.70034 23.2284 9.69705C23.1823 9.71185 23.1425 9.73076 23.0989 9.75254C23.0938 9.77904 23.0893 9.80566 23.085 9.83231C23.0825 9.84712 23.0799 9.86193 23.0772 9.87719C23.0762 9.92075 23.0762 9.92075 23.1085 9.94937C23.1787 9.98781 23.2538 10.0083 23.3304 10.0303C23.4064 10.0538 23.4582 10.0761 23.5059 10.141C23.515 10.1937 23.5049 10.2388 23.4874 10.289C23.4378 10.3472 23.4093 10.3611 23.3336 10.3711C23.1703 10.3517 23.0607 10.2828 22.9509 10.1595C22.8883 10.065 22.888 9.96773 22.9021 9.85768C22.9302 9.74007 22.9978 9.65176 23.0989 9.58606C23.2398 9.51973 23.3726 9.55139 23.5093 9.61612Z" fill="#DFDFDF"/>
<path d="M17.7347 17.0406C17.9164 17.1906 17.9738 17.4523 18.0394 17.6677C18.1017 17.8707 18.1703 18.0821 18.3656 18.1911C18.5484 18.2687 18.7414 18.22 18.9185 18.1504C19.0345 18.099 19.1466 18.0397 19.2561 17.9759C19.307 17.947 19.307 17.947 19.344 17.947C19.3323 18.0421 19.3025 18.1223 19.2677 18.2106C18.9802 18.9669 18.8552 19.8571 19.159 20.6291C19.1793 20.6679 19.2 20.7059 19.2224 20.7434C19.233 20.7771 19.233 20.7771 19.2165 20.8184C19.2097 20.8292 19.203 20.84 19.196 20.8511C19.1405 20.8326 19.1405 20.8326 19.1204 20.7993C19.1143 20.7848 19.1082 20.7704 19.1019 20.7554C19.0951 20.7391 19.0882 20.7228 19.0811 20.706C19.074 20.6883 19.0669 20.6705 19.0596 20.6523C19.0522 20.6339 19.0449 20.6156 19.0373 20.5967C18.7589 19.8814 18.7776 19.0322 18.974 18.2984C18.9591 18.3036 18.9441 18.3087 18.9287 18.314C18.8991 18.324 18.8991 18.324 18.8688 18.3343C18.8493 18.3409 18.8298 18.3476 18.8097 18.3544C18.6251 18.4121 18.4634 18.4072 18.2896 18.3169C18.087 18.1779 17.9716 17.9741 17.9012 17.7435C17.9475 18.2959 17.9475 18.2959 18.1625 18.7944C18.225 18.842 18.2907 18.8802 18.3598 18.9176C18.4048 18.9487 18.4197 18.9687 18.4376 19.0198C18.4399 19.1323 18.3908 19.2006 18.3295 19.2922C18.2834 19.3623 18.2407 19.4341 18.1983 19.5066C18.1905 19.5199 18.1827 19.5333 18.1746 19.547C18.159 19.5739 18.1433 19.6008 18.1276 19.6277C18.1054 19.666 18.083 19.7042 18.0606 19.7424C18.0471 19.7655 18.0337 19.7886 18.0203 19.8118C18.0025 19.8423 18.0025 19.8423 17.9843 19.8734C17.9614 19.9172 17.9467 19.952 17.9382 20.0002C17.9586 20.0029 17.9586 20.0029 17.9795 20.0056C18.0378 20.0205 18.0649 20.041 18.1093 20.0811C18.122 20.0923 18.1346 20.1036 18.1477 20.1151C18.202 20.1732 18.2059 20.2395 18.2044 20.3169C18.1688 20.579 18.0071 20.8269 17.8827 21.0546C18.1235 21.028 18.2962 20.9298 18.4931 20.7956C18.5486 20.7586 18.5486 20.7586 18.6226 20.7586C18.671 20.8555 18.6347 20.9675 18.6029 21.065C18.5988 21.0777 18.5947 21.0905 18.5905 21.1036C18.526 21.2954 18.4521 21.5004 18.2711 21.6095C18.1693 21.66 18.069 21.7012 17.9567 21.7205C17.9605 21.7306 17.9643 21.7408 17.9682 21.7512C18.0503 21.9929 18.0359 22.2158 17.9752 22.4604C17.9709 22.4794 17.9667 22.4984 17.9623 22.5181C17.9287 22.6635 17.8795 22.8017 17.8272 22.9413C17.8446 22.9522 17.862 22.963 17.8799 22.9742C17.9564 23.0282 17.9856 23.0746 18.0122 23.1633C18.0337 23.2979 18.0094 23.3942 17.9417 23.5112C17.9098 23.5698 17.8956 23.6039 17.9124 23.6698C17.9636 23.7929 18.0252 23.9061 18.0942 24.02C18.1068 24.0408 18.1068 24.0408 18.1197 24.0621C18.2268 24.2412 18.2268 24.2412 18.396 24.3518C18.4196 24.3601 18.4196 24.3601 18.4437 24.3687C18.509 24.3891 18.5744 24.4087 18.6405 24.4265C18.6781 24.4396 18.6781 24.4396 18.7151 24.4766C18.7123 24.5334 18.7063 24.5602 18.6641 24.5992C18.5262 24.6793 18.386 24.726 18.2341 24.7726C18.1971 24.7848 18.1601 24.7971 18.1231 24.8096C18.1356 24.8218 18.1356 24.8218 18.1482 24.8342C18.2948 24.9879 18.3585 25.1598 18.3659 25.3714C18.3578 25.6062 18.2807 25.8044 18.1786 26.0119C18.1701 26.0296 18.1615 26.0472 18.1527 26.0654C17.876 26.6012 17.876 26.6012 17.6739 26.6982C17.5916 26.6952 17.5491 26.6429 17.4942 26.5854C17.4552 26.5404 17.4195 26.4936 17.3844 26.4455C17.3701 26.426 17.3701 26.426 17.3555 26.4062C17.0964 26.0503 16.8778 25.6535 16.9474 25.2009C16.9847 25.0537 17.0713 24.915 17.1798 24.8096C17.1449 24.7992 17.1449 24.7992 17.1094 24.7886C16.665 24.6535 16.665 24.6535 16.5878 24.5506C16.5869 24.5198 16.5868 24.4889 16.5878 24.4581C16.5986 24.4547 16.6093 24.4513 16.6203 24.4477C16.6693 24.4318 16.7182 24.4155 16.767 24.3992C16.7839 24.3938 16.8008 24.3884 16.8182 24.3828C17.1052 24.2857 17.2267 23.9515 17.3647 23.6997C17.3768 23.6795 17.3768 23.6795 17.3892 23.6588C17.4058 23.615 17.4001 23.5951 17.3832 23.5518C17.3687 23.5258 17.3533 23.5003 17.337 23.4754C17.2676 23.3685 17.2628 23.291 17.2723 23.1633C17.2976 23.0794 17.3353 23.044 17.4041 22.9937C17.4175 22.9839 17.4309 22.974 17.4447 22.9639C17.4549 22.9564 17.4652 22.949 17.4757 22.9413C17.4703 22.9256 17.4649 22.9098 17.4593 22.8936C17.439 22.8343 17.4188 22.7749 17.3987 22.7154C17.3901 22.6899 17.3813 22.6643 17.3726 22.6388C17.2646 22.3246 17.207 22.0432 17.3278 21.7205C17.315 21.7176 17.3022 21.7146 17.2891 21.7116C17.0968 21.6639 16.9389 21.5958 16.8283 21.4245C16.7282 21.2363 16.6249 21.0125 16.6433 20.7956C16.6494 20.7834 16.6555 20.7712 16.6618 20.7586C16.7514 20.7675 16.7991 20.7904 16.8688 20.8465C17.0322 20.9702 17.2126 21.0546 17.4202 21.0546C17.4141 21.0444 17.408 21.0341 17.4016 21.0236C17.0526 20.439 17.0526 20.439 17.0873 20.2037C17.1272 20.1062 17.2074 20.0384 17.3036 19.9975C17.3177 19.9923 17.3318 19.9871 17.3462 19.9817C17.272 19.8288 17.1919 19.6808 17.1058 19.5343C17.0949 19.5155 17.0839 19.4967 17.0727 19.4774C17.0141 19.3773 16.9536 19.2798 16.8868 19.1849C16.8539 19.1304 16.8468 19.0828 16.8468 19.0198C16.8777 18.9191 16.9792 18.8886 17.0657 18.8421C17.1841 18.7527 17.2152 18.6099 17.2538 18.4718C17.2608 18.447 17.2608 18.447 17.268 18.4216C17.3241 18.2165 17.3832 17.9941 17.3832 17.7805C17.3701 17.8093 17.3701 17.8093 17.3567 17.8387C17.2444 18.0785 17.1142 18.2801 16.8572 18.3782C16.6761 18.4131 16.4765 18.3815 16.3104 18.2984C16.313 18.3096 16.3156 18.3207 16.3183 18.3322C16.5148 19.1802 16.4996 20.0295 16.1439 20.8326C16.1195 20.8326 16.0951 20.8326 16.0699 20.8326C16.0699 20.7678 16.0724 20.7437 16.0956 20.6875C16.1038 20.6669 16.1038 20.6669 16.1122 20.6459C16.1181 20.6312 16.124 20.6165 16.13 20.6014C16.442 19.79 16.2961 18.8359 15.9527 18.0569C15.9404 18.021 15.9404 18.021 15.9404 17.947C16.0265 17.9722 16.099 18.0094 16.1751 18.0556C16.3793 18.176 16.6121 18.2698 16.8527 18.2146C17.0125 18.1588 17.0858 18.0567 17.1613 17.91C17.1993 17.8156 17.2319 17.7197 17.2642 17.6233C17.4172 17.1686 17.4172 17.1686 17.5682 17.0406C17.6366 17.0178 17.6658 17.019 17.7347 17.0406ZM17.4017 17.688C17.4202 17.725 17.4202 17.725 17.4202 17.725L17.4017 17.688Z" fill="#DFDFDF"/>
<path d="M15.8109 20.7213C15.8814 20.7739 15.9481 20.8299 16.0144 20.8878C16.0302 20.9014 16.0461 20.915 16.0624 20.929C16.4695 21.2851 16.6866 21.722 16.7543 22.2566C16.7577 22.3421 16.7577 22.4275 16.7577 22.513C16.7577 22.5532 16.7581 22.5934 16.7584 22.6336C16.7604 23.1104 16.6429 23.5476 16.3022 23.8928C16.2865 23.9083 16.2709 23.9239 16.2548 23.9399C16.2374 23.9586 16.2374 23.9586 16.2196 23.9778C15.9338 24.2817 15.4853 24.462 15.0744 24.481C14.6051 24.4952 14.2068 24.3515 13.8613 24.0269C13.7802 23.9427 13.7125 23.8512 13.6467 23.7549C13.6364 23.7406 13.6262 23.7262 13.6156 23.7114C13.5516 23.615 13.5125 23.5136 13.4756 23.4046C13.471 23.3912 13.4664 23.3777 13.4617 23.3639C13.3396 22.9837 13.3369 22.5572 13.5205 22.1988C13.6197 22.0166 13.7679 21.9132 13.9644 21.8489C14.1808 21.7935 14.3856 21.7862 14.59 21.8867C14.7145 21.9758 14.7686 22.0891 14.7935 22.2381C14.8079 22.4448 14.7871 22.6741 14.664 22.8485C14.5969 22.9188 14.5206 22.988 14.4215 23.0021C14.3071 23.0027 14.2169 22.9892 14.1291 22.9083C14.0157 22.786 13.9889 22.6828 13.9924 22.5173C14.0084 22.3573 14.0846 22.2346 14.2016 22.1271C14.2982 22.0569 14.4009 22.0626 14.516 22.0716C14.5409 22.0771 14.5656 22.083 14.59 22.0901C14.4762 21.9846 14.3706 21.9521 14.2152 21.9561C14.0321 21.9726 13.8581 22.0284 13.7248 22.1594C13.5363 22.3901 13.4924 22.6903 13.5172 22.978C13.5567 23.2674 13.6818 23.5526 13.9148 23.7357C14.0388 23.821 14.1671 23.867 14.3126 23.9029C14.3334 23.9082 14.3334 23.9082 14.3547 23.9137C14.5749 23.9475 14.812 23.9502 14.9992 23.8202C15.0999 23.7397 15.1674 23.6399 15.2375 23.5329C15.3698 23.3314 15.4906 23.1515 15.7369 23.089C15.8159 23.0762 15.8953 23.0655 15.9749 23.0576C16.0846 23.0446 16.1407 23.0213 16.2178 22.941C16.2437 22.892 16.2437 22.892 16.2548 22.8485C16.2346 22.855 16.2144 22.8615 16.1936 22.8682C16.0304 22.9082 15.8636 22.8739 15.7184 22.793C15.5932 22.7077 15.4625 22.6046 15.4039 22.4601C15.4076 22.4137 15.4147 22.3937 15.448 22.3611C15.4586 22.3533 15.4693 22.3456 15.4802 22.3375C15.6572 22.1924 15.804 21.9307 15.8294 21.7017C15.8587 21.3829 15.759 21.1179 15.5584 20.8684C15.4415 20.7401 15.2946 20.6715 15.1214 20.6634C14.9384 20.6721 14.7813 20.7617 14.6571 20.8936C14.5853 20.9843 14.546 21.0881 14.5519 21.2046C14.5677 21.2899 14.615 21.3526 14.6825 21.4057C14.784 21.4598 14.8678 21.4708 14.982 21.4693C15.0053 21.469 15.0053 21.469 15.029 21.4688C15.2373 21.4629 15.3891 21.3942 15.5571 21.2762C15.6184 21.2337 15.6412 21.2207 15.7184 21.2207C15.7276 21.2757 15.7276 21.2757 15.7369 21.3317C15.4543 21.5482 15.1935 21.6569 14.8305 21.6277C14.6878 21.6042 14.5589 21.5237 14.4713 21.4081C14.4074 21.3008 14.391 21.1956 14.4051 21.0728C14.4602 20.887 14.591 20.7259 14.7554 20.6254C15.0912 20.4466 15.5036 20.52 15.8109 20.7213Z" fill="#DFDFDF"/>
<path d="M20.0908 20.5308C20.114 20.5309 20.114 20.5309 20.1377 20.5311C20.3471 20.5352 20.525 20.5972 20.6807 20.7421C20.8008 20.8711 20.8875 21.0121 20.8842 21.1926C20.8715 21.3127 20.8266 21.4123 20.7394 21.4961C20.5817 21.6192 20.409 21.6486 20.2133 21.6279C19.9636 21.5913 19.7343 21.5081 19.5474 21.332C19.5596 21.2892 19.5718 21.2465 19.5844 21.2025C19.65 21.2331 19.7087 21.2718 19.7694 21.3112C19.9707 21.4369 20.193 21.5065 20.4328 21.4724C20.5394 21.4452 20.6229 21.3981 20.6943 21.3135C20.7425 21.223 20.74 21.1331 20.7128 21.036C20.6347 20.8773 20.5132 20.7647 20.35 20.6985C20.2013 20.6515 20.0523 20.6534 19.9122 20.7244C19.7101 20.849 19.604 21.0281 19.5104 21.2395C19.5037 21.2537 19.497 21.268 19.49 21.2827C19.4137 21.4689 19.4392 21.6987 19.5043 21.8838C19.5935 22.0961 19.6997 22.2629 19.8804 22.4048C19.8629 22.5394 19.7688 22.6357 19.6682 22.7211C19.5138 22.8334 19.3698 22.8869 19.1775 22.8858C19.1254 22.8776 19.0798 22.8649 19.0295 22.8488C19.0666 22.9347 19.0973 22.9845 19.1775 23.0337C19.2682 23.0558 19.361 23.0654 19.4535 23.0769C19.6822 23.1094 19.8149 23.2029 19.9544 23.3852C19.9905 23.4386 20.0243 23.4933 20.0584 23.5481C20.1637 23.7151 20.2761 23.8566 20.4717 23.9138C20.759 23.9738 21.0957 23.9113 21.3417 23.7552C21.5781 23.5869 21.6999 23.3218 21.7577 23.0438C21.8003 22.7472 21.7648 22.4304 21.5822 22.1829C21.4498 22.0445 21.2647 21.9732 21.0754 21.9571C20.958 21.9548 20.851 21.9638 20.7571 22.0407C20.7351 22.0624 20.7145 22.0855 20.6943 22.1089C20.7044 22.1029 20.7146 22.0969 20.725 22.0907C20.8199 22.0493 20.9333 22.0606 21.0307 22.0892C21.1603 22.1843 21.2597 22.2989 21.2862 22.4603C21.3032 22.6212 21.2863 22.752 21.1865 22.8824C21.107 22.9691 21.0258 22.997 20.9093 23.0048C20.7961 23.0016 20.7208 22.9512 20.6438 22.871C20.4968 22.6899 20.4767 22.4643 20.4908 22.2383C20.512 22.0998 20.5674 21.9955 20.6758 21.9054C20.8798 21.7867 21.0954 21.7916 21.3199 21.8492C21.5336 21.9191 21.6789 22.0332 21.781 22.2326C21.951 22.5885 21.9357 22.9941 21.8226 23.3667C21.8132 23.3985 21.8132 23.3985 21.8036 23.4309C21.672 23.8168 21.3672 24.1375 21.011 24.3251C20.5966 24.5232 20.1451 24.5232 19.7139 24.3806C19.4847 24.2938 19.2846 24.1805 19.1035 24.0141C19.0944 24.0059 19.0853 23.9977 19.076 23.9893C18.7516 23.6937 18.5615 23.3084 18.53 22.8673C18.5072 22.2273 18.5072 22.2273 18.5855 21.9424C18.5892 21.9289 18.5929 21.9155 18.5967 21.9017C18.6726 21.6321 18.7906 21.3978 18.974 21.184C18.9867 21.169 18.9995 21.154 19.0126 21.1386C19.2923 20.8186 19.6468 20.5277 20.0908 20.5308Z" fill="#DFDFDF"/>
<path d="M22.1081 7.71759C22.1366 7.74187 22.1648 7.76652 22.1925 7.79158C22.2056 7.80315 22.2187 7.81471 22.2321 7.82663C22.3783 7.96362 22.5047 8.15343 22.5625 8.34651C22.5555 8.39868 22.5555 8.39868 22.544 8.439C22.4921 8.46024 22.4725 8.45846 22.4193 8.43763C22.4001 8.42778 22.381 8.41793 22.3613 8.40779C21.7605 8.11847 21.0268 8.20729 20.4134 8.41523C19.9849 8.56748 19.5786 8.78382 19.2699 9.12341C19.2248 9.10838 19.2248 9.10838 19.1774 9.08642C19.145 8.98903 19.1977 8.89426 19.2294 8.7997C19.237 8.77727 19.2445 8.75483 19.2523 8.73171C19.3452 8.46364 19.4625 8.20426 19.6584 7.99506C19.6747 7.97708 19.691 7.9591 19.7078 7.94058C20.3149 7.29004 21.3974 7.16529 22.1081 7.71759Z" fill="#DFDFDF"/>
<path d="M14.161 7.36354C14.6258 7.35019 15.1129 7.51719 15.4594 7.82894C15.4682 7.83688 15.4771 7.84481 15.4862 7.85299C15.7826 8.12284 15.9479 8.46614 16.0721 8.84284C16.081 8.86918 16.081 8.86918 16.09 8.89606C16.0952 8.91257 16.1004 8.92908 16.1058 8.94609C16.1105 8.96075 16.1151 8.97541 16.12 8.99052C16.1266 9.04121 16.1163 9.06315 16.0883 9.10527C16.0545 9.12464 16.0545 9.12464 16.0143 9.12377C15.973 9.08822 15.973 9.08822 15.9264 9.03591C15.5163 8.60127 14.8862 8.37947 14.3125 8.27288C14.293 8.26924 14.293 8.26924 14.2731 8.26552C13.8183 8.18493 13.2905 8.20692 12.8755 8.4278C12.8109 8.45948 12.8035 8.46058 12.7402 8.43936C12.7165 8.37277 12.722 8.34628 12.7477 8.27895C12.7603 8.25364 12.7733 8.2285 12.7865 8.20351C12.7967 8.18377 12.7967 8.18377 12.8071 8.16363C12.8613 8.06149 12.9214 7.97033 12.9992 7.88443C13.015 7.86612 13.015 7.86612 13.0311 7.84744C13.3151 7.53862 13.7519 7.38687 14.161 7.36354Z" fill="#DFDFDF"/>
<path d="M15.3892 9.39734C15.5738 9.55292 15.7182 9.71694 15.8481 9.91874C15.8313 9.96224 15.8211 9.98719 15.7796 10.0103C15.7155 10.0117 15.6676 9.98142 15.6123 9.95227C15.0803 9.68777 14.4013 9.74253 13.8502 9.92264C13.4015 10.0783 13.0022 10.3415 12.7775 10.7696C12.7575 10.8149 12.7384 10.8598 12.7217 10.9063C12.7035 10.9361 12.7035 10.9361 12.6668 10.952C12.6545 10.9529 12.6422 10.9537 12.6295 10.9546C12.5638 10.8888 12.5711 10.8155 12.5706 10.7257C12.5757 10.2733 12.7302 9.84681 13.0365 9.51179C13.0505 9.49603 13.0646 9.48027 13.079 9.46403C13.6916 8.81136 14.7149 8.87808 15.3892 9.39734Z" fill="#DFDFDF"/>
<path d="M22.0244 9.29907C22.4041 9.60703 22.6471 10.0349 22.7055 10.5209C22.7304 10.8318 22.7304 10.8318 22.6737 10.9364C22.6554 10.9425 22.637 10.9486 22.6182 10.9549C22.5527 10.9113 22.5482 10.8896 22.5222 10.8173C22.467 10.6784 22.3881 10.5566 22.2807 10.452C22.2482 10.4185 22.2482 10.4185 22.2482 10.3815C22.2316 10.3738 22.2316 10.3738 22.2146 10.366C22.1742 10.3445 22.1742 10.3445 22.1199 10.2959C21.6178 9.85778 20.909 9.75671 20.269 9.78955C20.0399 9.80857 19.8128 9.87126 19.6112 9.98261C19.5476 10.0115 19.5476 10.0115 19.4921 9.99764C19.4738 9.9862 19.4738 9.9862 19.4551 9.97452C19.4551 9.81054 19.6237 9.64991 19.7349 9.53636C20.3352 8.9456 21.3294 8.79207 22.0244 9.29907Z" fill="#DFDFDF"/>
<path d="M21.0229 6.51762C21.1465 6.62131 21.1465 6.62131 21.1743 6.68431C21.1755 6.719 21.1755 6.719 21.1385 6.77449C21.1259 6.77048 21.1132 6.76648 21.1002 6.76235C20.7031 6.65268 20.3239 6.71622 19.9697 6.91705C19.8842 6.9674 19.807 7.02326 19.7327 7.08895C19.71 7.10801 19.71 7.10801 19.6869 7.12746C19.3489 7.41896 19.175 7.7872 19.0853 8.2173C19.0395 8.22646 19.0395 8.22646 18.9928 8.2358C18.9717 8.19622 18.951 8.15653 18.9303 8.11672C18.9245 8.10577 18.9186 8.09481 18.9126 8.08352C18.7662 7.79844 18.7891 7.40436 18.877 7.10362C18.9778 6.79962 19.1208 6.53826 19.4101 6.38257C19.9101 6.14525 20.5796 6.17133 21.0229 6.51762Z" fill="#DFDFDF"/>
<path d="M16.0146 6.46731C16.0398 6.48909 16.0645 6.51143 16.0886 6.53436C16.0997 6.5445 16.1108 6.55463 16.1222 6.56507C16.3775 6.82494 16.4615 7.22386 16.4632 7.5737C16.4636 7.59355 16.464 7.6134 16.4644 7.63385C16.4652 7.81713 16.4299 7.97588 16.3441 8.13787C16.3343 8.15664 16.3245 8.17541 16.3144 8.19474C16.3071 8.2084 16.2997 8.22207 16.2921 8.23614C16.2616 8.23004 16.2311 8.22393 16.1996 8.21764C16.1956 8.1995 16.1915 8.18135 16.1873 8.16266C16.0726 7.66638 15.8227 7.23999 15.3857 6.95981C15.0289 6.74158 14.6555 6.65256 14.2412 6.74708C14.2094 6.75585 14.1778 6.76488 14.1464 6.77483C14.1244 6.74362 14.1244 6.74362 14.1094 6.70084C14.1952 6.5114 14.4055 6.40284 14.5903 6.33089C15.0363 6.17955 15.6203 6.17504 16.0146 6.46731Z" fill="#DFDFDF"/>
<path d="M21.677 14.1618C21.8662 14.2693 22.0342 14.304 22.2487 14.3165C22.3039 14.3217 22.3039 14.3217 22.3224 14.3402C22.333 14.4061 22.3244 14.4297 22.2863 14.4857C22.2698 14.5045 22.2529 14.5231 22.2357 14.5413C22.2265 14.551 22.2174 14.5607 22.208 14.5708C22.0064 14.7752 21.7478 14.8408 21.4669 14.8442C21.3932 14.8431 21.3208 14.8376 21.2476 14.8302C21.1302 14.8192 21.0136 14.8184 20.8957 14.8188C20.8751 14.8187 20.8545 14.8186 20.8332 14.8186C20.7306 14.8187 20.6307 14.8222 20.5289 14.8351C20.468 14.8423 20.4079 14.8442 20.3466 14.8454C20.3232 14.8461 20.2998 14.8468 20.2757 14.8475C20.204 14.8384 20.1834 14.8215 20.1396 14.7656C20.1959 14.538 20.3123 14.358 20.4541 14.1737C20.4657 14.1579 20.4774 14.1421 20.4894 14.1258C20.5316 14.0771 20.5729 14.047 20.6275 14.013C20.6445 14.0022 20.6614 13.9915 20.6788 13.9804C21.0236 13.7929 21.3755 13.9792 21.677 14.1618Z" fill="#DFDFDF"/>
<path d="M14.7482 14.0792C14.9348 14.2394 15.0923 14.5268 15.1451 14.7656C15.1013 14.8215 15.0807 14.8384 15.009 14.8475C14.9857 14.8468 14.9623 14.8461 14.9382 14.8454C14.915 14.8449 14.8919 14.8445 14.868 14.844C14.817 14.8416 14.7669 14.8365 14.7163 14.8301C14.6073 14.8173 14.4986 14.8184 14.389 14.8188C14.3685 14.8187 14.3481 14.8186 14.3269 14.8186C14.2128 14.8187 14.1008 14.8238 13.9873 14.8352C13.6929 14.8641 13.4135 14.8235 13.1659 14.6546C12.9675 14.4871 12.9675 14.4871 12.9578 14.3829C12.9624 14.3402 12.9624 14.3402 12.9809 14.3217C13.0205 14.3187 13.0602 14.3165 13.1 14.3147C13.3616 14.2965 13.5693 14.1811 13.7965 14.0591C14.1371 13.8785 14.4265 13.84 14.7482 14.0792Z" fill="#DFDFDF"/>
<path d="M26.2065 11.8613C26.2782 11.8775 26.2782 11.8775 26.299 11.8983C26.2997 11.927 26.2992 11.9557 26.2982 11.9844C26.2931 12.1954 26.2993 12.3953 26.336 12.6035C26.442 13.2182 26.442 13.2182 26.299 13.4706C26.2916 13.4846 26.2842 13.4986 26.2765 13.513C26.1313 13.7576 25.874 13.9292 25.6077 14.0139C25.5591 14.0255 25.5591 14.0255 25.4851 14.0255C25.4988 13.9935 25.4988 13.9935 25.5128 13.9608C25.5858 13.7348 25.534 13.4922 25.4929 13.2647C25.4331 12.9284 25.5 12.6449 25.6886 12.3608C25.7758 12.2517 25.8839 12.1708 25.9936 12.0857C26.0728 12.0185 26.1395 11.9403 26.2065 11.8613Z" fill="#DFDFDF"/>
<path d="M9.02235 11.8613C9.08136 11.8622 9.09957 11.883 9.14158 11.925C9.15821 11.9441 9.17473 11.9634 9.19114 11.9827C9.25509 12.0555 9.3184 12.1202 9.39577 12.1793C9.62031 12.3538 9.77257 12.6 9.81486 12.8845C9.82369 13.0363 9.80777 13.1741 9.78075 13.3238C9.72059 13.6792 9.72059 13.6792 9.79925 14.0255C9.57631 14.0127 9.40858 13.9111 9.24432 13.7666C9.22847 13.7542 9.21261 13.7419 9.19627 13.7292C9.05054 13.6109 8.95017 13.4532 8.91137 13.2671C8.89122 13.0221 8.91631 12.7846 8.95895 12.5437C8.9871 12.3754 8.99097 12.2119 8.98586 12.0415C8.98536 12.0233 8.98486 12.005 8.98435 11.9862C8.98368 11.9701 8.98302 11.9539 8.98233 11.9373C8.98536 11.8983 8.98536 11.8983 9.02235 11.8613Z" fill="#DFDFDF"/>
<path d="M19.788 5.6831C19.8063 5.70141 19.8063 5.70141 19.825 5.72009C19.8151 5.78549 19.8151 5.78549 19.788 5.81258C19.7577 5.8146 19.7273 5.81546 19.6969 5.81583C19.3579 5.82275 19.1006 5.86424 18.8412 6.10045C18.6202 6.33502 18.5181 6.66045 18.5117 6.97793C18.5181 7.0597 18.5314 7.13829 18.5487 7.2184C18.5579 7.26272 18.5642 7.30252 18.5672 7.34788C18.5406 7.38372 18.5406 7.38372 18.5117 7.40338C18.3067 7.31565 18.2055 7.0787 18.1232 6.88544C18.1161 6.86875 18.109 6.85206 18.1017 6.83486C18.0095 6.56447 18.0485 6.2281 18.1703 5.9753C18.2911 5.75524 18.435 5.59931 18.6712 5.51084C19.0465 5.40418 19.4584 5.48657 19.788 5.6831Z" fill="#DFDFDF"/>
<path d="M16.8627 5.64935C17.0627 5.82089 17.1969 6.07639 17.2209 6.33897C17.2406 6.6714 17.1839 6.98548 16.9597 7.24599C16.9112 7.30005 16.861 7.35216 16.8098 7.40358C16.7378 7.37165 16.7378 7.37165 16.7196 7.32613C16.7167 7.2595 16.7354 7.2086 16.7543 7.14462C16.8181 6.83161 16.7135 6.49864 16.5496 6.23361C16.4025 6.02443 16.1907 5.8844 15.9404 5.83129C15.8633 5.82371 15.7866 5.82188 15.7092 5.82088C15.6697 5.82025 15.6302 5.81946 15.5907 5.8185C15.5648 5.81816 15.5648 5.81816 15.5385 5.81781C15.4965 5.81279 15.4965 5.81279 15.4595 5.77579C15.4626 5.72586 15.4723 5.70686 15.5098 5.67355C15.8985 5.43933 16.4847 5.3604 16.8627 5.64935Z" fill="#DFDFDF"/>
<path d="M16.4955 27.0664C16.5778 27.0602 16.5778 27.0602 16.6214 27.0869C16.7783 27.2449 16.8647 27.4482 16.87 27.6698C16.8688 27.7463 16.8591 27.8093 16.8284 27.8803C16.9272 27.864 16.9272 27.864 17.0076 27.812C17.0156 27.804 17.0236 27.796 17.0319 27.7878C17.0816 27.7935 17.0816 27.7935 17.1244 27.8063C17.1125 28.0116 17.0245 28.1935 16.8839 28.3427C16.8656 28.3519 16.8656 28.3519 16.8469 28.3612C16.8957 28.3673 16.9446 28.3734 16.9949 28.3797C17.0088 28.4098 17.0088 28.4098 17.0134 28.4537C16.9374 28.5994 16.821 28.6784 16.6699 28.7356C16.3419 28.8384 15.8427 28.7929 15.5336 28.6387C15.5214 28.6265 15.5092 28.6142 15.4966 28.6017C15.5065 28.5363 15.5065 28.5363 15.5336 28.5092C15.5606 28.5046 15.5879 28.501 15.6152 28.4978C15.632 28.4957 15.6488 28.4936 15.6661 28.4914C15.7013 28.4871 15.7366 28.483 15.7718 28.479C15.9963 28.4501 16.1513 28.3438 16.2923 28.1662C16.5206 27.8298 16.5274 27.4563 16.4955 27.0664Z" fill="#DFDFDF"/>
<path d="M18.7442 27.063C18.7893 27.0665 18.7893 27.0665 18.8078 27.085C18.8061 27.117 18.8031 27.149 18.7997 27.1809C18.7651 27.572 18.8177 27.944 19.0726 28.2564C19.2464 28.4289 19.4299 28.4741 19.6647 28.4973C19.768 28.5076 19.768 28.5076 19.7882 28.5278C19.7889 28.5586 19.789 28.5894 19.7882 28.6203C19.4585 28.7881 18.9489 28.8438 18.5934 28.732C18.4599 28.6743 18.36 28.6009 18.2899 28.4723C18.2934 28.4179 18.2934 28.4179 18.3084 28.3798C18.3725 28.3706 18.3725 28.3706 18.4379 28.3613C18.4298 28.3534 18.4217 28.3455 18.4134 28.3374C18.2794 28.1966 18.193 28.0167 18.1604 27.8249C18.1665 27.8127 18.1726 27.8004 18.1789 27.7879C18.2194 27.7832 18.2194 27.7832 18.2714 27.7879C18.3022 27.8125 18.333 27.8372 18.3639 27.8619C18.414 27.8681 18.414 27.8681 18.4564 27.8619C18.4472 27.8344 18.4472 27.8344 18.4379 27.8064C18.4165 27.5236 18.478 27.3231 18.6598 27.1035C18.6968 27.0665 18.6968 27.0665 18.7442 27.063Z" fill="#DFDFDF"/>
<path d="M17.624 4C17.6362 4 17.6484 4 17.661 4C17.7399 4.17477 17.8135 4.34826 17.8621 4.53412C17.8657 4.54748 17.8692 4.56084 17.8728 4.5746C17.9231 4.77741 17.9453 4.97856 17.9442 5.18732C17.9441 5.21999 17.9441 5.21999 17.9439 5.25333C17.9385 5.6488 17.8423 6.03391 17.661 6.38619C17.6488 6.38619 17.6366 6.38619 17.624 6.38619C17.3665 5.8348 17.2527 5.23007 17.402 4.62892C17.4052 4.61552 17.4084 4.60212 17.4116 4.58831C17.4612 4.38188 17.5333 4.19175 17.624 4Z" fill="#DFDFDF"/>
<path d="M17.6042 27.9136C17.6416 27.9148 17.6789 27.916 17.7162 27.9172C17.7498 27.9926 17.7794 28.0681 17.8064 28.1461C17.8586 28.2911 17.9278 28.4596 18.0654 28.5403C18.121 28.5637 18.1769 28.5829 18.2342 28.6016C18.2527 28.6201 18.2527 28.6201 18.259 28.6721C18.2527 28.7311 18.2527 28.7311 18.2181 28.7692C18.2024 28.7811 18.1867 28.7929 18.1706 28.8051C18.0505 28.9059 17.9788 29.0223 17.9012 29.1565C17.8919 29.1724 17.8825 29.1882 17.8729 29.2045C17.8115 29.3167 17.7825 29.4336 17.7549 29.5575C17.7337 29.6221 17.7124 29.6502 17.6607 29.693C17.6178 29.6845 17.6178 29.6845 17.5683 29.656C17.5429 29.6048 17.5304 29.5504 17.5162 29.4953C17.4397 29.2279 17.318 28.9708 17.0977 28.7924C17.0333 28.7388 17.0333 28.7388 17.0203 28.6698C17.0318 28.6201 17.0318 28.6201 17.0688 28.5831C17.0951 28.5742 17.1218 28.5662 17.1486 28.5588C17.3015 28.5094 17.371 28.3828 17.4412 28.2465C17.4811 28.1617 17.5062 28.0807 17.5222 27.9884C17.5352 27.9392 17.5529 27.9187 17.6042 27.9136Z" fill="#DFDFDF"/>
<path d="M17.7531 30.063C17.7653 30.063 17.7775 30.063 17.7901 30.063C17.9588 30.4492 17.9831 30.8302 17.8271 31.2283C17.6967 31.5438 17.43 31.776 17.1249 31.9201C16.8857 32.019 16.5905 32.0273 16.3469 31.9372C16.0512 31.8062 15.8383 31.6412 15.7022 31.3416C15.6359 31.1574 15.6386 30.9454 15.7184 30.7659C15.7884 30.6369 15.8753 30.5273 16.0143 30.4699C16.129 30.4566 16.2314 30.4582 16.3288 30.5254C16.4054 30.5932 16.4697 30.6536 16.4827 30.7582C16.4861 30.8435 16.4867 30.8974 16.4421 30.9717C16.3606 31.0436 16.2737 31.0249 16.1711 31.0209C16.0796 31.0191 16.0202 31.0305 15.9404 31.0804C15.8966 31.1226 15.8851 31.1536 15.8675 31.2122C15.8652 31.3587 15.9329 31.4785 16.0321 31.5833C16.2494 31.7764 16.5543 31.8511 16.8394 31.8457C17.1121 31.8156 17.3394 31.6558 17.5126 31.4503C17.7153 31.1719 17.816 30.8505 17.7901 30.5069C17.7723 30.4151 17.7456 30.3295 17.7092 30.2433C17.6921 30.1684 17.7181 30.1303 17.7531 30.063Z" fill="#DFDFDF"/>
<path d="M20.0285 15.339C20.0941 15.3907 20.1535 15.4475 20.2135 15.5054C20.3178 15.5973 20.4108 15.6567 20.5465 15.6904C20.5465 15.7209 20.5465 15.7514 20.5465 15.7829C20.1514 15.9509 19.6779 16.0484 19.2644 15.8904C19.1261 15.8277 18.9839 15.7402 18.9187 15.5979C18.9141 15.532 18.9141 15.532 18.9372 15.4684C19.162 15.2364 19.7599 15.1737 20.0285 15.339Z" fill="#DFDFDF"/>
<path d="M16.3291 15.4494C16.3661 15.5049 16.3661 15.5049 16.3661 15.565C16.3331 15.6888 16.257 15.7549 16.151 15.8228C15.7848 16.0263 15.3799 15.9855 14.9915 15.8748C14.819 15.8249 14.819 15.8249 14.7383 15.7823C14.7383 15.7518 14.7383 15.7213 14.7383 15.6898C14.7497 15.686 14.7611 15.6822 14.7729 15.6782C14.9153 15.6264 15.021 15.5524 15.13 15.4477C15.4501 15.1424 15.9795 15.2261 16.3291 15.4494Z" fill="#DFDFDF"/>
<path d="M19.3124 30.486C19.4818 30.5857 19.5576 30.7291 19.6139 30.9123C19.6574 31.1331 19.6043 31.3315 19.4857 31.5172C19.3207 31.7542 19.075 31.9137 18.7925 31.9796C18.485 32.0334 18.1891 31.9772 17.9306 31.8013C17.8485 31.7385 17.7724 31.6696 17.6978 31.5982C17.7046 31.5627 17.7046 31.5627 17.7163 31.5242C17.7544 31.5011 17.7544 31.5011 17.7902 31.4872C17.8091 31.5067 17.8091 31.5067 17.8284 31.5265C17.8465 31.5443 17.8646 31.562 17.8827 31.5797C17.8915 31.5886 17.9002 31.5975 17.9092 31.6067C18.0801 31.7682 18.3205 31.8487 18.5523 31.8445C18.835 31.8212 19.1115 31.7415 19.307 31.5242C19.379 31.4248 19.418 31.333 19.418 31.2098C19.3906 31.1333 19.3621 31.0801 19.2885 31.0433C19.1975 31.0239 19.1083 31.025 19.0157 31.0283C18.9452 31.0291 18.9232 31.0275 18.8608 30.9901C18.7972 30.9181 18.8003 30.8573 18.8013 30.7639C18.8112 30.6804 18.8442 30.6241 18.9001 30.5623C19.0202 30.4687 19.1649 30.4299 19.3124 30.486Z" fill="#DFDFDF"/>
<path d="M9.20734 20.1113C9.21955 20.1174 9.23176 20.1235 9.24433 20.1298C9.14667 20.2275 9.049 20.3252 8.94837 20.4258C8.93616 20.4197 8.92396 20.4136 8.91138 20.4073C9.00448 20.3005 9.09704 20.2005 9.20734 20.1113Z" fill="#DFDFDF"/>
<path d="M18.0677 15.7461C18.0799 15.7522 18.0921 15.7583 18.1047 15.7646C18.0192 15.8501 17.9338 15.9355 17.8457 16.0236C17.8457 15.9329 17.9142 15.8827 17.9752 15.8201C18.0053 15.7945 18.0357 15.7693 18.0677 15.7461Z" fill="#DFDFDF"/>
<path d="M19.677 13.4146C19.6893 13.4207 19.7015 13.4268 19.714 13.433C19.6408 13.5063 19.5675 13.5795 19.4921 13.655C19.4799 13.6489 19.4677 13.6428 19.4551 13.6365C19.5231 13.5528 19.5922 13.4812 19.677 13.4146Z" fill="#DFDFDF"/>
<path d="M21.3047 17.8911C21.3169 17.8972 21.3291 17.9033 21.3417 17.9096C21.2745 17.9768 21.2074 18.0439 21.1382 18.1131C21.1382 18.0391 21.1632 18.0194 21.2122 17.9651C21.2424 17.9397 21.2731 17.9148 21.3047 17.8911Z" fill="#DFDFDF"/>
<path d="M20.602 14.0254C20.6142 14.0315 20.6264 14.0376 20.639 14.0439C20.5779 14.1049 20.5169 14.166 20.454 14.2289C20.4418 14.2228 20.4296 14.2167 20.417 14.2104C20.5308 14.072 20.5308 14.072 20.602 14.0254Z" fill="#DFDFDF"/>
<path d="M25.0782 19.2051C25.0782 19.2478 25.0782 19.2905 25.0782 19.3346C25.0598 19.3224 25.0415 19.3101 25.0227 19.2976C25.0044 19.3159 24.986 19.3342 24.9672 19.3531C24.955 19.347 24.9428 19.3409 24.9302 19.3346C24.9513 19.3129 24.9725 19.2914 24.9938 19.2698C25.0056 19.2578 25.0174 19.2458 25.0295 19.2334C25.0597 19.2051 25.0597 19.2051 25.0782 19.2051Z" fill="#DFDFDF"/>
<path d="M18.9743 30.5073C18.9865 30.5134 18.9987 30.5195 19.0113 30.5258C18.9624 30.5747 18.9136 30.6235 18.8633 30.6738C18.8633 30.6183 18.8633 30.6183 18.9084 30.5698C18.924 30.5553 18.9397 30.5408 18.9558 30.5258C18.9619 30.5197 18.968 30.5136 18.9743 30.5073Z" fill="#DFDFDF"/>
<path d="M8.5 5.02333C9.91473 5.0188 11.3295 5.01539 12.7442 5.01331C13.4012 5.01232 14.0582 5.01097 14.7152 5.00874C15.2884 5.00681 15.8616 5.00557 16.4348 5.00514C16.7378 5.00489 17.0408 5.00431 17.3438 5.00289C17.63 5.00156 17.9162 5.00117 18.2025 5.00146C18.3066 5.00141 18.4106 5.00104 18.5147 5.00028C19.5043 4.99349 20.4827 5.10861 21.4329 5.39384C21.4891 5.41044 21.5454 5.42703 21.6034 5.44412C22.9579 5.85473 24.0881 6.46345 25.0852 7.47197C25.1391 7.52571 25.1931 7.57945 25.2486 7.63482C26.6317 9.08327 26.8859 10.9044 26.8497 12.8204C26.8015 14.5564 26.0654 16.1575 24.8177 17.3627C21.8984 19.8989 17.1856 19.393 13.7476 19.393C13.7476 22.9867 13.7476 26.5804 13.7476 30.283C15.2656 30.283 16.7835 30.283 18.3474 30.283C18.2827 30.734 18.2827 30.734 18.1724 30.8568C17.9886 30.9439 17.8536 30.9551 17.6499 30.9602C17.571 30.9625 17.4922 30.9647 17.4109 30.9671C17.3217 30.9686 17.2325 30.97 17.1433 30.9714C17.0473 30.9735 16.9513 30.9757 16.8553 30.9779C15.3292 31.0093 13.8022 30.9989 12.2759 30.9962C11.8489 30.9956 11.4218 30.9953 10.9948 30.9949C10.1632 30.9943 9.33159 30.9932 8.5 30.9918C8.5 30.7579 8.5 30.524 8.5 30.283C9.05586 30.283 9.61172 30.283 10.1844 30.283C10.1844 22.1599 10.1844 14.0369 10.1844 5.66771C9.62857 5.66771 9.07271 5.66771 8.5 5.66771C8.5 5.45506 8.5 5.24242 8.5 5.02333ZM13.7476 5.66771C13.7476 9.94187 13.7476 14.216 13.7476 18.6197C17.7265 19.0226 19.8051 18.8453 21.4053 17.5842C22.7853 16.3 22.8931 14.4349 22.9472 12.7559C22.9499 12.677 22.9526 12.5981 22.9553 12.5167C22.9891 10.4809 22.7482 8.16908 21.2628 6.63427C19.2811 4.94392 15.9166 5.66771 13.7476 5.66771Z" fill="url(#paint0_linear_9693_166407)"/>
<defs>
<linearGradient id="paint0_linear_9693_166407" x1="17.6765" y1="5" x2="17.6765" y2="31" gradientUnits="userSpaceOnUse">
<stop stop-color="#E2B740"/>
<stop offset="1" stop-color="#73451D"/>
</linearGradient>
</defs>
</svg>
