<svg width="20" height="20" viewBox="0 0 20 20" fill="none" xmlns="http://www.w3.org/2000/svg">
    <mask id="41vpjdfgna" style="mask-type:alpha" maskUnits="userSpaceOnUse" x="-1" y="0" width="21" height="21">
        <path fill="#D9D9D9" d="M-.556.556h20v20h-20z"/>
    </mask>
    <g mask="url(#41vpjdfgna)">
        <path d="M9.99 15.582a.977.977 0 0 0 .718-.293.98.98 0 0 0 .294-.72.977.977 0 0 0-.294-.72.98.98 0 0 0-.72-.293.977.977 0 0 0-.72.294.98.98 0 0 0-.293.72c0 .284.098.523.294.72a.98.98 0 0 0 .72.292zm.012 3.862a9.2 9.2 0 0 1-3.684-.743 9.538 9.538 0 0 1-3-2.019A9.538 9.538 0 0 1 1.3 13.684a9.192 9.192 0 0 1-.744-3.682 9.2 9.2 0 0 1 .743-3.684 9.54 9.54 0 0 1 2.019-3A9.538 9.538 0 0 1 6.316 1.3 9.192 9.192 0 0 1 9.998.556c1.307 0 2.535.247 3.684.743a9.54 9.54 0 0 1 3 2.019c.85.85 1.523 1.849 2.019 2.998a9.193 9.193 0 0 1 .744 3.682 9.2 9.2 0 0 1-.744 3.684 9.54 9.54 0 0 1-2.018 3 9.54 9.54 0 0 1-2.999 2.019 9.192 9.192 0 0 1-3.682.743zM10 17.954c2.22 0 4.101-.771 5.642-2.312 1.54-1.541 2.311-3.422 2.311-5.642s-.77-4.1-2.311-5.642C14.1 2.818 12.22 2.047 10 2.047s-4.1.77-5.642 2.311C2.818 5.9 2.047 7.78 2.047 10s.77 4.1 2.311 5.642C5.9 17.182 7.78 17.953 10 17.953zm.08-12.21c.46 0 .856.145 1.191.433.336.29.503.65.503 1.083 0 .365-.107.691-.32.98a5.511 5.511 0 0 1-.735.804c-.361.32-.679.672-.953 1.057a2.323 2.323 0 0 0-.44 1.283.562.562 0 0 0 .19.455c.134.122.29.184.469.184a.674.674 0 0 0 .485-.191.87.87 0 0 0 .255-.469 2.05 2.05 0 0 1 .423-.913c.216-.267.45-.52.702-.761.363-.354.679-.739.949-1.156.27-.417.405-.882.405-1.395 0-.788-.31-1.435-.93-1.942-.621-.506-1.346-.76-2.174-.76-.592 0-1.15.132-1.673.393a2.87 2.87 0 0 0-1.224 1.147.682.682 0 0 0-.087.487c.032.17.12.3.262.388.182.1.368.13.56.086a.84.84 0 0 0 .487-.327 2.35 2.35 0 0 1 .731-.629c.286-.158.594-.237.925-.237z" fill="#926100"/>
    </g>
</svg>
