<svg width="26" height="26" viewBox="0 0 26 26" fill="none" xmlns="http://www.w3.org/2000/svg">
    <g clip-path="url(#knsd1l2jza)">
        <mask id="qxt0rq0peb" style="mask-type:alpha" maskUnits="userSpaceOnUse" x="0" y="0" width="26" height="26">
            <path fill="#D9D9D9" d="M0 0h26v26H0z"/>
        </mask>
        <g mask="url(#qxt0rq0peb)">
            <path d="M10.167 6.882a.646.646 0 0 0-.502-.206.69.69 0 0 0-.47.206l-5.373 5.372c-.112.112-.194.23-.242.353-.047.121-.07.252-.07.392s.023.271.07.392c.048.123.13.241.242.353l5.372 5.373a.676.676 0 0 0 .487.217.675.675 0 0 0 .486-.217V6.882zm0 0a.675.675 0 0 1 .217.486.675.675 0 0 1-.217.486v-.972zm0 11.262-4.458-4.458h16.45a.668.668 0 0 0 .49-.197.668.668 0 0 0 .197-.49.668.668 0 0 0-.198-.49.668.668 0 0 0-.49-.197H5.71l4.458-4.458v10.29z" fill="#212121" stroke="#212121" stroke-width=".15"/>
        </g>
    </g>
    <defs>
        <clipPath id="knsd1l2jza">
            <path fill="#fff" d="M0 0h26v26H0z"/>
        </clipPath>
    </defs>
</svg>
