<svg width="20" height="20" viewBox="0 0 20 20" fill="none" xmlns="http://www.w3.org/2000/svg">
    <mask id="di45kv24ma" style="mask-type:alpha" maskUnits="userSpaceOnUse" x="1" y="1" width="18" height="18">
        <path fill="#D9D9D9" d="M1.111 1.111h17.778v17.778H1.111z"/>
    </mask>
    <g mask="url(#di45kv24ma)">
        <path d="M4.073 18.89c-.407 0-.756-.146-1.046-.436a1.427 1.427 0 0 1-.435-1.046c0-.408.145-.757.435-1.047.29-.29.639-.435 1.046-.435h11.852c.407 0 .756.145 1.046.435.29.29.436.64.436 1.047 0 .407-.145.756-.436 1.046-.29.29-.639.435-1.046.435H4.073zm1.482-5.927h1.037l5.778-5.76-1.056-1.055-5.76 5.778v1.037zm-1.482.74v-2.092a.766.766 0 0 1 .222-.537L12.37 3.02a1.463 1.463 0 0 1 1.037-.426c.197 0 .389.037.574.11.185.075.351.186.5.334l1.018 1.037c.148.136.256.297.324.482s.102.376.102.574c0 .185-.034.367-.102.546a1.387 1.387 0 0 1-.324.49l-8.055 8.056a.74.74 0 0 1-.537.223H4.814a.717.717 0 0 1-.528-.213.717.717 0 0 1-.213-.528z" fill="#212121"/>
    </g>
</svg>
