<svg width="24" height="24" viewBox="0 0 24 24" fill="none" xmlns="http://www.w3.org/2000/svg">
    <mask id="vyp6z7tz1a" style="mask-type:alpha" maskUnits="userSpaceOnUse" x="0" y="0" width="24" height="24">
        <path transform="matrix(-1 0 0 1 24 0)" fill="#D9D9D9" d="M0 0h24v24H0z"/>
    </mask>
    <g mask="url(#vyp6z7tz1a)">
        <path d="M8.725 11.662c0 .133.02.258.063.375a.877.877 0 0 0 .212.325l4.6 4.6c.183.183.413.28.688.288a.93.93 0 0 0 .712-.288.948.948 0 0 0 .275-.7.948.948 0 0 0-.275-.7l-3.875-3.9L15 7.762a.977.977 0 0 0 .288-.688.93.93 0 0 0-.288-.712.948.948 0 0 0-.7-.275.948.948 0 0 0-.7.275l-4.6 4.6c-.1.1-.17.208-.212.325a1.107 1.107 0 0 0-.063.375z" fill="#000"/>
    </g>
</svg>
