<svg width="18" height="18" viewBox="0 0 18 18" fill="none" xmlns="http://www.w3.org/2000/svg">
    <mask id="3as0iyu80a" style="mask-type:alpha" maskUnits="userSpaceOnUse" x="1" y="1" width="16" height="16">
        <path fill="#D9D9D9" d="M1 1h16v16H1z"/>
    </mask>
    <g mask="url(#3as0iyu80a)">
        <path d="m8.3 9.466-.967-.95a.622.622 0 0 0-.458-.183.649.649 0 0 0-.475.2.632.632 0 0 0-.183.467c0 .188.06.344.183.466L7.833 10.9a.64.64 0 0 0 .467.2.64.64 0 0 0 .467-.2L11.6 8.066a.61.61 0 0 0 .192-.466.68.68 0 0 0-.667-.675.62.62 0 0 0-.475.191L8.3 9.466zM6.433 15.5l-.966-1.634-1.834-.4a.63.63 0 0 1-.4-.258.618.618 0 0 1-.116-.458l.183-1.884-1.25-1.433A.623.623 0 0 1 1.883 9c0-.167.056-.312.167-.434L3.3 7.133 3.117 5.25a.619.619 0 0 1 .116-.459.629.629 0 0 1 .4-.258l1.834-.4.966-1.633a.656.656 0 0 1 .834-.267L9 2.966l1.733-.733a.656.656 0 0 1 .833.267l.967 1.633 1.834.4c.166.033.3.12.4.258.1.14.139.292.116.459L14.7 7.133l1.25 1.433a.623.623 0 0 1 .167.434.623.623 0 0 1-.167.433l-1.25 1.433.183 1.884a.619.619 0 0 1-.116.458.629.629 0 0 1-.4.258l-1.834.4-.966 1.634a.656.656 0 0 1-.834.266L9 15.033l-1.733.733a.656.656 0 0 1-.833-.267zm.867-1.2 1.7-.734 1.733.734.934-1.6 1.833-.434-.167-1.866L14.567 9l-1.234-1.434L13.5 5.7l-1.833-.4-.967-1.6-1.7.733L7.267 3.7l-.934 1.6-1.833.4.167 1.866L3.433 9l1.234 1.4-.167 1.9 1.833.4.967 1.6z" fill="#E29808"/>
    </g>
</svg>
