<svg width="18" height="18" viewBox="0 0 18 18" fill="none" xmlns="http://www.w3.org/2000/svg">
    <path d="M7.243 10.875h3.514a1.526 1.526 0 0 0 1.547-1.5V5.869l.134.101a.983.983 0 0 0 1.305-.119l1.014-1.113a.922.922 0 0 0-.075-1.32l-1.835-1.61a2.766 2.766 0 0 0-1.828-.683h-.332a.375.375 0 0 0-.374.375 1.313 1.313 0 0 1-2.626 0 .375.375 0 0 0-.375-.375h-.331a2.766 2.766 0 0 0-1.828.683l-1.835 1.61a.922.922 0 0 0-.075 1.32l1.014 1.113a.983.983 0 0 0 1.306.119l.133-.101v3.506a1.526 1.526 0 0 0 1.547 1.5zM5.11 5.371a.227.227 0 0 1-.3-.025L3.797 4.233a.171.171 0 0 1 .016-.25l1.835-1.611c.366-.32.837-.497 1.324-.497a2.063 2.063 0 0 0 4.056 0c.487 0 .958.176 1.324.497l1.835 1.61a.176.176 0 0 1 .063.124.172.172 0 0 1-.047.127l-1.014 1.113a.226.226 0 0 1-.3.025l-.734-.555a.375.375 0 0 0-.601.3v4.259a.776.776 0 0 1-.797.75H7.243a.775.775 0 0 1-.797-.75V5.116a.375.375 0 0 0-.6-.3l-.735.555zm11.654 8.614a.374.374 0 0 1 0 .53l-2.25 2.25a.375.375 0 0 1-.53-.53l1.61-1.61H2.405l1.61 1.61a.375.375 0 1 1-.53.53l-2.25-2.25a.374.374 0 0 1 0-.53l2.25-2.25a.375.375 0 0 1 .53.53l-1.61 1.61h13.19l-1.61-1.61a.376.376 0 0 1 .53-.53l2.25 2.25z" fill="#CD6F00" stroke="#CD6F00" stroke-width=".5"/>
</svg>
