<svg width="20" height="20" viewBox="0 0 20 20" fill="none" xmlns="http://www.w3.org/2000/svg">
    <g clip-path="url(#96nn1eceea)">
        <mask id="ng4ldgvnvb" style="mask-type:alpha" maskUnits="userSpaceOnUse" x="0" y="0" width="20" height="20">
            <path fill="#D9D9D9" d="M0 0h20v20H0z"/>
        </mask>
        <g mask="url(#ng4ldgvnvb)">
            <path d="M13.459 10.833H4.167a.806.806 0 0 1-.594-.24.806.806 0 0 1-.24-.593c0-.236.08-.434.24-.594.16-.16.358-.24.594-.24h9.291l-2.374-2.374a.763.763 0 0 1-.24-.584.85.85 0 0 1 .833-.844.776.776 0 0 1 .594.24l3.813 3.813a.731.731 0 0 1 .177.27.923.923 0 0 1 .052.313.923.923 0 0 1-.052.313.731.731 0 0 1-.177.27l-3.813 3.813a.775.775 0 0 1-.594.24.85.85 0 0 1-.833-.844.764.764 0 0 1 .24-.584l2.375-2.375z" fill="#fff"/>
        </g>
    </g>
    <defs>
        <clipPath id="96nn1eceea">
            <path fill="#fff" d="M0 0h20v20H0z"/>
        </clipPath>
    </defs>
</svg>
