<svg width="24" height="24" viewBox="0 0 24 24" fill="none" xmlns="http://www.w3.org/2000/svg">
    <mask id="61tqvd44va" style="mask-type:alpha" maskUnits="userSpaceOnUse" x="0" y="0" width="24" height="24">
        <path fill="#D9D9D9" d="M0 0h24v24H0z"/>
    </mask>
    <g mask="url(#61tqvd44va)">
        <path d="M15.275 11.662c0 .133-.02.258-.063.375a.877.877 0 0 1-.212.325l-4.6 4.6a.977.977 0 0 1-.688.288.93.93 0 0 1-.712-.288.948.948 0 0 1-.275-.7c0-.283.092-.517.275-.7l3.875-3.9L9 7.762a.977.977 0 0 1-.288-.688A.93.93 0 0 1 9 6.362a.948.948 0 0 1 .7-.275c.283 0 .517.092.7.275l4.6 4.6c.1.1.17.208.212.325.042.117.063.242.063.375z" fill="#000"/>
    </g>
</svg>
