<svg width="18" height="18" viewBox="0 0 18 18" fill="none" xmlns="http://www.w3.org/2000/svg">
    <mask id="e25tt6bkja" style="mask-type:alpha" maskUnits="userSpaceOnUse" x="1" y="1" width="16" height="16">
        <path fill="#D9D9D9" d="M1 1h16v16H1z"/>
    </mask>
    <g mask="url(#e25tt6bkja)">
        <path d="M12.133 10.667 14.667 8.5l.433.033c.189.023.336.1.442.234a.684.684 0 0 1 .108.7.52.52 0 0 1-.183.233l-1.734 1.517.517 2.25a.165.165 0 0 1 .017.075v.075a.631.631 0 0 1-.2.475.653.653 0 0 1-.642.166.697.697 0 0 1-.175-.075l-.35-.216-.767-3.3zM10.567 5.8l-.7-1.633.15-.367a.643.643 0 0 1 .258-.308.673.673 0 0 1 .358-.109c.123 0 .242.034.359.1a.598.598 0 0 1 .258.3l.917 2.167-1.6-.15zM5.9 12.217 8 10.95l2.1 1.283-.55-2.4 1.85-1.6-2.433-.216L8 5.75 7.033 8 4.6 8.217l1.85 1.616-.55 2.384zm-1.667 1.25.734-3.15L2.517 8.2a.466.466 0 0 1-.175-.233A.89.89 0 0 1 2.3 7.7c0-.156.053-.3.158-.433a.631.631 0 0 1 .442-.234l3.233-.283 1.25-2.967a.598.598 0 0 1 .259-.3.714.714 0 0 1 .358-.1c.122 0 .242.034.358.1a.598.598 0 0 1 .259.3l1.25 2.967 3.233.283c.189.023.336.1.442.234a.684.684 0 0 1 .158.433.889.889 0 0 1-.042.267.466.466 0 0 1-.175.233l-2.45 2.117.734 3.15a.506.506 0 0 1 .016.15.631.631 0 0 1-.2.475.653.653 0 0 1-.466.191c-.034 0-.15-.033-.35-.1L8 12.517l-2.767 1.666a.696.696 0 0 1-.35.1c-.2 0-.372-.08-.516-.241a.596.596 0 0 1-.134-.575z" fill="#E29808"/>
    </g>
</svg>
