<svg width="18" height="18" viewBox="0 0 18 18" fill="none" xmlns="http://www.w3.org/2000/svg">
    <g clip-path="url(#kg9ylshaba)">
        <mask id="itjpnca9db" style="mask-type:alpha" maskUnits="userSpaceOnUse" x="0" y="0" width="18" height="18">
            <path fill="#D9D9D9" d="M0 0h18v18H0z"/>
        </mask>
        <g mask="url(#itjpnca9db)">
            <path d="M6.75 9.75a.726.726 0 0 1-.534-.216A.726.726 0 0 1 6 9V4.37L4.594 5.775a.7.7 0 0 1-.516.206.764.764 0 0 1-.534-.206.73.73 0 0 1-.225-.534.73.73 0 0 1 .225-.535l2.681-2.68a.658.658 0 0 1 .244-.16.83.83 0 0 1 .281-.047c.1 0 .194.015.281.047a.658.658 0 0 1 .244.16l2.7 2.7c.15.15.222.324.216.524a.755.755 0 0 1-.235.525.791.791 0 0 1-.525.216.687.687 0 0 1-.525-.216L7.5 4.37V9c0 .213-.072.39-.216.534a.726.726 0 0 1-.534.216zm4.5 6.431a.832.832 0 0 1-.281-.047.658.658 0 0 1-.244-.159l-2.7-2.7a.687.687 0 0 1-.216-.525.755.755 0 0 1 .235-.525.79.79 0 0 1 .525-.216c.2-.006.375.066.525.216l1.406 1.406v-4.63c0-.213.072-.392.216-.535a.726.726 0 0 1 .534-.216c.213 0 .39.072.534.216A.726.726 0 0 1 12 9v4.631l1.406-1.406a.7.7 0 0 1 .516-.206c.206 0 .384.069.534.206a.73.73 0 0 1 .225.534.73.73 0 0 1-.225.535l-2.68 2.681a.659.659 0 0 1-.245.16.831.831 0 0 1-.28.046z" fill="#E29808"/>
        </g>
    </g>
    <defs>
        <clipPath id="kg9ylshaba">
            <path fill="#fff" d="M0 0h18v18H0z"/>
        </clipPath>
    </defs>
</svg>
