<svg width="20" height="20" viewBox="0 0 20 20" fill="none" xmlns="http://www.w3.org/2000/svg">
    <mask id="zear358aha" style="mask-type:alpha" maskUnits="userSpaceOnUse" x="0" y="0" width="20" height="20">
        <path fill="#D9D9D9" d="M0 0h20v20H0z"/>
    </mask>
    <g mask="url(#zear358aha)">
        <path d="M10 12.458a.92.92 0 0 1-.313-.052.731.731 0 0 1-.27-.177L5.583 8.396a.814.814 0 0 1-.24-.573.776.776 0 0 1 .24-.594A.79.79 0 0 1 6.167 7a.79.79 0 0 1 .583.23L10 10.457l3.25-3.229a.814.814 0 0 1 .573-.24.776.776 0 0 1 .594.24.79.79 0 0 1 .229.584.79.79 0 0 1-.23.583l-3.833 3.833a.731.731 0 0 1-.27.177.92.92 0 0 1-.313.052z" fill="#000"/>
    </g>
</svg>
