<svg width="18" height="19" viewBox="0 0 18 19" fill="none" xmlns="http://www.w3.org/2000/svg">
    <mask id="d0m8yves8a" style="mask-type:alpha" maskUnits="userSpaceOnUse" x="0" y="0" width="18" height="19">
        <path fill="#D9D9D9" d="M0 .5h18v18H0z"/>
    </mask>
    <g mask="url(#d0m8yves8a)">
        <path d="m9 10.55-3.675 3.675a.711.711 0 0 1-.525.206.711.711 0 0 1-.525-.206.711.711 0 0 1-.206-.525c0-.212.068-.387.206-.525L7.95 9.5 4.275 5.825a.711.711 0 0 1-.206-.525c0-.213.068-.388.206-.525a.711.711 0 0 1 .525-.206c.212 0 .387.068.525.206L9 8.45l3.675-3.675a.711.711 0 0 1 .525-.206c.213 0 .388.068.525.206a.711.711 0 0 1 .206.525.711.711 0 0 1-.206.525L10.05 9.5l3.675 3.675a.711.711 0 0 1 .206.525.711.711 0 0 1-.206.525.711.711 0 0 1-.525.206.711.711 0 0 1-.525-.206L9 10.55z" fill="#1C1B1F"/>
    </g>
</svg>
