<svg width="14" height="15" viewBox="0 0 14 15" fill="none" xmlns="http://www.w3.org/2000/svg">
    <mask id="kktwq55k2a" style="mask-type:alpha" maskUnits="userSpaceOnUse" x="0" y="0" width="14" height="15">
        <path fill="#D9D9D9" d="M0 .5h14v14H0z"/>
    </mask>
    <g mask="url(#kktwq55k2a)">
        <path d="M6.183 8.55 4.93 7.296a.553.553 0 0 0-.408-.16.553.553 0 0 0-.408.16.553.553 0 0 0-.16.408c0 .165.053.302.16.409l1.662 1.662a.56.56 0 0 0 .408.175.56.56 0 0 0 .409-.175l3.296-3.296a.553.553 0 0 0 .16-.408.553.553 0 0 0-.16-.409.553.553 0 0 0-.409-.16.553.553 0 0 0-.408.16L6.183 8.55zM7 13.333a5.681 5.681 0 0 1-2.275-.459 5.892 5.892 0 0 1-1.852-1.247 5.891 5.891 0 0 1-1.247-1.852 5.68 5.68 0 0 1-.46-2.275c0-.807.154-1.565.46-2.275a5.89 5.89 0 0 1 1.247-1.852 5.89 5.89 0 0 1 1.852-1.247A5.68 5.68 0 0 1 7 1.666a5.68 5.68 0 0 1 2.275.46c.71.306 1.327.722 1.852 1.247a5.89 5.89 0 0 1 1.247 1.852c.306.71.46 1.468.46 2.275a5.68 5.68 0 0 1-.46 2.275 5.89 5.89 0 0 1-1.247 1.852 5.892 5.892 0 0 1-1.852 1.247c-.71.306-1.468.46-2.275.46z" fill="#0EB000"/>
    </g>
</svg>
