<svg width="18" height="18" viewBox="0 0 18 18" fill="none" xmlns="http://www.w3.org/2000/svg">
    <mask id="e7xjps1zfa" style="mask-type:alpha" maskUnits="userSpaceOnUse" x="1" y="1" width="16" height="16">
        <path fill="#D9D9D9" d="M1 1h16v16H1z"/>
    </mask>
    <g mask="url(#e7xjps1zfa)">
        <path d="M4.952 11.977a7.6 7.6 0 0 1 1.78.208 7.515 7.515 0 0 1 1.716.65V5.6a6.034 6.034 0 0 0-1.678-.758 6.964 6.964 0 0 0-3.055-.149c-.384.07-.778.183-1.183.34a.223.223 0 0 0-.12.082.206.206 0 0 0-.036.117v6.96c0 .066.024.115.071.146.047.03.1.034.156.01.349-.119.717-.21 1.105-.275a7.634 7.634 0 0 1 1.244-.096zm4.6.858a7.514 7.514 0 0 1 1.717-.65 7.6 7.6 0 0 1 1.779-.208c.441 0 .856.032 1.244.096.388.065.756.156 1.105.275.057.024.109.02.156-.01.047-.031.07-.08.07-.146v-6.96a.19.19 0 0 0-.035-.113.273.273 0 0 0-.12-.085 6.418 6.418 0 0 0-1.182-.34 6.964 6.964 0 0 0-3.056.148 6.034 6.034 0 0 0-1.678.758v7.235zM9 14.145c-.143 0-.278-.018-.403-.053a1.798 1.798 0 0 1-.354-.143 6.65 6.65 0 0 0-3.29-.867 5.891 5.891 0 0 0-2.577.588.722.722 0 0 1-.748-.057.767.767 0 0 1-.356-.676v-7.99c0-.16.041-.308.123-.447.082-.14.2-.24.353-.301a6.841 6.841 0 0 1 1.558-.539 7.787 7.787 0 0 1 1.646-.175c.716 0 1.416.098 2.1.294A7.721 7.721 0 0 1 9 4.646a7.721 7.721 0 0 1 1.949-.867 7.582 7.582 0 0 1 2.099-.294c.557 0 1.106.059 1.646.175.54.117 1.06.296 1.558.539a.696.696 0 0 1 .353.3c.082.14.123.288.123.447v7.99a.743.743 0 0 1-.37.67.784.784 0 0 1-.777.05 5.946 5.946 0 0 0-1.235-.43 5.82 5.82 0 0 0-1.298-.145 6.65 6.65 0 0 0-3.29.868c-.112.06-.23.107-.355.143-.125.035-.26.053-.403.053zm1.43-7.436c0-.082.029-.166.087-.251a.474.474 0 0 1 .2-.177 6.248 6.248 0 0 1 2.33-.446c.242 0 .474.014.7.042.224.029.451.067.68.116a.41.41 0 0 1 .224.142.39.39 0 0 1 .095.26c0 .166-.052.288-.156.365-.104.077-.24.095-.406.056a4.585 4.585 0 0 0-.55-.08 6.967 6.967 0 0 0-.586-.024c-.357 0-.706.034-1.048.103a6.237 6.237 0 0 0-.979.278c-.174.067-.316.063-.426-.011-.11-.075-.166-.199-.166-.373zm0 4.02c0-.082.029-.167.087-.255a.469.469 0 0 1 .2-.181 5.663 5.663 0 0 1 1.127-.329c.396-.073.797-.11 1.204-.11.24 0 .473.014.698.043.225.028.452.067.68.116.087.02.162.067.225.141a.39.39 0 0 1 .095.26c0 .167-.052.288-.156.365-.104.077-.24.096-.406.056a4.59 4.59 0 0 0-.55-.08 7.04 7.04 0 0 0-.586-.023c-.352 0-.698.033-1.038.1-.34.067-.664.161-.975.283-.173.072-.318.07-.433-.005-.115-.076-.173-.203-.173-.381zm0-2.003c0-.082.029-.166.087-.252a.474.474 0 0 1 .2-.177 6.26 6.26 0 0 1 1.127-.332 6.269 6.269 0 0 1 1.902-.07c.225.027.452.066.68.115.087.02.162.067.225.142a.39.39 0 0 1 .095.26c0 .166-.052.288-.156.365-.104.076-.24.095-.406.055a4.585 4.585 0 0 0-.55-.079 6.967 6.967 0 0 0-.586-.024c-.357 0-.706.034-1.048.103a6.221 6.221 0 0 0-.979.278c-.174.067-.316.063-.426-.011-.11-.075-.166-.2-.166-.373z" fill="gray"/>
    </g>
</svg>
