<svg width="18" height="18" viewBox="0 0 18 18" fill="none" xmlns="http://www.w3.org/2000/svg">
    <path d="m11.116 14-2.325-3.495a2.288 2.288 0 0 0-.436-.53 1.195 1.195 0 0 0-.5-.281 1.93 1.93 0 0 0-.64-.094H5V8.227h3.058c.739 0 1.295-.15 1.67-.453.374-.312.598-.754.67-1.326l.266.156H5V5.45h5.664l-.297.202c-.083-.488-.307-.858-.67-1.107-.365-.26-.885-.39-1.56-.39H5V3h8.722v1.155h-2.793l.25-.219c.333.187.593.437.78.75.187.3.302.654.343 1.06l-.359-.296h1.779v1.154H11.99l.343-.359c.01.666-.135 1.243-.437 1.732-.301.49-.733.869-1.295 1.14-.55.26-1.217.39-1.997.39V9.35h.437c.468 0 .869.094 1.202.281.343.177.665.494.967.952L13.52 14h-2.404z" fill="#9E9E9E"/>
</svg>
