<svg width="18" height="18" viewBox="0 0 18 18" fill="none" xmlns="http://www.w3.org/2000/svg">
    <mask id="34gq2n15ba" style="mask-type:alpha" maskUnits="userSpaceOnUse" x="1" y="1" width="16" height="16">
        <path fill="#D9D9D9" d="M1 1h16v16H1z"/>
    </mask>
    <g mask="url(#34gq2n15ba)">
        <path d="M3.774 15.665c-.396 0-.731-.137-1.005-.412a1.368 1.368 0 0 1-.412-1.005V3.752c0-.396.137-.73.412-1.005.274-.275.61-.412 1.005-.412h4.667a.57.57 0 0 1 .42.169.569.569 0 0 1 .168.419.569.569 0 0 1-.168.42.57.57 0 0 1-.42.168H3.774a.23.23 0 0 0-.165.076.23.23 0 0 0-.076.165v10.496c0 .06.025.115.076.165a.23.23 0 0 0 .165.076h4.667c.167 0 .307.056.42.169a.569.569 0 0 1 .168.419.569.569 0 0 1-.168.419.57.57 0 0 1-.42.169H3.774zm9.653-6.077H7.333a.57.57 0 0 1-.42-.169A.569.569 0 0 1 6.746 9c0-.167.056-.307.169-.42a.57.57 0 0 1 .42-.168h6.093l-1.508-1.508a.58.58 0 0 1 0-.814.565.565 0 0 1 .413-.189.563.563 0 0 1 .425.177l2.426 2.426a.68.68 0 0 1 .213.496.68.68 0 0 1-.213.496l-2.426 2.426a.56.56 0 0 1-.415.173.588.588 0 0 1-.423-.185.573.573 0 0 1-.165-.419.576.576 0 0 1 .177-.407l1.496-1.496z" fill="#1C1B1F"/>
    </g>
</svg>
