<svg width="18" height="18" viewBox="0 0 18 18" fill="none" xmlns="http://www.w3.org/2000/svg">
    <mask id="8dnwq54wba" style="mask-type:alpha" maskUnits="userSpaceOnUse" x="1" y="1" width="16" height="16">
        <path fill="#D9D9D9" d="M1 1h16v16H1z"/>
    </mask>
    <g mask="url(#8dnwq54wba)">
        <path d="M13.293 15.334c-1.256 0-2.518-.293-3.786-.877-1.268-.584-2.433-1.408-3.495-2.472-1.062-1.064-1.885-2.23-2.469-3.495-.584-1.266-.876-2.527-.876-3.783a.688.688 0 0 1 .7-.707H5.54c.168 0 .317.055.445.165.13.11.211.246.246.407l.382 1.962c.027.182.021.338-.017.469a.698.698 0 0 1-.202.33L4.855 8.83c.248.454.531.883.85 1.288.318.405.662.791 1.033 1.16a11.476 11.476 0 0 0 2.502 1.895l1.496-1.51a.847.847 0 0 1 .379-.228c.148-.043.302-.054.462-.032l1.851.377c.168.045.306.13.412.258.107.127.16.272.16.433v2.162a.688.688 0 0 1-.707.7zM4.383 7.885l1.19-1.139a.12.12 0 0 0 .041-.07.156.156 0 0 0-.003-.083l-.29-1.49a.138.138 0 0 0-.044-.077A.13.13 0 0 0 5.192 5H3.767a.087.087 0 0 0-.09.09 8.511 8.511 0 0 0 .705 2.795zm5.8 5.761c.442.206.903.364 1.383.473.48.109.928.174 1.345.194a.087.087 0 0 0 .09-.09v-1.402a.13.13 0 0 0-.026-.083.137.137 0 0 0-.076-.045l-1.4-.285a.106.106 0 0 0-.068-.003.167.167 0 0 0-.06.042l-1.188 1.2zM12.168 9a3.054 3.054 0 0 1-2.241-.926A3.05 3.05 0 0 1 9 5.834c0-.875.309-1.622.926-2.24a3.05 3.05 0 0 1 2.24-.927c.875 0 1.622.309 2.24.926a3.05 3.05 0 0 1 .927 2.24c0 .876-.308 1.622-.926 2.24a3.05 3.05 0 0 1-2.24.927zm-.001-1.205c.078 0 .147-.03.206-.088a.283.283 0 0 0 .088-.207V5.564a.283.283 0 0 0-.088-.206.283.283 0 0 0-.413 0 .283.283 0 0 0-.088.206V7.5c0 .079.03.148.088.207a.283.283 0 0 0 .207.088zm0-3.23a.32.32 0 0 0 .233-.1.32.32 0 0 0 0-.467.32.32 0 0 0-.467 0 .32.32 0 0 0-.1.233.32.32 0 0 0 .1.233.32.32 0 0 0 .234.1z" fill="gray"/>
    </g>
</svg>
