<svg width="18" height="18" viewBox="0 0 18 18" fill="none" xmlns="http://www.w3.org/2000/svg">
    <mask id="7zu194f23a" style="mask-type:alpha" maskUnits="userSpaceOnUse" x="0" y="0" width="18" height="18">
        <path fill="#D9D9D9" d="M0 0h18v18H0z"/>
    </mask>
    <g mask="url(#7zu194f23a)">
        <path d="M9 11.213a.831.831 0 0 1-.281-.047.659.659 0 0 1-.244-.16l-3.45-3.45a.733.733 0 0 1-.216-.515.698.698 0 0 1 .216-.535.711.711 0 0 1 .525-.206c.213 0 .388.069.525.206L9 9.413l2.925-2.907a.733.733 0 0 1 .516-.215.698.698 0 0 1 .534.215.711.711 0 0 1 .206.525.711.711 0 0 1-.206.525l-3.45 3.45a.659.659 0 0 1-.244.16.831.831 0 0 1-.28.046z" fill="#1C1B1F"/>
    </g>
</svg>
