<svg width="24" height="24" viewBox="0 0 24 24" fill="none" xmlns="http://www.w3.org/2000/svg">
    <path d="M16.893 1.2H7.11a5.915 5.915 0 0 0-5.908 5.908v9.784A5.914 5.914 0 0 0 7.11 22.8h9.784a5.914 5.914 0 0 0 5.908-5.908V7.108A5.915 5.915 0 0 0 16.893 1.2zm4.391 15.692c0 2.42-1.97 4.39-4.39 4.39H7.11a4.396 4.396 0 0 1-4.391-4.39V7.108c0-2.421 1.97-4.391 4.39-4.391h9.785c2.42 0 4.39 1.97 4.39 4.39v9.785z" fill="#926100" stroke="#926100" stroke-width=".267"/>
    <path d="M12 6.033A5.973 5.973 0 0 0 6.034 12 5.973 5.973 0 0 0 12 17.966 5.973 5.973 0 0 0 17.967 12 5.973 5.973 0 0 0 12 6.033zm0 10.416A4.454 4.454 0 0 1 7.551 12a4.455 4.455 0 0 1 4.45-4.448A4.454 4.454 0 0 1 16.448 12 4.454 4.454 0 0 1 12 16.45zM17.973 3.962a1.859 1.859 0 0 0-1.857 1.857c0 1.024.832 1.857 1.857 1.857a1.86 1.86 0 0 0 1.857-1.857 1.859 1.859 0 0 0-1.857-1.857zm0 2.196a.34.34 0 1 1 0-.68.34.34 0 0 1 0 .68z" fill="#926100" stroke="#926100" stroke-width=".267"/>
</svg>
