<svg width="18" height="18" viewBox="0 0 18 18" fill="none" xmlns="http://www.w3.org/2000/svg">
    <g clip-path="url(#zole1twf9a)" fill="#CD6F00" stroke="#CD6F00" stroke-width=".2">
        <path d="M12.67.9H5.332A4.436 4.436 0 0 0 .901 5.332v7.337A4.436 4.436 0 0 0 5.332 17.1h7.338a4.436 4.436 0 0 0 4.43-4.43V5.331A4.436 4.436 0 0 0 12.67.9zm3.293 11.77a3.297 3.297 0 0 1-3.293 3.293H5.332a3.297 3.297 0 0 1-3.293-3.293V5.331a3.297 3.297 0 0 1 3.293-3.294h7.338a3.297 3.297 0 0 1 3.293 3.294v7.337z"/>
        <path d="M9 4.525A4.48 4.48 0 0 0 4.525 9 4.48 4.48 0 0 0 9 13.475 4.48 4.48 0 0 0 13.475 9 4.48 4.48 0 0 0 9 4.525zm0 7.812A3.34 3.34 0 0 1 5.663 9 3.34 3.34 0 0 1 9 5.663 3.34 3.34 0 0 1 12.337 9 3.34 3.34 0 0 1 9 12.337zM13.479 2.973c-.768 0-1.393.624-1.393 1.392 0 .769.625 1.393 1.393 1.393s1.393-.624 1.393-1.393c0-.768-.625-1.392-1.393-1.392zm0 1.647a.255.255 0 1 1 0-.51.255.255 0 0 1 0 .51z"/>
    </g>
    <defs>
        <clipPath id="zole1twf9a">
            <path fill="#fff" d="M0 0h18v18H0z"/>
        </clipPath>
    </defs>
</svg>
