<svg width="20" height="20" viewBox="0 0 20 20" fill="none" xmlns="http://www.w3.org/2000/svg">
    <mask id="9qnujrwzea" style="mask-type:alpha" maskUnits="userSpaceOnUse" x="0" y="0" width="20" height="20">
        <path fill="#D9D9D9" d="M0 0h20v20H0z"/>
    </mask>
    <g mask="url(#9qnujrwzea)">
        <path d="M3.333 16.667c-.458 0-.85-.163-1.177-.49A1.605 1.605 0 0 1 1.666 15V5c0-.458.164-.85.49-1.177.326-.326.719-.49 1.177-.49h13.334c.458 0 .85.164 1.177.49.326.326.49.719.49 1.177v10c0 .459-.164.85-.49 1.177-.327.327-.72.49-1.178.49H3.333zM10 10.833 3.333 6.668V15h13.334V6.667L10 10.834zm0-1.666L16.666 5H3.333L10 9.167zm-6.667-2.5V5v10-8.333z" fill="#1C1B1F"/>
    </g>
</svg>
