<svg width="21" height="20" viewBox="0 0 21 20" fill="none" xmlns="http://www.w3.org/2000/svg">
    <mask id="oh088gtlwa" style="mask-type:alpha" maskUnits="userSpaceOnUse" x="0" y="0" width="21" height="20">
        <path fill="#D9D9D9" d="M.5 0h20v20H.5z"/>
    </mask>
    <g mask="url(#oh088gtlwa)">
        <path d="M3.833 16.667c-.458 0-.85-.164-1.177-.49A1.605 1.605 0 0 1 2.166 15V5c0-.458.164-.85.49-1.177.327-.327.719-.49 1.177-.49h13.334c.458 0 .85.163 1.177.49.326.326.49.719.49 1.177v10c0 .458-.164.85-.49 1.177-.327.326-.719.49-1.177.49H3.833zm13.334-10-6.23 3.895a.87.87 0 0 1-.437.125.867.867 0 0 1-.438-.125L3.833 6.667V15h13.334V6.667zm-6.667 2.5L17.167 5H3.833L10.5 9.167zM3.833 6.875v-1.23.022-.01 1.218z" fill="#fff"/>
    </g>
</svg>
