<svg width="22" height="23" viewBox="0 0 22 23" fill="none" xmlns="http://www.w3.org/2000/svg">
    <path fill-rule="evenodd" clip-rule="evenodd" d="M19.555 11.25a8.556 8.556 0 1 0-17.11 0 8.556 8.556 0 0 0 17.11 0zm-7.28-2.888 2.137 2.138H6.05a.725.725 0 0 0-.534.215.726.726 0 0 0-.216.535c0 .212.072.39.216.534A.726.726 0 0 0 6.05 12h8.363l-2.138 2.137a.687.687 0 0 0-.216.525.764.764 0 0 0 .75.76.698.698 0 0 0 .535-.216l3.431-3.431A.72.72 0 0 0 17 11.25a.72.72 0 0 0-.225-.525l-3.431-3.431a.698.698 0 0 0-.535-.216.765.765 0 0 0-.75.76c-.006.2.066.374.216.524z" fill="#E29808"/>
</svg>
