<svg width="40" height="43" viewBox="0 0 40 43" fill="none" xmlns="http://www.w3.org/2000/svg">
    <path d="M19.474 36.762c1.829-.64 3.841-1.463 5-2.164 2.53-1.525 4.237-2.836 5.945-4.604 1.158-1.22 2.317-3.293 2.53-5.366.183-1.555-.213-3.811-.945-5.58-.58-1.432-1.433-3.262-1.372-4.176a3.606 3.606 0 0 1 1.707-2.866l.305-.152c-.548-.092-1.158.03-1.555.365-.579.458-1.341 1.19-2.347 1.28-.915.092-1.707-.213-2.073-.761-.183-.275-.092-.366.183-.183.457.305 1.28.579 1.95.457.824-.152 1.281-.488 2.105-.976.64-.365 1.372-.457 1.981-.274.183-.081.366-.142.549-.183a3.379 3.379 0 0 0-1.128-.335c-.915-.092-1.707.64-2.409.884a2.476 2.476 0 0 1-2.256-.305c-.64-.427-.975-1.067-.884-1.89.092-.519.64-.915 1.159-.762.488.152.792.61.7 1.067-.06.335-.304.548-.609.548-.183 0-.427-.121-.396-.396.03-.183.305-.213.427-.213s.244-.153.152-.336c-.06-.183-.305-.274-.457-.244-.183.03-.427.214-.427.58 0 .305.396.975.823 1.25.427.244 1.037.457 1.738.213.549-.213 1.555-.884 2.652-.61.366.061.793.275 1.128.519.082 0 .163-.01.244-.03-.487-.672-1.067-.976-2.164-1.25-1.159-.306-2.195-.52-2.897-.946-.731-.427-1.22-.793-1.341-1.646-.092-.885.549-1.372 1.158-1.372.58 0 .915.396 1.007.823.091.396-.122.823-.519 1.036-.122.061-.183-.06-.06-.183.152-.121.182-.396.121-.61-.091-.213-.335-.304-.58-.243-.243.06-.365.366-.273.701.06.427.396.884.884 1.19.488.273 1.555.761 2.5 1.036 1.036.274 1.86.67 2.286 1.463h.275c-.122-.244-.275-.457-.519-.762-.304-.427-.64-.58-1.402-.945-.549-.244-.823-.823-.854-1.22-.03-.396.122-.823.519-.914.305-.092.579.06.64.274.091.305-.061.488-.366.64-.122.061-.213.305-.091.58.152.304.457.457.792.64.549.305 1.159 1.036 1.372 1.707.458 0 .915.122 1.311.335.854.427 1.586 1.342 1.768 2.135.153.7.366 1.585.793 2.134.427.549 1.037 1.372 1.433 2.012-.915-.549-1.982-1.128-2.378-1.372-.366-.213-.945-.427-1.341-.427-.519 0-1.129.214-1.555.214-.366 0-.732-.061-1.128-.275.305.976 1.128 1.86 2.073 2.866 1.463 1.524 3.262 3.994 4.177 6.768.914 2.775.548 7.653-1.708 10.915-2.5 3.567-6.951 5.55-11.097 6.037-5.427.61-11.129-1.372-16.22-5.366 2.957.61 6.433.152 8.964-.732z" fill="#FFCF71"/>
    <path fill-rule="evenodd" clip-rule="evenodd" d="M14.156 33.928c.688.95 1.403 1.937 2.178 2.59-2.317.397-5.458.366-7.47-.64-1.524-.731-2.134-2.042-2.591-3.323a57.675 57.675 0 0 1-.172-.46c-.263-.713-.507-1.374-.834-1.826.67.121 1.554.09 2.5.03 1.372-.091 3.11.305 4.36 1.25.672.505 1.337 1.423 2.03 2.379zm-3.036-1.86c1.402.914 2.104 2.317 1.585 3.11-.549.822-2.104.7-3.506-.245-1.402-.914-2.134-2.317-1.585-3.11.518-.792 2.103-.7 3.506.245zM12.673 29.09a20.4 20.4 0 0 0-.06 1.575c-2.042-.518-4.48-1.464-6.005-3.75-1.006-1.586-.763-3.75-.275-5.183l.105-.313c.297-.883.57-1.69.596-2.4.431.538 1.124 1.03 1.869 1.557l.296.21c1.25.854 2.104 1.464 2.866 3.171.814 1.854.706 3.573.608 5.133zm-1.827-4.889c.884 1.616.854 3.384-.06 3.872-.946.519-2.47-.396-3.324-2.042-.701-1.372-.549-3.659.427-4.086.884-.396 2.073.61 2.957 2.256zM10.758 18.544c-.174.557-.34 1.09-.461 1.602-1.799-.945-4.36-2.47-4.848-5.152-.335-1.86.397-3.354 1.22-4.695.33-.55.724-1.175 1.093-1.759.246-.39.48-.76.675-1.077a15.98 15.98 0 0 0 1.494 2.622c.854 1.19 1.708 2.714 1.677 4.268-.021 1.526-.455 2.92-.85 4.19zm-.37-4.465c.214 1.86-.213 3.262-1.25 3.506-1.036.214-2.377-1.25-2.56-3.11-.214-1.86.67-3.506 1.738-3.566 1.067-.031 1.89 1.31 2.073 3.17zM16.943 12.067c-1.067 1.92-2.439 2.683-3.841 3.354-.397-.915-1.372-3.384-.64-5.427.548-1.403 1.86-2.256 2.957-2.714.302-.133.604-.251.898-.367.449-.176.88-.345 1.266-.547-.126.484-.092 1.114-.06 1.73.015.274.03.546.03.8.03 1.037-.122 2.287-.61 3.171zm-.731-.64c-.61 1.341-1.494 2.134-2.287 1.89-.793-.274-1.128-1.86-.488-3.201.64-1.342 1.982-2.134 2.714-1.708.731.427.7 1.647.06 3.019zM20.458 34.233c.164.362.317.7.48 1.005-1.647.518-3.415.67-5.031-.488-1.128-.792-1.586-1.86-1.951-3.08-.244-.73-.427-2.164-.458-3.292.701.701 1.83 1.159 2.561 1.403 1.098.365 2.287.945 2.957 1.829.671.922 1.082 1.83 1.442 2.623zm-2.47-2.399c1.037.884 1.464 2.073.977 2.652-.519.58-1.738.366-2.775-.518-1.037-.854-1.494-2.043-.976-2.652.488-.58 1.738-.336 2.775.518zM6.266 28.158c.206.535.394 1.024.586 1.409-2.104.152-4.665.152-6.006-1.585C-.038 26.823-.1 25.36.084 24.14c.053-.36.112-.715.17-1.058.073-.442.144-.865.195-1.259.458.427 1.128.793 1.86 1.189 1.067.58 1.951 1.22 2.653 2.317.556.883.955 1.922 1.304 2.83zm-2.25-2.585c.884 1.19 1.098 2.226.488 2.805-.61.58-2.226.092-3.049-1.128-.792-1.25-.731-2.835.03-3.231.61-.305 1.708.457 2.531 1.555zM5.091 22.78c-.055.191-.109.38-.16.567C3.407 22.8 1.03 21.55.694 19.355c-.275-1.555.762-3.019 1.463-3.964a18.832 18.832 0 0 1 1.799-2.012c.05.63.31 1.199.588 1.808l.174.387c.488.976.915 1.89.976 3.201.105 1.522-.265 2.818-.603 4.005zm-.495-4.128c.152 1.494 0 2.44-.793 2.714-.793.305-2.073-.915-2.226-2.409-.152-1.463 1.006-2.896 1.83-2.805.853.122 1.036 1.037 1.189 2.5zM16.577 21.152c-.305 2.165-1.067 3.019-2.256 4.086-1.28-.976-2.591-2.226-2.622-4.39-.03-1.464.854-2.744 1.707-3.567l.184-.183c.535-.533 1.006-1.001 1.28-1.494.107.535.426 1.118.77 1.748l.145.264c.579 1.037 1.006 2.073.792 3.537zm-.914-.335c-.091 1.464-.58 2.53-1.433 2.561-.823.03-1.677-1.28-1.585-2.774.091-1.464 1.036-2.653 1.86-2.53.822.121 1.25 1.25 1.158 2.743zM12.098 8.61c-.437.422-.84.81-1.13 1.17-.854-1.463-1.586-4.055-.702-5.853.61-1.25 1.738-1.921 2.835-2.257.635-.211 1.545-.446 2.313-.644l.34-.087c-.244.579-.549 1.768-.64 2.56-.153 1.007-.397 1.891-.946 2.775-.565.886-1.363 1.655-2.07 2.336zm1.491-3.037c-.731 1.19-1.494 1.83-2.225 1.555-.732-.274-.915-1.83-.214-2.988.701-1.189 2.043-1.799 2.653-1.31.61.487.488 1.585-.214 2.743zM17.043 5.754c-.498.154-.956.295-1.319.46-.091-1.464.366-3.69 1.738-4.726.945-.702 2.073-.763 3.018-.61.67.122 1.585.335 2.317.518-.427.305-1.128 1.098-1.494 1.646-.518.732-1.036 1.281-1.799 1.738-.769.45-1.666.728-2.462.974zm2.279-1.705c-.976.61-1.83.792-2.256.304-.457-.487 0-1.737.976-2.347 1.006-.64 2.256-.58 2.53.03s-.244 1.372-1.25 2.013z" fill="#FFCF71"/>
</svg>
