<svg xmlns="http://www.w3.org/2000/svg" viewBox="0 0 24 24" width="24" height="24">
  <path fill="#607556" d="M12 0C5.373 0 0 5.373 0 12c0 4.86 2.896 9.012 7.043 10.854-.096-.798-.184-2.03.038-2.91.2-.867 1.292-5.513 1.292-5.513s-.329-.666-.329-1.644c0-1.542.896-2.687 2.013-2.687 0.948 0 1.406.713 1.406 1.566 0 .955-.606 2.384-.92 3.712-.263 1.176.554 2.14 1.708 2.14 2.052 0 3.644-2.16 3.644-5.267 0-2.759-1.984-4.695-4.817-4.695-3.3 0-5.267 2.471-5.267 5.013 0 .995.38 2.058.854 2.647.096.114.11.216.083.342-.084.342-.268 1.085-.305 1.237-.05.204-.166.252-.382.155-1.42-.635-2.31-2.668-2.31-4.685 0-3.725 2.713-7.325 7.76-7.325 4.066 0 7.17 2.944 7.17 6.858 0 4.083-2.576 7.36-6.145 7.36-1.197 0-2.324-.62-2.707-1.354 0 0-.61 2.329-.757 2.912-.28 1.076-1.042 2.426-1.559 3.243C8.22 23.37 10.12 24 12 24c6.627 0 12-5.373 12-12S18.627 0 12 0z"/>
</svg>
