<svg width="18" height="18" viewBox="0 0 18 18" fill="none" xmlns="http://www.w3.org/2000/svg">
    <mask id="rpbxykok3a" style="mask-type:luminance" maskUnits="userSpaceOnUse" x="0" y="0" width="18" height="18">
        <path fill="#fff" d="M0 0h18v18H0z"/>
    </mask>
    <g mask="url(#rpbxykok3a)">
        <path fill-rule="evenodd" clip-rule="evenodd" d="M1 8.179C1 4.223 4.224 1 8.181 1c3.958 0 7.184 3.223 7.184 7.179a7.147 7.147 0 0 1-1.578 4.479l2.991 2.99a.8.8 0 0 1-1.131 1.13l-2.992-2.99a7.14 7.14 0 0 1-4.474 1.576C4.224 15.364 1 12.135 1 8.18zm12.766 0A5.571 5.571 0 0 0 8.18 2.596a5.571 5.571 0 0 0-5.586 5.583c0 3.094 2.49 5.59 5.586 5.59a5.576 5.576 0 0 0 5.585-5.59z" fill="#9E9E9E"/>
    </g>
</svg>
