<svg width="102" height="22" viewBox="0 0 102 22" fill="none" xmlns="http://www.w3.org/2000/svg">
    <g clip-path="url(#hy3vadjjxa)" fill="#000">
        <path d="M16.045 0H5.955A5.962 5.962 0 0 0 0 5.955v10.09A5.962 5.962 0 0 0 5.955 22h10.09A5.962 5.962 0 0 0 22 16.045V5.955A5.962 5.962 0 0 0 16.045 0zm4.665 16.045a4.67 4.67 0 0 1-4.665 4.665H5.955a4.67 4.67 0 0 1-4.665-4.665V5.955A4.67 4.67 0 0 1 5.955 1.29h10.09a4.67 4.67 0 0 1 4.665 4.665v10.09z"/>
        <path d="M11 4.984A6.022 6.022 0 0 0 4.984 11 6.022 6.022 0 0 0 11 17.015 6.022 6.022 0 0 0 17.015 11 6.022 6.022 0 0 0 11 4.984zm0 10.742A4.731 4.731 0 0 1 6.274 11 4.731 4.731 0 0 1 11 6.274 4.731 4.731 0 0 1 15.726 11 4.731 4.731 0 0 1 11 15.726zM17.16 2.848a1.78 1.78 0 0 0-1.778 1.778c0 .98.797 1.777 1.777 1.777a1.78 1.78 0 0 0 1.778-1.777 1.78 1.78 0 0 0-1.778-1.778zm0 2.265a.488.488 0 1 1 0-.976.488.488 0 0 1 0 .976z"/>
    </g>
    <g clip-path="url(#9i020rbz6b)">
        <path d="M53.048 9.316 61.062 0h-1.9l-6.958 8.089L46.647 0h-6.41l8.404 12.231L40.236 22h1.9l7.348-8.542L55.354 22h6.41L53.046 9.316zm-2.601 3.023-.852-1.218L42.82 1.43h2.917l5.468 7.82.851 1.219 7.108 10.166h-2.917l-5.8-8.296z" fill="#000"/>
    </g>
    <g clip-path="url(#i4xp5ux07c)" fill-rule="evenodd" clip-rule="evenodd" fill="#000">
        <path d="M94.414 22h1.851A5.738 5.738 0 0 0 102 16.265V5.735A5.738 5.738 0 0 0 96.265 0h-10.53A5.738 5.738 0 0 0 80 5.735v10.53A5.738 5.738 0 0 0 85.735 22h5.547a.47.47 0 0 0 0-.94h-5.547a4.797 4.797 0 0 1-4.795-4.795V5.735A4.797 4.797 0 0 1 85.735.94h10.53a4.797 4.797 0 0 1 4.795 4.795v10.53a4.797 4.797 0 0 1-4.795 4.795h-1.851a.47.47 0 0 0 0 .94z"/>
        <path d="M93.946 9.093v1.781c0 .26.21.47.47.47h2.364l-.329 2.063h-2.035a.47.47 0 0 0-.47.47v7.656a.47.47 0 0 0 .94 0v-7.186h1.967a.471.471 0 0 0 .464-.396l.478-3.003a.47.47 0 0 0-.465-.544h-2.444v-1.4l-.47.47.012-.021.45-.472c-.024-.481.044-.867.406-.899h2.265c.26 0 .47-.21.47-.47V4.826a.47.47 0 0 0-.366-.458c-1.796-.41-3.837-.281-5.191.5-.988.57-1.635 1.468-1.649 2.738v2.797H88.63a.47.47 0 0 0-.47.47v3.002c0 .26.21.471.47.471h2.184v7.187a.47.47 0 0 0 .94 0v-7.658a.47.47 0 0 0-.469-.47H89.1v-2.061h2.184c.26 0 .47-.211.47-.47v-3.26c.013-1.14.764-1.842 1.784-2.21 1.032-.372 2.33-.414 3.54-.194v1.93H95.27a.39.39 0 0 0-.029.001c-.863.053-1.359.76-1.303 1.885 0 .023.004.045.008.066z"/>
    </g>
    <defs>
        <clipPath id="hy3vadjjxa">
            <path fill="#fff" d="M0 0h22v22H0z"/>
        </clipPath>
        <clipPath id="9i020rbz6b">
            <path fill="#fff" transform="translate(40)" d="M0 0h22v22H0z"/>
        </clipPath>
        <clipPath id="i4xp5ux07c">
            <path fill="#fff" transform="translate(80)" d="M0 0h22v22H0z"/>
        </clipPath>
    </defs>
</svg>
