<svg width="20" height="20" viewBox="0 0 20 20" fill="none" xmlns="http://www.w3.org/2000/svg">
    <path d="M12.083 10.625A2.684 2.684 0 0 1 10 9.666a2.725 2.725 0 0 1-2.084.959 2.684 2.684 0 0 1-2.083-.959 2.682 2.682 0 0 1-2.342.942A2.792 2.792 0 0 1 1.041 7.8v-.592c0-.425.067-.847.2-1.25L2.55 2.041a1.458 1.458 0 0 1 1.383-1h12.133a1.458 1.458 0 0 1 1.384 1l1.308 3.917c.133.403.2.825.2 1.25V7.8a2.791 2.791 0 0 1-2.433 2.808 2.667 2.667 0 0 1-2.092-.683 4.164 4.164 0 0 1-.267-.275 2.734 2.734 0 0 1-2.083.975zM3.933 2.29a.217.217 0 0 0-.2.142l-1.3 3.917c-.09.268-.138.55-.142.833v.592A1.533 1.533 0 0 0 3.6 9.34a1.458 1.458 0 0 0 1.608-1.425.625.625 0 1 1 1.25 0 1.391 1.391 0 0 0 1.458 1.459 1.467 1.467 0 0 0 1.459-1.459.625.625 0 0 1 1.25 0 1.393 1.393 0 0 0 1.458 1.459 1.467 1.467 0 0 0 1.458-1.459.625.625 0 1 1 1.25 0 1.459 1.459 0 0 0 1.609 1.45A1.533 1.533 0 0 0 17.708 7.8v-.592a2.728 2.728 0 0 0-.142-.833l-1.3-3.917a.217.217 0 0 0-.2-.142L3.933 2.291z" fill="#926100"/>
    <path d="M16.667 18.958H3.333A1.467 1.467 0 0 1 1.875 17.5V9.566a.625.625 0 0 1 1.25 0V17.5a.208.208 0 0 0 .208.208h13.334a.208.208 0 0 0 .208-.208V9.558a.625.625 0 1 1 1.25 0V17.5a1.467 1.467 0 0 1-1.458 1.458z" fill="#926100"/>
    <path d="M12.916 18.958H7.083a.634.634 0 0 1-.625-.625v-4.167a1.466 1.466 0 0 1 1.458-1.458h4.167a1.466 1.466 0 0 1 1.458 1.458v4.167a.633.633 0 0 1-.625.625zm-5.208-1.25h4.583v-3.542a.208.208 0 0 0-.208-.208H7.916a.209.209 0 0 0-.208.208v3.542z" fill="#926100"/>
</svg>
