<svg width="836" height="495" viewBox="0 0 836 495" fill="none" xmlns="http://www.w3.org/2000/svg">
    <g clip-path="url(#r5ac3zhgua)">
        <path fill="#2C2A1E" d="M0 0h836v495H0z"/>
    </g>
    <g clip-path="url(#44xx22stab)" fill="#FFCF71" fill-opacity=".07">
        <path d="M826.767 116.662c1.57.12 2.834-1.571 2.493-3.032-.318-1.362-1.933-.955-2.284.132-.429 1.362 1.735 1.274 1.339.154-.021-.077-.098-.165-.197-.154-.033.011-.066.011-.099.011-.077 0-.165.044-.187.143-.007.007-.011.014-.011.022-.055.153.154.329.297.219-1 .747-.791-.285-.615-.604.219-.395.626-.494 1.021-.296.791.417.308 1.735-.099 2.229-.758.934-2.01.967-2.91.264-.802-.615-.78-1.735-.626-2.636.044-.253-.341-.362-.385-.11-.285 1.703.275 3.504 2.263 3.658zM820.814 122.263c1.428.659 3.208-.494 3.394-1.988.165-1.384-1.483-1.57-2.185-.67-.879 1.132 1.186 1.802 1.197.604.011-.076-.033-.175-.132-.197a.394.394 0 0 0-.088-.033c-.077-.022-.176-.011-.231.066l-.022.022c-.098.131.033.362.198.307-1.186.363-.637-.538-.362-.78.34-.285.769-.241 1.054.077.604.659-.307 1.736-.857 2.065-1.032.604-2.207.209-2.822-.769-.538-.856-.121-1.9.329-2.691.121-.219-.198-.461-.329-.23-.857 1.504-.945 3.383.856 4.217zM830.381 108.237c1.57-.011 2.691-1.812 2.218-3.24-.439-1.318-2.01-.78-2.262.329-.308 1.395 1.845 1.121 1.34.033-.033-.066-.11-.142-.198-.131a1.371 1.371 0 0 0-.099.022c-.088.011-.164.054-.186.153v.022c-.044.165.175.319.307.209-.923.824-.813-.22-.659-.56.187-.407.582-.549.989-.374.823.341.461 1.692.098 2.219-.67.999-1.911 1.142-2.877.527-.846-.549-.923-1.669-.857-2.581.022-.253-.373-.329-.395-.066-.132 1.714.593 3.46 2.581 3.438zM831.753 98.374c1.538-.33 2.274-2.328 1.527-3.624-.703-1.209-2.131-.363-2.153.768-.022 1.44 2.032.736 1.329-.23-.055-.066-.142-.121-.23-.088-.03.014-.063.03-.099.044a.19.19 0 0 0-.143.186v.022c-.011.165.242.363.352.132-.407.846-1.011.209-.769-.406.175-.418.472-.66.9-.571.868.165.791 1.57.55 2.163-.462 1.11-1.659 1.494-2.724 1.088-.945-.374-1.241-1.45-1.351-2.35-.033-.264-.44-.253-.407.01.22 1.714 1.274 3.273 3.218 2.856zM826.207 79.362c.78 2.02 3.262 2.834 5.119 1.735 1.351-.79 2.394-3.844.703-4.843-1.187-.703-3.504.637-2.362 1.955.45.527 1.23.296 1.45-.308.187-.505-.055-.988-.637-.79-.319.11-.242.845.187.428.066 1.098-1.45.395-.78-.363.124-.212.289-.388.494-.527.604-.472 1.373-.253 1.779.34.528.78.275 1.956-.099 2.735-1.12 2.296-4.623 1.714-5.469-.46-.099-.243-.483-.144-.385.098zM828.338 66.347c-.637 2.065.802 4.261 2.933 4.558 1.548.209 4.261-1.527 3.558-3.372-.483-1.274-3.141-1.68-3.064.066.033.692.791 1 1.34.659.45-.275.527-.857-.077-.967-.264-.044-.384.297-.066.407-.187.714-1.483-.165-.373-.77.227-.087.465-.124.714-.109.757.011 1.23.659 1.175 1.373-.066.945-1 1.702-1.779 2.076-2.307 1.11-4.69-1.516-3.987-3.757.065-.252-.297-.406-.374-.164zM833.654 57.242c-.812 2 .44 4.306 2.548 4.778 1.516.34 4.372-1.164 3.823-3.053-.374-1.318-2.988-1.934-3.054-.187-.033.68.703 1.054 1.274.758.473-.231.604-.802 0-.967-.252-.066-.34.33-.088.396-.34.845-1.526-.473-.318-.791.234-.074.476-.092.725-.055.758.077 1.175.769 1.065 1.472-.154.933-1.142 1.614-1.955 1.922-2.394.9-4.536-1.911-3.657-4.086.088-.242-.264-.428-.363-.187zM826.493-.112c1.45-.384 3.536.253 4.975.56 1.714.352 3.394.824 5.03 1.417 2.615.944 5.13 2.208 7.392 3.811 4.668 3.306 8.051 8.106 9.523 13.63 3.163 11.862-.758 26.459 9.874 35.344.527.44 1.076.85 1.647 1.23-1.351.429-1.428 2.142-.395 2.966.681.55 1.515.12 2.218-.154.923-.351 1.911-.615 2.911-.439a4.126 4.126 0 0 1-1.142-1.944c-.22-.758-.132-1.702-.725-2.306-.967-.989-2.691.373-2.647 1.526-4.668-3.163-7.513-8.16-8.688-13.608-1.461-6.82-.813-13.916-2.186-20.758-1.142-5.668-3.976-10.808-8.435-14.531C841.111 2.689 835.4.58 829.381-.321c-.736-.11-1.504-.285-2.251-.274-.187 0-.769-.033-.868.197-.077.143.055.33.231.286-.253.066.834-.22 0 0z"/>
        <path fill-rule="evenodd" clip-rule="evenodd" d="M807.986 34.54c1.372-2.593 3.844-3.845 6.029-3.043 2.351.857 2.845 2.933 2.296 4.503-.439 1.318-1.724 2.482-3.482 1.922-1.274-.406-1.603-1.219-1.691-1.67-.132-.724.176-1.515.769-1.976.285-.23.538-.308.988-.374.901-.01 1.022.55 1.044.725.065.472-.308.9-.824.967-.505.077-.978-.253-1.044-.725-.011-.066 0-.143.011-.22a1.722 1.722 0 0 0-.549 1.527c.121.626.626 1.11 1.428 1.362 1.494.472 2.526-.55 2.976-1.67.813-2.01-3.218-4.69-4.931-1.834-.703 1.164-.769 3.01-.176 4.613.473 1.274 1.296 2.186 2.263 2.515 1.537.495 4.13.462 6.194-.812 1.944-1.187 3.142-3.218 3.57-6.03.736-4.822-1.065-8.644-2.79-12.346-2.054-4.36-4.173-8.885-2.12-15.036 1.549-4.624 3.471-7.49 8.139-7.435.11 0 .231.01.34.01.934.045 2.065.363 3.306.99.033 0 .066 0 .099.021a12.975 12.975 0 0 0 1.845.9c1.395.561 2.856.99 4.141 1.77 1.175.713 2.285 1.735 3.35 2.635 2.449 2.087 4.635 4.503 6.392 7.205 3.526 5.437 5.228 11.796 5.514 18.232a55.897 55.897 0 0 1-3.053 20.858c-1.121 3.218-2.362 6.524-1.802 9.983.506 3.164 2.164 5.997 3.932 8.611.363-1.296 2.23-1.493 3.01-.472.516.692.252 1.604.121 2.383-.187.989-.121 2.021.252 2.966-.911-.725-2.01-.813-3.108-.978-.791-.11-1.757-.274-2.153-1.054-.56-1.11.165-2.768 1.538-2.592a57.2 57.2 0 0 1-1.12-1.757c-1.791-2.933-3.109-6.118-2.977-9.61.143-3.483 1.626-6.788 2.68-10.062a50.223 50.223 0 0 0 2.153-20.461c-.637-6.228-2.658-12.214-6.382-17.299a33.835 33.835 0 0 0-6.666-6.766c-1.285-.988-2.285-1.658-3.834-2.317-.428-.187-.878-.363-1.329-.55 1.692 1.319 3.427 3.12 4.976 5.448 2.735 4.12 6.645 12.796 2.219 24.592-2.395 6.414-6.898 11.313-12.532 13.784a.143.143 0 0 1-.066.033c-.011.01-.022.01-.033.01-.725.32-1.472.594-2.23.825-2.207.67-4.426.944-6.502.834a.18.18 0 0 1-.088 0c-2.57-.142-4.92-.867-6.689-2.152-4.931-3.526-4.909-8.128-3.404-10.984zm14.618 12.4c-.296-.418-.296-1.12-.099-1.571a1.989 1.989 0 0 1-.538-.615 2.031 2.031 0 0 1-1.043-.11 3.407 3.407 0 0 1-.165-.077c-.011.022-.011.044-.033.066-.296.373-.494.835-.461 1.318.033.44.263 1.065.758 1.164.044.011.077.033.11.055.483-.058.973-.135 1.471-.23zm-6.293-3.065c.077 1.208 1.021 2.362 1.922 3.394l.593.033c.527 0 1.065-.022 1.604-.066a1.809 1.809 0 0 1-.253-.285c-1.142.252-2.153-.528-2.197-1.703-.384-.22-.67-.571-.878-.956-.308-.065-.604-.197-.791-.417zm4.064.56v-.01c.011-.012.022-.023.044-.034-.341-.186-.681-.439-.857-.758-.319.495-1.285.736-1.779.725h-.165c.274.396.681.736 1.186.725.461-.01 1.197-.099 1.571-.648zm17.518-21.67c-.099.407-.11 1.549-.165 1.857-.143.735-.318 1.471-.483 2.196a17.116 17.116 0 0 0 3.042-2.208c-.066-.054-.12-.11-.186-.175-.275-.253-.593-.461-.901-.692-.417-.33-.846-.681-1.307-.978zm-17.156-.296c4.372 2.866 10.786 1.91 13.323 1.032 3.46-1.186 5.832-3.372 6.919-4.865a24.102 24.102 0 0 0-2.13-7.348c-1.549 3.69-11.687 11.082-21.209 2.614.395 2.8 1.57 5.316 2.79 7.908l.307.659zm5.942 20.297c.253-.022 1.351-.44 2.021-1.395-.725-.34-1.109-.989-1.186-1.735-.505.68-1.362 1.263-2.164 1.252-.121 0-.241-.011-.351-.022-.198.966.703 1.966 1.68 1.9zm-2.087-1.549c-.714.648-1.581 1.11-2.581.978.308.516.725 1.065 1.318 1.23.67.176 1.505.11 2.032-.703a2.128 2.128 0 0 1-.769-1.505zm1.944-10.62-.197-.045a4.812 4.812 0 0 1-1.044.923c-.428.297-1.032.55-1.439.912 1.494.483 2.933.769 4.273.911-.297-.527-.824-1.032-1.087-1.493-.187-.319-.319-.813-.506-1.209zm.989 1.218c.307.45.824.967 1.076 1.516.033 0 .066.011.099.011.143-.12.286-.296.384-.384.286-.275.605-.494.879-.791.341-.373.615-.802.901-1.23a16.271 16.271 0 0 1-3.921-.264c.153.407.34.791.582 1.143zm.428 3.746c-.439.604-1.109.922-1.812.988 0 .022-.011.033-.011.044v.088c.154.956.692 1.703 1.713 1.922.55.11 1.318.209 1.824-.11.34-.22 1.076-.758.9-1.252v-.066c-.165 0-.329-.01-.494-.043-1.087-.187-1.801-.758-2.12-1.571zm1.12 5.535c.725.165 1.78-.186 2.329-1.054a6.46 6.46 0 0 1 .253-1.01c-.396-.242-.747-.583-.901-.978-.187.23-.428.44-.626.615-.571.483-1.417.472-2.098.373a.206.206 0 0 1-.077-.021c.11.922.253 1.878 1.12 2.075zm4.196-6.546c0-.01.011-.01.011-.022a2.567 2.567 0 0 1-.088-.582 19.872 19.872 0 0 1-4.975.154c-.22 1.527.813 2.79 2.427 2.658 1.241-.088 2.252-1.043 2.625-2.208zm1.142-1.647a137.949 137.949 0 0 0-2.438-2.054c-.209.022-.406.044-.604.055-.45.637-.846 1.329-1.428 1.856-.165.143-.384.396-.626.615a19.157 19.157 0 0 0 5.096-.472zm.462-.143c.252-.692.494-1.395.801-2.076.176-.362.363-.692.572-1.021-1.286.56-2.549.911-3.746 1.11.802.647 1.582 1.317 2.373 1.987zm.461-.11c1.801-.516 3.119-1.219 3.822-1.724-.34-.362-.648-.736-1.021-1.076-.264-.242-.495-.495-.736-.747-.165.087-.33.175-.494.252-.275.407-.539.813-.747 1.252-.308.67-.571 1.362-.824 2.043zm2.164-9.83a17.64 17.64 0 0 1-3.724 1.626l.099.099c.33.33.637.648 1.022.911.56.407 1.416.857 1.911 1.461.219-.923.45-1.845.593-2.768.044-.241.022-.867.099-1.329zm-4.009 1.823c-.615 1.362-1.56 2.549-2.087 3.944 2.043-.198 3.734-.725 5.107-1.395-.285-.33-.769-.66-1.043-.835-.341-.242-.692-.472-1.022-.725-.143-.12-.648-.725-.955-.989zm-.451.011c-1.263.33-2.537.517-3.8.56.341.605.692 1.187 1.022 1.802.263.472.472.988.758 1.45.505-1.351 1.394-2.505 2.02-3.812zm-4.25.583c-.89.944-1.681 2.053-2.449 3.119 1.581.263 3.009.34 4.305.274-.318-.527-.549-1.12-.868-1.647-.329-.582-.67-1.164-.988-1.746zm-.527-.022a16.4 16.4 0 0 1-3.196-.396c.12.429.219.879.318 1.252.165.66.165 1.516.428 2.186.022.01.055.011.088.022.736-1.044 1.516-2.109 2.362-3.064zm-5.064 4.294c.154.879.231 1.79.22 2.724.352-.373.934-.648 1.351-.89.373-.22.802-.538 1.142-.89a15.674 15.674 0 0 1-2.713-.944zm.066 4.789c.165 1.581 3.317 2.724 4.58.856a3.551 3.551 0 0 1-.033-1.087 22.133 22.133 0 0 1-4.426-.977c-.022.384-.055.801-.121 1.208zm2.581 2.888c-.56.868-1.329 1.582-2.427 1.659h-.121c.396.879.89 1.768 2.054 1.636.879-.087 1.735-.714 2.098-1.515.011-.022.022-.033.044-.055-.846-.286-1.395-.9-1.648-1.725zm-2.822 2.065c-.264.55-.824 1.066-1.329 1.285-.33.143-.659.209-1 .198.44.571.989 1.164 1.747 1.087.856-.099 1.482-.505 2.064-1.076a3.062 3.062 0 0 1-.856-.45c-.319-.231-.484-.648-.626-1.044zm-3.185 3.987c.098.527.889.923 1.329 1.054.691.21 1.328.011 1.691-.636l.011-.011c-.527-.297-.923-.77-1.23-1.308-.44.56-1.11.857-1.801.901zm5.557 1.505a2.595 2.595 0 0 1-.154-1.296c-.472.428-1.219.571-1.823.417-.077-.022-.132-.044-.198-.066 0 .022-.003.04-.011.055a1.803 1.803 0 0 1-.834.769c.681 1.076 2.141.89 3.02.12zm.813 1.12c-.253-.187-.472-.472-.637-.747-.78.615-1.867.857-2.713.462-.143.395-.132 1.065.22 1.263a18.574 18.574 0 0 0 3.13-.977zm2.669-1.296c-.264-.12-.494-.33-.692-.527-.308-.319-.483-.681-.67-1.066-.011.012-.011.012-.022.012-.549.208-1.076.23-1.626.033l-.066-.023c-.241.473-.241 1.033-.054 1.538.131.34.549 1.175 1.032 1.099.714-.319 1.417-.67 2.098-1.066zm1.526-.966c-.746-.187-1.34-1.12-1.515-1.846-.352.33-.637.747-1.033 1.033.154.307.286.626.539.879.252.263.593.604.977.615.351-.22.703-.44 1.032-.681zm1.571-1.198c-.494-.428-.659-1.065-.637-1.724-.472.593-1.34.956-2.087.857.121.648.703 1.702 1.45 1.702.055 0 .099.022.132.055.384-.285.769-.582 1.142-.89zm2.922-2.943c-.824.307-1.857.143-2.647-.143-.077-.022-.154-.055-.231-.088-.297.879-.571 2.274.264 2.91a22.434 22.434 0 0 0 2.614-2.68zm.483-3.13a3.336 3.336 0 0 1-.659-.198 2.418 2.418 0 0 1-1.208-1.076c-.473 1.043-1.428 1.9-2.548 2.086 0 0 0 .011.011.011.076 1.01 1.109 1.736 1.768 1.9.802.187 1.834.341 2.515-.252-.187-.813-.055-1.659.11-2.46 0 0 0-.011.011-.011zm1.768-.088c-.417.165-.911.198-1.384.154v.054c-.143.681-.274 1.406-.153 2.098a22.52 22.52 0 0 0 1.537-2.306zm2.087-4.404c-1.109.702-3.075 1.581-5.645 2.042.033.88.582 1.67 1.449 1.955.681.22 1.857.308 2.527-.33a26.164 26.164 0 0 0 1.669-3.668zm1.417-5.009a18.044 18.044 0 0 1-2.878 2.065c.264.275.516.55.791.802.373.351.681.747 1.032 1.098a31.79 31.79 0 0 0 1.055-3.965zm.439-7.15c-.124.19-.271.385-.439.582.154 1.285.022 2.592.154 3.888.095-.095.183-.175.263-.241.121-1.494.121-2.9.022-4.229zM819.705 3.786c.241-.186.615-.296 1.054-.285.051 0 .106.003.165.01.494.023 1.087.187 1.625.451a4.101 4.101 0 0 1 1.209-1.296c1.526-1.043 3.756-1.01 4.821.68.868 1.385.352 3.592-1.526 3.658-.879.022-1.802-.79-1.549-1.724.209-.758 1.614-1.142 1.647-.099-.087-.714-.999-.659-1.329-.165-.395.604.11 1.417.758 1.582 1.67.428 2.263-1.68 1.571-2.823-.78-1.274-2.384-1.395-3.603-.736-1.581.868-2.075 2.636-1.669 4.317.846 3.416 4.942 4.481 7.589 2.262 2.307-1.933 2.768-5.524.813-7.71a13.757 13.757 0 0 0-1.241-.78c.011.011.011.011 0 0-1.351-.758-2.614-1.164-3.624-1.208-3.416-.143-5.338 1.307-6.711 3.866zm-.582 1.22c.011.032.033.087.011.153-.055.143.044.34.109.461.077.143.154.297.253.418.088.099.055.22-.011.296l-.011.022c-.165.176-.373.286-.538.45-.242.275-.33.67-.308 1.022.033.352.121.758.418 1 .219.175.593.186.867.252.11.033.143.121.143.198.011.066 0 .12-.055.176-.582.56-.867 1.68-.022 2.163.473.264 1.34.506 1.791.066.055-.066.12-.077.186-.044.11.022.198.154.132.275v.01c-.384.792-.318 1.901.758 1.978.626.055 1.263-.132 1.702-.604.066-.077.143-.088.209-.044.099.033.165.12.154.242-.253 1.713 1.999 1.438 2.625.34-.022-.23.318-.319.384-.099.015.03.026.059.033.088.209.703 1.109.835 1.736.615.68-.242 1.021-.758 1.065-1.428-.143-.176.055-.406.22-.34.087 0 .164.055.186.153.495.374 1.417.253 1.845-.175.198-.209.297-.45.319-.747.011-.154.088-.604-.077-.714a.169.169 0 0 1-.099-.132c-.077-.143.022-.362.22-.296.593.197 1.538-.022 1.746-.692.209-.692-.044-1.241-.406-1.813-.143-.065-.165-.318.033-.373.516-.154 1.351-.275 1.516-.879a.208.208 0 0 1 .065-.11c-1.405-1.933-2.976-3.47-4.514-4.612.703.834 1.055 1.878 1.099 2.954.131 0 .263-.01.395-.01.549.01 1.087.098 1.505.263.714.274 1.142.757 1.087 1.24-.066.473-.582.835-1.362.934a4.947 4.947 0 0 1-1.538-.088c.484.231.956.528 1.286.857.571.527.779 1.12.549 1.538-.22.417-.835.56-1.593.362-.439-.099-.933-.33-1.384-.615.374.396.681.835.857 1.252.329.692.296 1.34-.077 1.637-.373.307-1.01.197-1.625-.275-.352-.263-.703-.659-1.011-1.098.176.494.275 1.021.275 1.46.011.77-.286 1.34-.747 1.472-.462.11-.978-.23-1.362-.911-.231-.418-.407-.945-.516-1.494a4.906 4.906 0 0 1-.286 1.549c-.275.736-.725 1.153-1.186 1.109-.472-.044-.846-.55-.978-1.318-.077-.44-.066-.966.011-1.483a4.517 4.517 0 0 1-.801 1.263c-.517.56-1.132.78-1.56.539-.439-.242-.571-.89-.352-1.626.121-.417.352-.868.659-1.296-.406.319-.856.582-1.263.725-.724.253-1.373.154-1.636-.264-.264-.417-.088-1.043.461-1.592a4.413 4.413 0 0 1 1.208-.857c-.516.099-1.043.132-1.482.077-.758-.099-1.296-.472-1.351-.945-.055-.472.384-.955 1.098-1.23.417-.164.956-.252 1.494-.274a4.7 4.7 0 0 1-1.417-.539c-.56-.34-.879-.78-.879-1.186-.088.19-.176.388-.263.593zm-1.615 6.842c1.9 1.823 11.95 9.544 20.495-2.318a22.381 22.381 0 0 0-1.033-1.702 14.32 14.32 0 0 0-.384-.56c-.242.55-.879.758-1.45.923.407.68.725 1.57.22 2.295-.352.516-1.011.78-1.637.736.176.56-.077 1.417-.439 1.713-.56.473-1.483.703-2.153.352-.153.834-.747 1.46-1.658 1.614-.681.11-1.395-.066-1.735-.604-.912 1.175-3.087 1.12-3.219-.45a2.41 2.41 0 0 1-2.174.351c-.857-.307-.989-1.175-.791-1.955-.67.21-1.56-.033-2.021-.46-.703-.66-.571-1.67-.022-2.384-.318-.066-.582-.121-.857-.407-.252-.252-.384-.67-.406-1.01a2.68 2.68 0 0 1 .044-.78c-.538 1.67-.78 3.207-.78 4.646zm11.983-.813c-.483.23-.978.374-1.472.45.077.56.253 1.143.494 1.571.275.483.648.78.912.714.264-.066.45-.505.439-1.076.011-.495-.143-1.11-.373-1.659zm-3.811.275c-.143.582-.176 1.219-.088 1.724.099.55.351.956.615.978.263.022.571-.319.78-.846.175-.461.263-1.065.263-1.626a5.377 5.377 0 0 1-1.57-.23zm-3.724-4.767c-.571-.01-1.175.066-1.625.242-.527.197-.868.538-.835.812.033.275.439.517 1 .583.505.076 1.164 0 1.757-.176a5.544 5.544 0 0 1-.231-.89c-.033-.187-.044-.384-.066-.57zm.011-.758c.055-.516.187-1.01.407-1.472-.506-.23-1.033-.373-1.472-.406-.571-.033-1.022.12-1.098.395-.088.275.186.66.67.945.395.253.944.44 1.493.538zm-.966 3.855c-.396.407-.56.857-.407 1.099.154.252.637.285 1.165.098.494-.175 1.076-.549 1.537-1.01.011 0 .022 0 .033-.01a4.952 4.952 0 0 1-.791-1.143c-.593.23-1.164.593-1.537.966zm1.889 2.263c-.165.538-.11 1.021.154 1.164.252.143.692-.055 1.076-.461.351-.385.681-.967.879-1.56a5.208 5.208 0 0 1-1.176-.747c-.011 0-.011.011-.011.022-.439.484-.79 1.077-.922 1.582zm9.577-4.108a6.936 6.936 0 0 1-.736 1.351c.396.297 1 .66 1.604.802.538.132 1.01.066 1.142-.176.132-.23-.066-.67-.472-1.054-.384-.363-.967-.714-1.538-.923zm2.01-.538c.571-.066.978-.297 1.011-.582.033-.275-.308-.615-.824-.813-.472-.187-1.12-.264-1.757-.22a6.589 6.589 0 0 1-.209 1.45c.582.165 1.263.242 1.779.165zm-16.112-.297c.033-.054.044-.11.077-.153.175-.275.428-.429.648-.648a2.302 2.302 0 0 1-.264-.45c-.165.395-.307.812-.461 1.251zm12.905 2.757a5.401 5.401 0 0 1-.67.626 4.508 4.508 0 0 1-.461.33c.296.538.714 1.032 1.109 1.329.45.351.912.472 1.131.285.22-.164.209-.648-.033-1.153-.208-.483-.615-1-1.076-1.417zm8.139 13.685c.285.209.56.418.834.626.059.044.11.096.154.154-.099-1.164 0-2.35-.099-3.514-.549.593-1.285 1.186-2.174 1.768.45.285.867.637 1.285.966zm-16.827 3.592c.176-.527.495-1.022.813-1.439.176-.241.428-.472.571-.736.044-.088.092-.168.143-.241a16.843 16.843 0 0 1-2.933-1.165c.517 1.165 1.011 2.34 1.406 3.58zm2.779 1.175c-.143-.55-.154-1.153-.296-1.691-.132-.517-.253-1.22-.473-1.769-.022-.01-.055-.01-.077-.022-.12.165-.208.363-.34.528-.187.23-.374.46-.538.703-.33.494-.659.977-.769 1.56 0 .01-.011.021-.022.032.879.275 1.713.483 2.515.66zm-3.383 9.995c.037.03.055.073.055.132.011.055.846.164.912.164.417-.01.922-.022 1.307-.241.659-.374 1.098-.956 1.461-1.615v-.044c-1.077-.033-2.142-.593-2.57-1.581-.242 1.219-.627 2.284-1.165 3.185zm-1.856 2.098c.527.12 1.065.154 1.549-.165.417-.286.944-.725 1.076-1.241v-.011c-.395-.011-.824-.088-1.021-.308a7.361 7.361 0 0 1-1.604 1.725zm-2.559 1.285v.022c-.055.867 1.098 1.208 1.79 1.274.769.066 1.615-.176 2.054-.857-.505-.296-.9-.835-1.241-1.285.007-.007.007-.015 0-.022a2.987 2.987 0 0 1-.428-.099 1.804 1.804 0 0 1-.044-.022c-.066.044-.121.1-.198.143a7.247 7.247 0 0 1-1.933.846zm-1.197 1.548c.044.78 1.065.89 1.548.857.264-.01 1.307-.253 1.34-.593a.248.248 0 0 1 .055-.12c-.12-.023-.241-.034-.362-.067-.758-.164-1.713-.56-1.79-1.417-.429.45-.67.901-.791 1.34zm3.591 2.142c-.406.198-.9.264-1.318.23a.909.909 0 0 1-.241-.032c.132.769.802 1.263 1.592 1.131a2.137 2.137 0 0 1-.11-.417 2.147 2.147 0 0 1 .077-.912z"/>
        <path d="M814.906 48.642c11.697 2.394 23.284-6.722 26.733-17.573 2.965-9.347-.066-19.265-5.371-27.151-.22.428-.395.242-.066.736.227.33.447.663.659 1 .432.68.842 1.372 1.23 2.075a36.464 36.464 0 0 1 2.197 4.756c1.164 3.086 1.911 6.337 2.076 9.643.307 6.404-1.801 12.521-5.909 17.42-3.877 4.624-9.336 8.204-15.421 8.907-6.128.703-12.235-1.548-16.628-5.843-4.328-4.25-6.898-10.313-6.36-16.409.978 1.197 2.724.011 2.944-1.22.143-.823-.461-1.559-.846-2.229a4.422 4.422 0 0 1-.45-3.295c-1.241 1.494-4.152 2.395-4.437 4.525-.176 1.373.801 3.548 2.372 2.197-1.175 13.29 7.095 20.374 17.277 22.46zM849.217 169.942a5.995 5.995 0 0 1-1.658 1.79c-.648.461-1.439.736-2.032 1.285-1 .923-.89 3.877 1.032 3.119-2.35 4.866-5.744 9.325-10.236 12.389-5.612 3.823-12.697 5.163-19.265 3.328-6.293-1.757-11.389-6.26-13.311-12.565-2.032-6.688-2.307-13.751.439-20.286 4.47-10.686 14.553-17.858 22.142-26.184 3.735-4.097 7.106-8.578 9.347-13.674 2.142-4.876 3.042-10.072 3.009-15.376-.889-.209-.538 1.35-.549 1.746-.055 1.845-.066 3.789-.384 5.601a35.788 35.788 0 0 1-3.284 9.721c-3.021 5.985-7.546 11.016-12.236 15.728-4.898 4.92-10.17 9.577-14.289 15.2-4.195 5.712-6.612 12.335-6.128 19.485.384 5.579 1.933 11.576 5.963 15.662 4.009 4.064 9.754 6.161 15.421 6.139 10.72-.043 19.221-7.512 23.702-16.771.538 1.955 2.537.286 2.987-.769.341-.78-.153-1.713-.384-2.46-.308-1.011-.428-2.054-.286-3.108-.758 1.241-.197 1.439 0 0z"/>
        <path d="M854.138 151.446c-1.12-.956-4.284-.286-3.031 1.526-4.295-.977-8.644-2.757-11.511-6.227-3.075-3.713-3.679-8.655-3.438-13.323.264-5.052 1.395-10.017 2.241-15.003.78-4.591 1.549-9.918.165-14.685-.363.044-.78.011-.67.297.219.593.538 1.713.67 2.328.252 1.219.34 2.461.34 3.713 0 2.636-.362 5.261-.791 7.853-.845 5.107-2.043 10.181-2.317 15.365-.264 4.745.34 9.775 3.427 13.587 2.921 3.602 7.402 5.458 11.818 6.458-1.835.988.439 2.811 1.713 2.756.824-.032 1.549-.691 2.23-1.065.856-.472 1.768-.78 2.745-.868-1.372-.461-2.361-1.669-3.591-2.712z"/>
        <path d="M803.878 204.219c.165-1.45-2.098-3.701-2.933-1.702-4.81-13.312-6.941-28.194-.714-41.429 6.03-12.84 17.859-21.055 27.316-31.149 3.108-3.328 5.975-6.952 7.952-11.082 2.141-4.47 3.009-9.358 2.647-14.3-.604-.121-.33.626-.308 1.01.037.85.037 1.696 0 2.538a25.823 25.823 0 0 1-.78 5.359c-.801 3.197-2.207 6.195-3.987 8.952-3.69 5.711-8.775 10.39-13.707 15.014-5.118 4.778-10.28 9.588-14.465 15.223-4.085 5.513-7.062 11.763-8.27 18.529-1.9 10.598.362 21.494 3.976 31.489-1.9-1.044-2.263 2.24-1.164 3.185 1.296 1.12 2.811 1.471 3.811 3.009-.472-2.856.439-3.009.626-4.646z"/>
        <path d="M783.428 122.944c-.154.824-.461 1.702-.253 2.537.308 1.252 2.779 2.965 3.152.824 3.328 5.305 8.304 9.5 14.432 11.071 6.733 1.724 13.894.132 19.781-3.372 10.577-6.293 16.541-17.826 17.738-29.82-.45-.219-.483-.12-.56 1.725-.055 1.581-.483 3.119-.857 4.646a39.812 39.812 0 0 1-3.47 9.182c-2.889 5.469-7.139 10.258-12.389 13.553-5.624 3.526-12.477 5.305-19.067 3.976-6.502-1.318-11.818-5.623-15.3-11.17 1.856.538 1.889-2.339.824-3.141-.626-.461-1.45-.615-2.131-1a5.018 5.018 0 0 1-1.845-1.779c.198 1.428.11 1.845-.055 2.768zM854.225 130.578c-.483-1.351-3.35-2.208-3.306-.154-5.92-6.162-3.987-14.498-3.372-22.121.33-4.085-.736-7.589-3.635-10.543-2.625-2.68-6.063-4.58-9.589-5.789-.384.55.802.681 1.176.835.878.352 1.739.747 2.581 1.186 1.702.89 3.328 1.966 4.756 3.251 2.998 2.702 4.612 6.096 4.404 10.16-.22 4.228-1.164 8.38-.923 12.642.22 3.975 1.56 7.754 4.35 10.642-2.23-.186-1.022 2.713.131 3.306.769.407 1.78.176 2.603.143a8.284 8.284 0 0 1 2.845.341c-1.098-.945-1.483-2.395-2.021-3.899zM817.432 198.101c.22 0 .428.088.571.241a.78.78 0 0 1 .242.571.818.818 0 0 1-.242.572c-.297.296-.835.296-1.142 0a.857.857 0 0 1-.231-.572c0-.219.088-.428.231-.571a.817.817 0 0 1 .571-.241zM800.045 166.81c.45.055.747.461.692.901a.805.805 0 0 1-.912.691.798.798 0 0 1-.681-.911.803.803 0 0 1 .791-.692.34.34 0 0 1 .11.011zm-.385 3.229a.802.802 0 0 1 .758.857.792.792 0 0 1-.846.747.8.8 0 0 1-.757-.846.797.797 0 0 1 .801-.758h.044zm.714 4.031a.81.81 0 0 1-.78.835.795.795 0 0 1-.834-.78.818.818 0 0 1 .79-.835h.022c.429 0 .791.351.802.78zm.253 3.174a.797.797 0 0 1-.692.901.822.822 0 0 1-.912-.692h.011a.8.8 0 0 1 .692-.912h.099c.406 0 .747.286.802.703zm.593 3.097a.823.823 0 0 1-.593.978.808.808 0 0 1-.978-.582.808.808 0 0 1 .582-.978c.066-.022.143-.022.198-.022.363 0 .692.242.791.604zm.944 3.01a.802.802 0 0 1-.461 1.043.812.812 0 0 1-1.043-.461.8.8 0 0 1 .461-1.044.806.806 0 0 1 1.043.462zm1.329 2.855a.818.818 0 0 1-.329 1.099.802.802 0 0 1-1.087-.33.789.789 0 0 1 .318-1.087.803.803 0 0 1 .385-.099.83.83 0 0 1 .713.417zm1.681 2.658a.805.805 0 0 1-.165 1.121.817.817 0 0 1-1.131-.165.807.807 0 0 1 .176-1.131.756.756 0 0 1 .472-.154.78.78 0 0 1 .648.329zm2.032 2.406a.803.803 0 0 1-.033 1.142.813.813 0 0 1-1.142-.022.801.801 0 0 1 .033-1.142.822.822 0 0 1 1.142.022zm2.306 2.152a.804.804 0 0 1 .121 1.132.815.815 0 0 1-1.142.109.81.81 0 0 1-.11-1.131.81.81 0 0 1 .626-.296.8.8 0 0 1 .505.186zm2.57 1.857a.82.82 0 0 1 .231 1.12.8.8 0 0 1-1.109.241.813.813 0 0 1-.242-1.12.8.8 0 0 1 .681-.362c.154 0 .297.044.439.121zm2.746 1.581c.396.209.56.692.352 1.087a.792.792 0 0 1-1.077.352.791.791 0 0 1-.351-1.076.782.782 0 0 1 .714-.451c.124 0 .245.03.362.088zM800.496 163.582c.208 0 .417.077.571.231.142.154.23.362.23.571a.858.858 0 0 1-.23.571c-.308.297-.846.297-1.143 0a.819.819 0 0 1-.241-.571c0-.209.088-.417.241-.571a.789.789 0 0 1 .572-.231zM820.792 178.42c.209 0 .418.077.561.231a.817.817 0 0 1 .241.571.8.8 0 0 1-.241.571c-.286.297-.835.308-1.132 0a.8.8 0 0 1-.241-.571c0-.209.088-.418.23-.571a.862.862 0 0 1 .582-.231zM824.275 156.827a.809.809 0 0 1 .176 1.131.805.805 0 1 1-1.296-.955.775.775 0 0 1 .648-.33.76.76 0 0 1 .472.154zm-1.933 2.713a.792.792 0 0 1 .23 1.12.808.808 0 0 1-1.34-.9.807.807 0 0 1 .67-.363c.154 0 .308.044.44.143zm-1.802 2.79c.385.23.517.724.286 1.109a.818.818 0 0 1-1.109.285.805.805 0 0 1-.275-1.109.799.799 0 0 1 .692-.395c.132 0 .286.033.406.11zm-1.647 2.888a.814.814 0 0 1 .351 1.088.822.822 0 0 1-1.087.351.813.813 0 0 1-.351-1.087.799.799 0 0 1 .725-.44c.12 0 .241.022.362.088zm-1.45 2.999a.803.803 0 0 1 .462 1.043h-.011a.803.803 0 1 1-1.494-.593.803.803 0 0 1 .747-.516c.102.007.201.029.296.066zm-1.109 3.13a.798.798 0 0 1 .615.955.805.805 0 0 1-.956.626.81.81 0 0 1-.615-.955.806.806 0 0 1 .78-.648c.059 0 .117.007.176.022zm.461 3.954a.807.807 0 0 1-.659.933.815.815 0 0 1-.933-.67.813.813 0 0 1 .659-.922c.044-.011.098-.011.131-.011.396 0 .736.274.802.67zm1.329 2.251c.363.253.45.758.198 1.121a.807.807 0 0 1-1.12.197.798.798 0 0 1-.198-1.131.806.806 0 0 1 .659-.34c.154 0 .318.055.461.153zM825.822 154.025a.77.77 0 0 1 .56.242.772.772 0 0 1 .242.56c0 .22-.088.428-.242.582-.296.297-.834.297-1.131 0a.822.822 0 0 1-.242-.582c0-.209.088-.417.242-.56a.78.78 0 0 1 .571-.242zM815.937 137.772c.209 0 .417.088.571.23a.807.807 0 0 1 .231.572.77.77 0 0 1-.231.571c-.307.307-.846.307-1.142 0a.774.774 0 0 1-.242-.56c0-.22.088-.429.242-.583a.837.837 0 0 1 .571-.23zM776.519 136.003a.802.802 0 0 1 .241 1.11.813.813 0 0 1-1.12.241.799.799 0 0 1-.231-1.109.791.791 0 0 1 1.11-.242zm2.691 1.571a.803.803 0 0 1 .34 1.087.813.813 0 0 1-1.087.341.804.804 0 0 1-.341-1.088.818.818 0 0 1 .714-.439c.132 0 .253.033.374.099zm2.822 1.318a.803.803 0 0 1 .44 1.054.805.805 0 0 1-1.055.44.807.807 0 0 1 .319-1.549c.099 0 .197.011.296.055zm31.709.626a.803.803 0 0 1-.494 1.032c.007 0 .007 0 0 0a.805.805 0 0 1-1.022-.494.8.8 0 0 1 .758-1.076.8.8 0 0 1 .758.538zm-28.765.439a.8.8 0 0 1 .516 1.011.808.808 0 0 1-1.01.538.813.813 0 0 1-.517-1.022.792.792 0 0 1 .769-.56c.077 0 .154.011.242.033zm25.734.56a.814.814 0 0 1-.561 1 .812.812 0 0 1-.988-.571.802.802 0 0 1 .56-.989.726.726 0 0 1 .209-.033c.362 0 .681.242.78.593zm-3.087.802a.805.805 0 0 1-.626.956.814.814 0 0 1-.955-.626.805.805 0 0 1 .626-.956.85.85 0 0 1 .165-.022c.373 0 .702.264.79.648zm-19.638-.549c.44.099.703.527.615.967a.824.824 0 0 1-.966.615v-.011a.802.802 0 0 1-.604-.956.798.798 0 0 1 .78-.637.7.7 0 0 1 .175.022zm16.497 1.153a.805.805 0 0 1-.681.912.806.806 0 0 1-.911-.692.805.805 0 0 1 .68-.912h.121c.385 0 .736.286.791.692zm-13.421-.593c.45.055.757.461.692.912a.806.806 0 0 1-.912.681.822.822 0 0 1-.692-.912.823.823 0 0 1 .802-.692c.033 0 .077 0 .11.011zm10.258.989a.804.804 0 0 1-.747.867.804.804 0 1 1-.121-1.603h.055c.429 0 .78.318.813.736zm-7.139-.681c.439.033.78.406.758.856a.817.817 0 0 1-.857.758.825.825 0 0 1-.758-.856.805.805 0 0 1 .802-.758h.055zm3.943.878a.793.793 0 0 1-.791.813.793.793 0 0 1-.813-.791.792.792 0 0 1 .791-.812h.011c.439 0 .802.351.802.79zM773.476 134.027c.209 0 .417.077.56.231a.814.814 0 0 1 .242.571.816.816 0 0 1-.242.571.83.83 0 0 1-1.131 0 .798.798 0 0 1-.242-.571c0-.209.088-.418.242-.571a.769.769 0 0 1 .571-.231zM828.941-3.868c.451.022.78.406.747.857a.791.791 0 0 1-.845.746h-.011a.808.808 0 0 1 .055-1.614c.021 0 .043 0 .054.01zm3.241.318a.804.804 0 0 1 .691.901c-.054.44-.472.747-.911.692a.804.804 0 1 1 .22-1.593zm3.207.55a.798.798 0 0 1 .615.955.799.799 0 0 1-.956.615.798.798 0 0 1-.615-.955.81.81 0 0 1 .791-.637c.051 0 .106.007.165.022zm3.152.823c.428.132.67.582.538 1-.143.428-.593.67-1.01.538a.818.818 0 0 1-.539-1.01.825.825 0 0 1 .78-.572.68.68 0 0 1 .231.044zm3.075 1.132a.792.792 0 0 1 .417 1.054.784.784 0 0 1-1.054.417.802.802 0 0 1 .637-1.471zm2.933 1.482c.384.22.516.714.296 1.099a.808.808 0 0 1-1.109.285.794.794 0 0 1-.286-1.098.822.822 0 0 1 .692-.406c.143 0 .286.043.407.12zm2.734 1.835a.805.805 0 1 1-.988 1.274.797.797 0 0 1-.143-1.132.813.813 0 0 1 1.131-.142zm2.461 2.185a.803.803 0 0 1-.011 1.142.79.79 0 0 1-1.132 0 .813.813 0 0 1 0-1.142.808.808 0 0 1 .572-.23c.208 0 .417.076.571.23zm2.163 2.482a.804.804 0 0 1-.142 1.132.818.818 0 0 1-1.143-.143.818.818 0 0 1 .154-1.131.812.812 0 0 1 .494-.165c.242 0 .473.099.637.307zm1.857 2.713a.818.818 0 0 1-.264 1.11.805.805 0 0 1-1.109-.275.805.805 0 0 1 .681-1.23.837.837 0 0 1 .692.395zm1.581 2.867v-.011a.814.814 0 0 1-.362 1.087.815.815 0 0 1-1.088-.362.818.818 0 0 1 .363-1.088.863.863 0 0 1 .362-.076.81.81 0 0 1 .725.45zm1.34 2.954a.8.8 0 0 1-.428 1.055.8.8 0 0 1-1.055-.428.804.804 0 0 1 .429-1.055.8.8 0 0 1 1.054.428zm1.175 3.032a.806.806 0 1 1-1.032-.483.765.765 0 0 1 .275-.055.81.81 0 0 1 .757.538zm1.055 3.042a.806.806 0 1 1-1.528.516.806.806 0 0 1 1.528-.516zm.999 3.053a.822.822 0 0 1-.516 1.022.818.818 0 0 1-1.021-.527.809.809 0 0 1 .516-1.01.682.682 0 0 1 .252-.045.81.81 0 0 1 .769.56zm.989 3.043a.793.793 0 0 1-.505 1.021.811.811 0 0 1-1.022-.505.806.806 0 0 1 1.527-.516zm1.065 2.998a.807.807 0 0 1-.483 1.033.806.806 0 0 1-1.033-.473.802.802 0 0 1 .473-1.032.802.802 0 0 1 1.043.472zm1.175 2.922c.187.417 0 .89-.406 1.065-.417.176-.89 0-1.065-.406a.8.8 0 0 1 .406-1.066.902.902 0 0 1 .329-.076c.308 0 .605.186.736.483zm1.384 2.812a.804.804 0 0 1-.318 1.098c-.385.22-.879.066-1.099-.319a.82.82 0 0 1 .319-1.098.845.845 0 0 1 .395-.099.8.8 0 0 1 .703.418zm1.659 2.614a.795.795 0 0 1-.176 1.12.816.816 0 0 1-1.131-.165.818.818 0 0 1 .175-1.131.792.792 0 0 1 .484-.154c.241 0 .483.11.648.33zm1.988 2.317a.803.803 0 0 1 .011 1.142.813.813 0 0 1-1.143.011.813.813 0 0 1-.011-1.142.816.816 0 0 1 .583-.242.8.8 0 0 1 .56.231zm2.35 1.922a.813.813 0 0 1 .22 1.12.804.804 0 0 1-1.121.22.799.799 0 0 1-.219-1.12.795.795 0 0 1 .67-.352c.154 0 .307.044.45.132zM810.27 71.994c.209 0 .418.088.572.241.153.143.23.352.23.572a.765.765 0 0 1-.23.56.823.823 0 0 1-1.143 0 .775.775 0 0 1-.241-.56.8.8 0 0 1 .241-.572.8.8 0 0 1 .571-.241zM808.91 74.74a.812.812 0 0 1 .329 1.098.805.805 0 1 1-1.417-.769.812.812 0 0 1 .703-.428c.132 0 .264.032.385.098zm-1.373 2.866c.428.12.67.571.538 1a.792.792 0 0 1-1 .538.808.808 0 0 1-.538-1.01v.01a.798.798 0 0 1 .769-.582c.081 0 .158.015.231.044zm-.747 3.075a.803.803 0 1 1-.121 1.604.8.8 0 0 1-.736-.857.796.796 0 0 1 .802-.747h.055zm.835 3.866a.812.812 0 0 1-.703.901.804.804 0 0 1-.901-.703.796.796 0 0 1 .703-.89c.033-.01.066-.01.099-.01.395 0 .747.296.802.702zm.626 2.977a.812.812 0 0 1-.55 1 .815.815 0 0 1-.999-.55.798.798 0 0 1 .549-1 .811.811 0 0 1 1 .55zm1.021 2.9a.795.795 0 0 1-.439 1.054.791.791 0 0 1-1.044-.428v-.011a.803.803 0 0 1 .44-1.055.95.95 0 0 1 .307-.055c.319 0 .615.187.736.494zm1.296 2.844a.787.787 0 0 1-.362 1.076.806.806 0 0 1-1.077-.362.815.815 0 0 1 .363-1.087.86.86 0 0 1 .362-.077c.297 0 .582.165.714.45zm1.45 2.79a.814.814 0 0 1-.33 1.098.808.808 0 0 1-1.087-.33.82.82 0 0 1 .33-1.098.786.786 0 0 1 .384-.087.8.8 0 0 1 .703.417zm1.494 2.812a.8.8 0 0 1-.341 1.087.802.802 0 0 1-1.087-.34.803.803 0 0 1 .714-1.176c.296 0 .571.154.714.429zm1.405 2.91a.802.802 0 0 1-.417 1.055.784.784 0 0 1-1.054-.418v.011a.792.792 0 0 1 .417-1.065.796.796 0 0 1 1.054.417zm1.088 3.13a.805.805 0 0 1-.604.967.81.81 0 0 1-.967-.604.81.81 0 0 1 .791-.989c.362 0 .692.253.78.626zm-.472 2.538c.45.065.746.472.681.911-.077.439-.484.747-.923.67a.8.8 0 0 1-.67-.922.793.793 0 0 1 .791-.681c.044 0 .088.011.121.022z"/>
        <path d="M814.115 110.293c.209 0 .418.088.571.242a.76.76 0 0 1 .231.56.813.813 0 0 1-.231.582c-.307.296-.845.296-1.142 0a.824.824 0 0 1-.242-.582.77.77 0 0 1 .242-.56.818.818 0 0 1 .571-.242zM818.924 35.506c.209 0 .418.088.571.242a.787.787 0 0 1 .231.57.805.805 0 0 1-.231.572c-.296.296-.845.296-1.142 0a.815.815 0 0 1-.241-.571c0-.209.087-.418.241-.572a.818.818 0 0 1 .571-.241zM819.737-1.145a.805.805 0 0 1-1.383.824.805.805 0 0 1 .274-1.11.821.821 0 0 1 .418-.109c.274 0 .538.143.691.395zm-2.723 1.9a.8.8 0 0 1 .066 1.132.792.792 0 0 1-1.132.077.805.805 0 0 1-.077-1.143.838.838 0 0 1 .604-.274c.187 0 .385.066.539.208zm-1.944 2.691a.8.8 0 0 1 .472 1.033.801.801 0 1 1-1.505-.55.8.8 0 0 1 .747-.538c.095 0 .19.019.286.055zm-.857 3.197c.439.032.78.406.758.845a.803.803 0 1 1-1.604-.066.802.802 0 0 1 .802-.78h.044zm.933 4.02a.804.804 0 0 1-.68.911.807.807 0 0 1-.912-.692.789.789 0 0 1 .681-.9.793.793 0 0 1 .911.681zm.648 3.173a.798.798 0 0 1-.582.978.807.807 0 0 1-.977-.582.807.807 0 0 1 .582-.978.626.626 0 0 1 .198-.032c.362 0 .692.241.779.614zm.923 3.142a.821.821 0 0 1-.516 1.021.82.82 0 0 1-1.022-.527.81.81 0 0 1 .517-1.01c.088-.022.164-.044.252-.044a.81.81 0 0 1 .769.56zm1.054 3.141a.787.787 0 0 1-.494 1.021.787.787 0 0 1-1.021-.494.805.805 0 0 1 .494-1.021 1.13 1.13 0 0 1 .264-.055c.34 0 .648.209.757.549zm1.099 3.141a.788.788 0 0 1-.494 1.022.792.792 0 0 1-1.022-.495.792.792 0 0 1 .494-1.021.803.803 0 0 1 1.022.494zm1.032 3.207a.798.798 0 0 1-.549 1 .81.81 0 0 1-.999-.55.81.81 0 0 1 .549-.999c.077-.022.154-.022.23-.022.352 0 .67.22.769.571zm.802 3.328a.825.825 0 0 1-.67.934.798.798 0 0 1-.923-.66.81.81 0 0 1 .659-.933c.044-.01.088-.01.132-.01a.82.82 0 0 1 .802.67zm-.538 2.647c.439.044.769.44.714.879a.803.803 0 0 1-.879.725.802.802 0 0 1 .077-1.604.18.18 0 0 1 .088 0zM835.093 92.344c3.921 1.021 8.204-.395 10.555-3.745 2.328-3.361 1.933-8.161-2.098-10.017-1.736-.79-3.789-.428-5.02 1.076-1.241 1.505-1.109 3.965.923 4.723 1.626.604 3.712-1.702 1.856-2.735a.982.982 0 0 0-1.285.264c-.549.747.626 1.67 1 .824-.253 1.043-1.736.098-1.384-.857.263-.681 1.01-1.01 1.691-.835 2.603.736 1.252 4.086-.824 4.503-2.647.55-4.645-2.46-4.107-4.81.593-2.384 2.767-4.097 5.217-4.163 5.162-.12 8.248 5.788 6.491 10.247-1.966 5.02-8.007 7.81-13.015 5.525 1.889.868 1.999.527 0 0zM814.158 121.385c-2.779 1.658-4.36 4.997-3.47 8.182.406 1.472 1.274 2.746 2.701 3.372 1.384.604 3.328.527 4.449-.582 1.043-1 1.296-3.075.022-4.009-1.022-.758-3.032-.264-2.647 1.296.142.494.571.813 1.109.714.286-.088.516-.275.538-.593.077-.802-1.142-.758-.922-.088-.44-.692.911-.989 1.23-.264.241.539 0 1.132-.484 1.417-1.9.989-2.987-1.614-2.031-3.02 1.032-1.538 3.437-1.296 4.591-.066 1.394 1.494 1.208 3.965-.055 5.47-2.724 3.24-7.996 1.515-9.413-2.065-1.494-3.779.406-8.501 4.382-9.764-1.482.472-1.34.79 0 0z"/>
        <path d="M834.983 92.52c3.713-.066 6.623 3.394 6.447 6.997-.186 3.492-4.239 6.524-7.523 4.448-1.439-.912-2.241-2.823-1.659-4.47.55-1.527 2.702-2.581 4.108-1.461 1.164.912 1.077 3.295-.758 3.207-.45-.055-.867-.318-.966-.791-.231-1.01 1.307-1.164 1.109-.439-.011-1.087-1.669.736-.143.648a.813.813 0 0 0 .703-.824c-.033-1.318-1.724-1.285-2.394-.494-.835.999-.253 2.559.736 3.207 2.724 1.801 5.469-1.373 5.436-3.932-.054-2.965-2.284-5.404-5.096-6.096 1.34.33 1.384-.022 0 0zM814.96 182.023c2.889.703 3.888 4.657 1.757 6.699-1.933 1.857-6.59 1.044-5.854-2.306.538-2.394 4.712-2.23 3.943.165-.208.659-1.032 1.12-1.658.681-.308-.209-.472-.604-.264-.945.264-.417 1.088-.154.78.209.132-.418-.703-.253-.439.121.11.164.373.142.516.066.406-.231.044-.725-.154-.813-.494-.209-1.054.121-1.208.593-.406 1.241 1.12 1.79 2.076 1.658 1.351-.175 2.175-1.351 2.273-2.658.099-1.394-.681-2.658-1.768-3.47.714.538.868.219 0 0zM831.852 128.83c1.527 5.064 2.57 10.643 1.395 15.893-1.109 4.986-4.997 9.039-5.294 14.212-.088 1.977.758 3.987 2.823 4.536 2.328.616 4.69-1.405 5.305-3.547.483-1.714.132-3.866-1.703-4.591-.999-.396-2.383-.275-2.888.802-.385.823-.022 2.13 1.12 1.9-1.153.417-1.724-.934-1.516-1.845.319-1.329 1.747-1.824 2.977-1.648 2.284.308 3.35 2.504 3.262 4.602-.121 2.658-2.054 4.986-4.58 5.722-2.581.758-5.228-.856-6.074-3.339-1.746-5.118 2.625-10.027 4.503-14.399 2.493-5.766 1.769-12.29.67-18.298.44 2.417.714 2.351 0 0zM757.386 151.226a71.905 71.905 0 0 0 13.213 2.251c.077.604.582 1.077 1.197 1.077.571 0 1.054-.407 1.175-.934 1.025.044 2.047.062 3.064.055a1.615 1.615 0 0 0 1.615 1.527c.89 0 1.604-.725 1.604-1.615a76.065 76.065 0 0 0 2.625-.176 2.018 2.018 0 0 0 2.009 1.944 2.022 2.022 0 0 0 2.021-2.02c0-.14-.014-.275-.044-.407.736-.121 1.483-.241 2.219-.384.209-.033.428-.088.648-.132a2.425 2.425 0 0 0 2.35 1.867 2.419 2.419 0 0 0 2.351-2.976 56.503 56.503 0 0 0 1.977-.582 2.83 2.83 0 0 0 2.592 1.702 2.822 2.822 0 0 0 2.823-2.823c0-.263-.044-.516-.11-.747a71.319 71.319 0 0 0 13.257-7.04c-.011.022.516-.34 1.559-1.087-4.668 3.152-9.665 5.799-14.915 7.831a2.803 2.803 0 0 0-2.614-1.779 2.822 2.822 0 0 0-2.823 2.822c0 .275.044.538.11.791-.652.198-1.307.384-1.966.56a2.424 2.424 0 0 0-2.241-1.516 2.417 2.417 0 0 0-2.416 2.417v.165c-.351.076-.714.142-1.076.208a53.91 53.91 0 0 1-1.845.319 2.005 2.005 0 0 0-1.857-1.219c-.999 0-1.823.735-1.977 1.702-.9.077-1.801.143-2.701.198a1.614 1.614 0 0 0-1.571-1.252c-.802 0-1.461.593-1.582 1.373a86.352 86.352 0 0 1-3.053-.033 1.205 1.205 0 0 0-2.405-.099 77.928 77.928 0 0 1-13.213-1.988zM805.789 130.972c.121-1.56.824-3.119 1.604-4.459.12-.22 1.614-2.779 1.911-2.669-.198-.033-.989 2.372-1.044 2.559-.472 1.439-.736 2.922-.856 4.426-.044.528.044 3.142-.583 3.339-.977.297-1.065-2.779-1.032-3.196-.088.945.033-.472 0 0zM800.035 129.556c1.098-1.275 2.581-2.252 3.987-3.131.776-.49 1.57-.948 2.383-1.373.154-.076 1.131-.724 1.307-.648-.308-.109-2.23 2.01-2.449 2.23-1.285 1.241-2.472 2.559-3.625 3.921-.417.494-2.032 2.889-2.768 2.735-1.241-.231.89-3.405 1.165-3.734-.703.823.362-.407 0 0zM797.903 125.042c1.472-.275 2.977-.396 4.459-.593.894-.117 1.783-.242 2.669-.374.132-.011 1.099-.263 1.198-.175-.077-.044-.747.329-.824.362a66.5 66.5 0 0 1-2.395.966c-1.471.561-2.976 1.121-4.514 1.461-.747.154-3.251.692-3.789-.208-.45-.736 2.878-1.384 3.196-1.439-1.834.362.923-.176 0 0zM798.002 121.427c1.373.33 2.735.692 4.129.923.791.132 1.586.242 2.384.33.197.022 1.186-.033 1.329.109-.088-.065-.747.143-.846.154-.688.117-1.38.209-2.076.275-1.548.143-3.141.186-4.679-.044-1.12-.165-2.976-.67-3.492-1.823-.418-.934 2.921 0 3.251.076-.857-.197.417.11 0 0zM800.44 118.793c.78.648 1.538 1.285 2.394 1.845.55.358 1.121.688 1.714.988.099.055.78.275.824.385-.176-.231-1.758-.374-2.065-.462-1.197-.373-2.406-.867-3.427-1.614-.571-.418-1.801-1.505-1.593-2.34.143-.593 1.988 1.066 2.153 1.198-1.01-.802.253.208 0 0zM823.549 184.307c-.22.033-3.339.253-3.361.044.087.143 2.218-.516 2.394-.571a11.2 11.2 0 0 0 3.548-1.801c.395-.286 2.02-1.966 2.581-1.68.812.472-1.099 2.35-1.725 2.789-1.329.923-2.152 1.044-3.437 1.219zM822.33 185.758c-.219-.044-1.746-.396-2.163-.725.417.164 1.845.175 2.196.175.934 0 1.835-.131 2.735-.34.604-.143 1.703-.626 2.318-.407.747.264-.582 1.242-1.791 1.417a8.652 8.652 0 0 1-3.295-.12zM821.375 187.525c-.132-.088-1.823-1.505-1.823-1.494.384.22 1.647.802 1.779.857.824.362 1.68.527 2.57.637.165.022 2.153.209 1.911.615-.307.527-1.526.439-1.999.373-.285-.033-1.713-.505-2.438-.988zM819.243 186.899c.374.615 1.988 1.834 2.307 2.043.153.088 1.12.648.966.945-.165.318-1.164-.297-1.296-.385-.318-.198-1.614-1.691-1.977-2.603zM818.552 188.096c.121.418 1.307 2.812.845 3.01-.23.109-.494-.692-.527-.78-.077-.242-.307-1.406-.318-2.23zM807.558 63.853c.724-.439 8.523-4.261 8.698-3.953-.088-.1-5.788 4.327-6.282 4.678-1.34.956-2.999 2.175-4.69 2.285-.736.044-.593-.527-.264-.956.659-.856 1.626-1.504 2.538-2.053-1.846 1.12 1.845-1.132 0 0zM805.69 60.636c3.174-1.131 6.513-1.922 9.764-2.866.066.098-7.534 4.195-8.336 4.547-1.23.527-3.383 1.405-4.745.89-1.318-.506 2.966-2.45 3.317-2.57-1.076.384 1.065-.385 0 0zM804.351 56.714c3.317-.747 6.842-.89 10.225-1.175-2.636.955-5.272 1.9-7.941 2.724-1.713.527-3.712 1.142-5.502.78-.78-.154-.736-.648-.143-1.055.966-.68 2.218-1.01 3.361-1.274-2.274.516 2.262-.516 0 0zM803.91 52.124c3.13-.11 6.359.373 9.479.703-2.494.406-4.998.79-7.502 1.076-1.691.187-3.613.407-5.239-.209-.637-.241-.714-.67-.066-.977 1-.472 2.23-.56 3.328-.593-2.153.066 2.142-.077 0 0zM803.834 47.357c3.175.538 6.305 1.68 9.369 2.647-2.592-.11-5.206-.23-7.798-.462-1.691-.142-3.537-.34-5.041-1.197-.451-.252-.923-.758-.198-1.01 1.109-.396 2.537-.165 3.668.022-2.174-.363 2.175.362 0 0zM809.809 68.126c2.186-2.23 4.855-4.097 7.326-5.997-1.526 1.999-3.064 3.998-4.679 5.92-1.087 1.307-2.328 2.778-3.921 3.448-.637.264-.977 0-.725-.659.396-1.032 1.231-1.944 1.999-2.712-1.504 1.526 1.494-1.527 0 0zM836.345 4.083c.033 0 .066.022.099.044.12.143 12.235 13.773 11.334 24.932-1.032 12.763-11.433 19.012-15.881 21.681-5.92 3.559-11.236 8.336-13.883 10.874-.044.044-.132.044-.187-.011a.126.126 0 0 1 0-.187c2.658-2.548 7.985-7.337 13.927-10.906 4.415-2.648 14.728-8.853 15.75-21.473.9-11.049-11.137-24.591-11.258-24.723a.14.14 0 0 1 0-.198.16.16 0 0 1 .099-.033z"/>
        <path d="M835.817 3.72c.033 0 .066.011.099.044.121.132 12.06 13.356 10.753 25.251-.945 8.6-6.019 15.42-15.509 20.857-4.646 2.67-9.017 5.569-11.917 7.48-.878.582-1.614 1.065-2.174 1.428-.066.044-.154.022-.187-.044-.044-.066-.022-.143.033-.187.571-.362 1.307-.846 2.175-1.428 2.899-1.91 7.282-4.81 11.938-7.49 9.413-5.382 14.443-12.137 15.377-20.649 1.285-11.774-10.577-24.91-10.687-25.042a.126.126 0 0 1 0-.187.164.164 0 0 1 .099-.032z"/>
        <path d="M835.291 3.346c.033 0 .066.022.099.044.483.538 11.894 13.191 10.17 25.58-1.153 8.282-6.381 15.212-15.135 20.023-6.107 3.36-11.862 6.15-14.322 6.952-.077.022-.154-.01-.176-.088-.022-.066.022-.142.088-.164 2.405-.791 8.281-3.636 14.278-6.93 8.666-4.779 13.861-11.632 15.003-19.837 1.703-12.257-9.632-24.822-10.104-25.349-.055-.055-.055-.143 0-.187a.136.136 0 0 1 .099-.044z"/>
        <path d="M834.763 2.984c.033 0 .066.011.098.044 1.966 2.153 11.687 13.543 9.589 25.888-1.768 10.39-9.006 16.178-14.762 19.21-5.843 3.086-11.993 4.964-14.563 4.975-.077.011-.132-.055-.132-.132 0-.077.055-.132.132-.132 2.537-.022 8.632-1.878 14.432-4.953 5.711-2.998 12.883-8.732 14.629-19.012 2.076-12.224-7.567-23.526-9.533-25.668a.136.136 0 0 1 .011-.187.16.16 0 0 1 .099-.033z"/>
        <path d="M834.236 2.611c.033 0 .066.022.099.044 3.526 3.866 11.456 14.146 9.006 26.217-1.889 9.314-7.864 14.586-12.543 17.364-6.612 3.933-13.915 4.855-16.65 4.02a.144.144 0 0 1-.088-.175.144.144 0 0 1 .176-.088c2.68.823 9.885-.1 16.431-3.998 4.624-2.746 10.544-7.963 12.411-17.178 2.427-11.95-5.448-22.142-8.952-25.975a.15.15 0 0 1 .011-.198.178.178 0 0 1 .099-.033zM802.879 76.43c.308-.483 3.943-3.943 4.02-3.844-.198-.066-1.856 3.548-2.021 3.9-.209.45-.384 1.109-.901 1.306-.812.308-1.581-.626-1.098-1.362-.286.44.132-.22 0 0z"/>
        <path d="M803.878 76.22c.517-.768 1.176-1.47 1.802-2.152a72.817 72.817 0 0 0-1.241 2c-.363.603-1.296 1.24-.561.153-.219.33.11-.165 0 0zM798.453 69.894c1.571-1.055 3.613-1.67 5.349-2.416-.978.966-1.955 1.922-2.955 2.866-.417.396-.823.868-1.307 1.186-1.054.703-2.152-.933-1.087-1.636-.461.307.45-.297 0 0z"/>
        <path d="M799.518 70.114c.824-.55 1.735-1 2.603-1.494-.534.425-1.069.846-1.603 1.263-.253.198-.506.407-.769.583-.736.494-.978.142-.231-.352-.362.23.341-.23 0 0zM795.651 64.294c1.692-.604 3.702-.692 5.47-.977-1.076.626-2.164 1.262-3.251 1.878-.505.285-1.01.604-1.549.834-1.131.495-1.845-1.318-.67-1.735-.494.176.484-.176 0 0z"/>
        <path d="M796.574 64.743c.89-.318 1.823-.527 2.735-.768-.564.256-1.128.508-1.691.757-.297.132-.604.275-.912.385-.791.285-.923-.1-.132-.374-.373.132.374-.142 0 0zM794.652 58.977c1.571-.34 3.383-.186 4.997-.23-1.032.44-2.075.867-3.108 1.285-.494.198-.977.417-1.483.57-1.076.32-1.504-1.383-.406-1.625-.461.1.45-.098 0 0z"/>
        <path d="M795.421 59.483c.834-.176 1.691-.253 2.526-.363-.286.088-3.043 1.054-3.119.681-.044-.187.538-.308.593-.319-.352.077.351-.076 0 0zM794.169 52.553c1.615 0 3.35.527 4.943.813-1.109.22-2.208.417-3.317.615-.516.088-1.044.208-1.571.241-1.109.088-1.175-1.67-.055-1.67-.461 0 .462 0 0 0z"/>
        <path d="M794.817 53.212c.857 0 1.714.11 2.559.176-.296.022-3.207.384-3.207 0 0-.187.593-.176.648-.176-.351 0 .363 0 0 0zM794.433 45.742c1.318.296 2.636 1.054 3.878 1.581-.96-.03-1.915-.07-2.867-.12-.417-.023-.846-.023-1.263-.089-.934-.131-.659-1.581.252-1.372-.373-.088.385.087 0 0z"/>
        <path d="M794.839 46.4c.692.154 1.373.407 2.043.616-.241-.033-2.669-.275-2.603-.594.033-.153.516-.032.56-.022-.285-.066.297.066 0 0zM800.594 82.514c.407-1.197 1.252-2.361 1.867-3.47-.131.911-.263 1.823-.406 2.734-.066.385-.088.802-.22 1.165-.274.801-1.515.373-1.241-.429-.121.34.121-.34 0 0z"/>
        <path d="M801.242 82.196c.22-.626.528-1.24.791-1.845-.055.22-.538 2.471-.813 2.383a.587.587 0 0 1 .022-.538c-.087.275.099-.263 0 0zM793.939 73.936c.977-.867 2.306-1.472 3.415-2.153-.541.71-1.091 1.417-1.647 2.12-.275.34-.538.692-.835 1-.626.659-1.614-.363-.933-.967-.286.242.274-.252 0 0z"/>
        <path d="M794.685 73.98c.506-.45 1.088-.846 1.637-1.252-.165.165-1.736 1.944-1.944 1.713a.594.594 0 0 1 .307-.46c-.219.197.209-.188 0 0zM790.787 67.182c1.088-.571 2.45-.813 3.614-1.175-.67.538-1.351 1.065-2.043 1.592-.319.242-.637.527-.989.714-.724.373-1.307-.758-.582-1.131-.307.165.319-.165 0 0z"/>
        <path d="M791.457 67.402c.571-.296 1.186-.527 1.779-.78-.187.121-2.021 1.373-2.153 1.12a.56.56 0 0 1 .374-.34c-.242.121.241-.132 0 0zM789.381 60.997c1.164-.483 2.581-.626 3.811-.9-.758.505-1.527 1.01-2.296 1.504-.318.198-.648.461-.999.604-.78.33-1.296-.878-.516-1.208-.33.143.34-.143 0 0z"/>
        <path d="M790.051 61.271c.615-.252 1.263-.428 1.889-.637-.198.1-2.186 1.241-2.307.967a.636.636 0 0 1 .418-.33c-.253.11.263-.11 0 0zM789.018 52.904c1.241.032 2.559.483 3.778.746-.89.132-1.779.275-2.669.407-.373.044-.769.142-1.142.131-.835-.021-.791-1.306.033-1.285-.352-.01.362.011 0 0z"/>
        <path d="M789.501 53.42c.659.022 1.307.12 1.955.198-.22.01-2.461.22-2.45-.077a.565.565 0 0 1 .495-.121c-.275-.011.285.01 0 0zM789.523 44.578c1.198.253 2.406.934 3.537 1.406-.89-.022-1.779-.044-2.669-.088-.373-.01-.78 0-1.142-.077-.802-.175-.538-1.427.274-1.24-.351-.078.341.065 0 0z"/>
        <path d="M789.897 45.17c.637.133 1.252.352 1.867.539-.22-.022-2.439-.23-2.384-.516a.581.581 0 0 1 .517-.022c-.264-.066.263.055 0 0zM837.762 93.289c-1.395-.088-2.757-.472-4.042-1.032a12.542 12.542 0 0 1-3.548-2.296c-1.043-.966-1.911-2.13-2.493-3.427a10.306 10.306 0 0 1-.944-4.064c.362 1.34.834 2.615 1.504 3.779a12.645 12.645 0 0 0 2.482 3.119c.967.912 2.087 1.68 3.273 2.328a21.697 21.697 0 0 0 3.768 1.593zM810.237 28.894c-.142.176-.637.66-1.241 1.384a19.868 19.868 0 0 0-1.9 2.647c-.593.978-1.065 2.021-1.296 2.823-.252.813-.285 1.384-.296 1.384.011 0-.077-.56 0-1.44.066-.867.318-2.031.725-3.173a18.83 18.83 0 0 1 1.438-3.163c.495-.88.956-1.516 1.11-1.703.637-.758 1.548-.988 1.889-.582.34.395.132 1.164-.429 1.823z"/>
        <path d="M808.865 29.42c-.22.286-.989 1.285-1.593 2.307a18.86 18.86 0 0 0-1.054 2.02s.34-1.053.867-2.119c.527-1.076 1.23-2.164 1.45-2.45.428-.592.89-.977.967-.9.087.077-.22.571-.637 1.143zM801.847 28.906c-.033.197-.176.823-.275 1.68-.11.857-.165 1.944-.121 3.02.066 2.142.572 4.196.561 4.185.011 0-.912-1.878-1.439-4.064a17.702 17.702 0 0 1-.505-3.185c-.055-.945-.011-1.658.021-1.889.132-.9.692-1.516 1.165-1.406.472.12.703.857.593 1.659z"/>
        <path d="M801.034 29.993c-.022.33-.121 1.494-.066 2.592.044 1.098.209 2.098.209 2.098s-.253-.989-.396-2.076c-.153-1.098-.153-2.306-.131-2.636.043-.68.208-1.208.318-1.186.099.01.11.549.066 1.208zM805.943 28.037c-.077.23-.407.923-.747 1.89a20.073 20.073 0 0 0-.912 3.47c-.461 2.504-.318 5.008-.318 5.008s-.681-2.405-.736-5.085a20.16 20.16 0 0 1 .241-3.833c.165-1.098.407-1.933.495-2.186.384-1.021 1.197-1.592 1.713-1.329.527.264.593 1.175.264 2.065z"/>
        <path d="M804.723 29.103c-.109.374-.527 1.703-.735 2.988-.231 1.285-.286 2.493-.297 2.493.011 0-.044-1.208.077-2.515.099-1.318.406-2.713.516-3.098.231-.768.56-1.34.67-1.296.121.044-.011.67-.231 1.428zM837.542 14.682a.597.597 0 0 1-.044.857.619.619 0 0 1-.857-.044.609.609 0 0 1 .451-1.01c.175 0 .34.066.45.197zm-1.867 1.56a.598.598 0 0 1-.165.835.614.614 0 0 1-.846-.165.614.614 0 0 1 .176-.835.541.541 0 0 1 .33-.11c.197 0 .395.1.505.275zm-14.158.714c.308.132.44.494.308.802-.143.296-.505.428-.802.296a.598.598 0 0 1-.296-.801.6.6 0 0 1 .549-.352c.08 0 .161.018.241.055zm12.082.55a.612.612 0 0 1-.307.8.616.616 0 0 1-.802-.307.612.612 0 0 1 .56-.856c.231 0 .45.131.549.362zm-9.885.263c.319.099.505.439.417.758a.605.605 0 0 1-.757.406.595.595 0 0 1-.407-.747.61.61 0 0 1 .747-.417zm7.623.637a.607.607 0 0 1-.44.736.621.621 0 0 1-.736-.44.62.62 0 0 1 .44-.736c.055-.01.109-.022.153-.022.275 0 .517.187.583.462zm-5.338-.154a.604.604 0 1 1-.67.527.603.603 0 0 1 .593-.538c.022 0 .055.011.077.011zm2.954.637a.595.595 0 0 1-.56.637.589.589 0 0 1-.637-.56.601.601 0 0 1 .56-.637c.011 0 .022-.011.044-.011.308 0 .571.252.593.571zM819.122 15.758c.154 0 .308.066.418.176.121.11.187.274.187.428a.626.626 0 0 1-.176.428c-.231.22-.637.22-.857 0a.597.597 0 0 1-.176-.428.58.58 0 0 1 .176-.428.607.607 0 0 1 .428-.176zM839.002 19.49a.609.609 0 0 1-.076.857.608.608 0 0 1-.78-.934.67.67 0 0 1 .395-.142c.165 0 .341.077.461.22zm-1.812 1.417a.606.606 0 1 1-.834-.197.657.657 0 0 1 .318-.088c.198 0 .395.11.516.285zm-2.01 1.143a.615.615 0 0 1-.329.79.606.606 0 0 1-.791-.329.615.615 0 0 1 .33-.79.607.607 0 0 1 .79.33zm-11.686.033a.59.59 0 0 1 .407.747.595.595 0 0 1-.747.406.6.6 0 0 1-.407-.747.607.607 0 0 1 .571-.44.5.5 0 0 1 .176.034zm9.523.78a.604.604 0 0 1-.44.735.603.603 0 0 1-.725-.45.588.588 0 0 1 .44-.725.644.644 0 0 1 .142-.022c.275 0 .517.187.583.461zm-7.348-.275c.329.055.56.373.494.703a.594.594 0 0 1-.703.483.589.589 0 0 1-.483-.703.6.6 0 0 1 .593-.494c.033 0 .066 0 .099.01zm5.096.747a.612.612 0 0 1-.549.659.604.604 0 0 1-.659-.55.62.62 0 0 1 .549-.658h.055c.307 0 .571.241.604.549zm-2.878-.495c.33.012.594.297.572.627a.594.594 0 0 1-.626.57.594.594 0 0 1-.572-.625.594.594 0 0 1 .593-.572h.033zM821.134 21.294c.164 0 .318.066.428.186a.6.6 0 0 1 0 .846c-.22.23-.626.23-.857 0a.61.61 0 0 1-.175-.428c0-.154.066-.308.175-.418a.612.612 0 0 1 .429-.186zM827.064 67.224c.11 0 .209.033.285.11a.399.399 0 0 1 0 .571.411.411 0 0 1-.571 0 .389.389 0 0 1-.11-.285c0-.11.033-.21.11-.286a.39.39 0 0 1 .286-.11zM822.177 63.072a.407.407 0 0 1-.121.56.394.394 0 0 1-.549-.12.404.404 0 0 1 .11-.56.384.384 0 0 1 .219-.055c.132 0 .264.055.341.175zm1.01 1.307a.401.401 0 0 1-.022.572.393.393 0 0 1-.571-.033.388.388 0 0 1 .033-.56.358.358 0 0 1 .264-.11.39.39 0 0 1 .296.131zm1.208 1.165a.411.411 0 0 1 .044.57.411.411 0 0 1-.571.045.412.412 0 0 1-.044-.571.428.428 0 0 1 .308-.143c.088 0 .187.033.263.099zm1.34.977c.187.121.242.374.121.56a.383.383 0 0 1-.549.121.404.404 0 0 1-.132-.549.41.41 0 0 1 .352-.187c.073 0 .142.019.208.055zM821.012 61.382c.109 0 .219.033.285.11a.399.399 0 0 1 0 .571c-.143.154-.417.154-.571 0a.389.389 0 0 1-.11-.285c0-.11.033-.209.11-.286a.408.408 0 0 1 .286-.11zM829.349 62.788c.109 0 .208.033.285.11a.35.35 0 0 1 .11.285.35.35 0 0 1-.11.285.411.411 0 0 1-.571 0 .38.38 0 0 1-.121-.285c0-.099.044-.209.121-.286a.39.39 0 0 1 .286-.11zM825.713 59.8a.394.394 0 0 1-.132.55.41.41 0 0 1-.56-.133.41.41 0 0 1 .143-.56.455.455 0 0 1 .209-.055c.131 0 .263.066.34.198zm1.021 1.241a.4.4 0 1 1-.549.582.39.39 0 0 1-.022-.56.393.393 0 0 1 .297-.132c.099 0 .198.033.274.11zm1.307.989c.187.12.253.362.132.549a.388.388 0 0 1-.549.132h-.011a.392.392 0 0 1-.121-.55.381.381 0 0 1 .341-.186c.066 0 .143.01.208.055zM824.713 58.01a.42.42 0 0 1 .286.122.392.392 0 0 1 .109.285c0 .11-.033.209-.109.286-.154.153-.429.153-.572 0a.402.402 0 0 1-.12-.286c0-.099.044-.209.12-.285a.382.382 0 0 1 .286-.121zM817.387 65.93c-.153.23-.252.494-.219.736.055.527.538.593.977.516a.968.968 0 0 0-.011.703c.176.428.593.494.989.395-.055.264-.044.539.055.758.099.23.34.352.571.396.307.044.527-.066.769-.187-.066.373-.044.758.23 1.021.231.209.582.231.89.121.022.297.154.571.428.725.275.165.659.11.967-.066a1 1 0 0 0 .417.725c.341.22.769.154 1.121-.066a.539.539 0 0 0 .065.209c.176.318.495.516.857.56.472.055 1.34-.571 1.131-1.11-.098-.241-.483-.131-.395.11.099.242-.417.539-.593.583-.264.076-.571-.143-.659-.374-.055-.143-.022-.285.022-.428.033-.066.055-.121.077-.187.011-.022 0-.033 0-.055.066-.23-.297-.318-.385-.088l-.066.176c-.186.308-.681.55-.977.319-.264-.22-.297-.681-.066-.934.165-.187-.099-.461-.275-.296-.087.021-.164.076-.175.186-.011.176-.319.34-.462.396-.164.055-.351.055-.483-.055-.187-.165-.187-.418-.11-.637a.58.58 0 0 0 .143-.253v-.033c.077-.187-.231-.34-.373-.154a1.108 1.108 0 0 0-.132.253c-.209.187-.615.23-.758-.011-.165-.264-.044-.67.055-.934.066-.175-.121-.274-.264-.23a.198.198 0 0 0-.088.022c-.296.12-.845.538-1.109.132-.143-.22-.055-.605.099-.835.055-.011.099-.055.121-.121h-.011c0-.007.004-.015.011-.022.066-.198-.154-.384-.33-.22l-.011.011c-.219.209-.801.429-.933 0-.088-.263.088-.582.307-.725.187-.131.044-.428-.142-.373a.266.266 0 0 0-.099.022c-.231.132-1.11.44-.989-.12.055-.264.264-.54.494-.704a.381.381 0 0 0 .099-.033c.176-.099.088-.34-.077-.373h-.044c-.043 0-.076 0-.12.022l-.066.044c-.308.12-.857.208-.813-.242.033-.252-.373-.252-.395 0-.055.527.307.714.735.725z"/>
        <path d="M839.903 13.243c-1.703 2.34-9.885 11.983-21.681 3.504 0 0 .648 2.098 1.109 3.108 0 0 11.994 8.139 21.352-3.976l-.78-2.636zM831.402 28.587c.527-1.395 1.472-2.581 2.087-3.943.307.263.813.868.955.988.33.253.681.484 1.022.725.274.176.758.505 1.043.835-1.373.67-3.064 1.197-5.107 1.395zM826.339 28.356c.768-1.065 1.559-2.174 2.449-3.119.318.582.659 1.164.988 1.746.319.528.55 1.12.868 1.648-1.296.066-2.724-.011-4.305-.275zM822.846 27.51c.011-.01.022-.021.022-.032.11-.582.439-1.066.769-1.56.165-.241.351-.472.538-.703.132-.165.22-.362.341-.527.022.011.055.011.076.022.22.55.341 1.252.473 1.768.143.539.154 1.143.296 1.692a29.676 29.676 0 0 1-2.515-.66zM823.197 29.51c.451.208 1.406.614 2.713.944a5.64 5.64 0 0 1-1.142.89c-.417.241-1 .516-1.351.89a14.77 14.77 0 0 0-.22-2.725zM826.943 30.674c1.142.22 2.471.34 3.921.263-.286.429-.56.857-.901 1.23-.274.297-.593.517-.879.791-.098.088-.241.264-.384.385-.033 0-.066-.011-.099-.011-.252-.55-.769-1.066-1.076-1.516a5.321 5.321 0 0 1-.582-1.142zM832.501 30.773c1.197-.198 2.46-.55 3.745-1.11-.209.33-.395.66-.571 1.022-.308.68-.549 1.384-.802 2.076-.791-.67-1.57-1.34-2.372-1.988zM822.967 74.256c0-.638.516-1.154 1.164-1.154.637 0 1.154.516 1.154 1.154 0 .648-.517 1.164-1.154 1.164a1.158 1.158 0 0 1-1.164-1.164zM819.694 73.157c0-.648.516-1.164 1.153-1.164a1.158 1.158 0 1 1 0 2.317 1.153 1.153 0 0 1-1.153-1.153zM817.376 71.488c0-.637.517-1.153 1.154-1.153.648 0 1.164.516 1.164 1.153s-.516 1.164-1.164 1.164a1.163 1.163 0 0 1-1.154-1.164zM815.312 69.27c0-.638.516-1.154 1.153-1.154s1.164.516 1.164 1.153c0 .648-.527 1.164-1.164 1.164a1.155 1.155 0 0 1-1.153-1.164zM825.592 89.226a.7.7 0 0 1 .703-.703c.395 0 .714.307.714.703a.708.708 0 0 1-1.417 0zM823.626 89.478c0-.395.319-.703.703-.703.395 0 .714.308.714.703a.708.708 0 0 1-1.417 0zM821.715 89.424c0-.385.319-.703.703-.703a.7.7 0 0 1 .703.703.703.703 0 0 1-.703.714.71.71 0 0 1-.703-.714zM819.694 89.17a.708.708 0 1 1 1.417.01.708.708 0 0 1-1.417-.01zM817.937 88.72c0-.384.318-.702.703-.702.384 0 .703.318.703.703a.694.694 0 0 1-.703.703.7.7 0 0 1-.703-.703zM816.014 88.172c0-.395.319-.703.714-.703a.7.7 0 0 1 .703.703.708.708 0 0 1-1.417 0zM813.851 87.513a.708.708 0 0 1 1.417 0 .697.697 0 0 1-.714.703.694.694 0 0 1-.703-.703zM812.137 86.754a.708.708 0 1 1 1.416.01.708.708 0 0 1-1.416-.01zM810.424 85.7a.708.708 0 0 1 1.417 0 .703.703 0 0 1-.714.703.701.701 0 0 1-.703-.703zM821.715 92.246c.088 0 .165.055.186.143.791 2.262 2.669 12.29-2.427 20.022a.21.21 0 0 1-.285.066.219.219 0 0 1-.055-.285c5.019-7.59 3.163-17.453 2.394-19.671-.044-.11.011-.22.121-.264a.209.209 0 0 1 .066-.01z"/>
        <path d="M820.452 92.202c.099 0 .176.066.198.154.088.406 2.153 9.973-.154 15.245a.2.2 0 0 1-.263.099.198.198 0 0 1-.11-.264c2.251-5.151.219-14.597.132-14.992a.202.202 0 0 1 .153-.242h.044zM823.33 92.4c.087 0 .175.066.197.154.506 2.032 1.692 12.136-.23 15.168-.055.099-.176.121-.275.066a.21.21 0 0 1-.066-.275c1.856-2.932.615-13.092.176-14.86-.022-.11.044-.22.143-.242a.18.18 0 0 1 .055-.01zM824.79 92.4c.099 0 .187.066.198.176.362 2.372 1.12 7.326.604 10.742a.189.189 0 0 1-.22.164c-.109-.011-.186-.121-.175-.23.505-3.35-.275-8.447-.604-10.621-.022-.11.054-.209.164-.23h.033zM826.547 92.202c.11 0 .198.066.209.175.055.473.132.989.22 1.527.241 1.505.549 3.372.439 5.91-.011.109-.11.208-.209.197a.206.206 0 0 1-.197-.209c.11-2.504-.187-4.35-.429-5.832-.088-.55-.175-1.065-.23-1.549a.198.198 0 0 1 .175-.22h.022z"/>
        <path d="M819.09 92.202c.099 0 .187.066.209.164.022.154.077.429.165.802.45 2 1.504 6.7.735 10.017-.022.099-.131.165-.241.143a.188.188 0 0 1-.143-.242c.747-3.218-.297-7.853-.747-9.83-.088-.384-.143-.67-.176-.824a.216.216 0 0 1 .176-.23h.022zM817.278 91.85c.087 0 .164.045.197.133l.088.252c.483 1.395 1.384 3.976 1.483 7.315 0 .11-.088.209-.198.209a.213.213 0 0 1-.208-.198c-.088-3.284-.978-5.821-1.461-7.194l-.088-.253c-.033-.11.022-.22.121-.252a.206.206 0 0 1 .066-.011zM815.366 91.445c.088 0 .165.055.187.142.088.275.231.648.384 1.088.44 1.197 1.11 2.998 1.439 4.887.022.11-.055.209-.165.23-.098.023-.208-.054-.23-.164-.33-1.856-.978-3.635-1.417-4.81-.165-.45-.308-.835-.396-1.11a.204.204 0 0 1 .143-.252.124.124 0 0 1 .055-.011zM813.456 91.038c.077 0 .142.055.175.12.297.682 1.044 2.725 1.527 4.076l.242.68a.19.19 0 0 1-.11.253.196.196 0 0 1-.264-.12l-.241-.67c-.462-1.264-1.23-3.383-1.516-4.053a.201.201 0 0 1 .099-.264.192.192 0 0 1 .088-.022z"/>
        <path fill-rule="evenodd" clip-rule="evenodd" d="M800.067 111.543c.428-3.789 2.866-7.71 6.205-7.71.077 0 .165.011.264.011 3.141.198 4.635 2.482 4.712 4.514.055 1.637-.846 3.405-2.955 3.68-1.647.219-2.768-.088-3.306-.89-.703-1.022-.154-2.416-.132-2.471l.077-.198.198.088s.615.285 1.252.285c.681 0 1.098-.318 1.285-.966.176-.593.132-1.066-.099-1.384-.351-.461-1.197-.56-2.054-.253-.757.275-1.988 3.24-1.955 5.898.022 1.505.451 3.438 2.351 4.064a7.188 7.188 0 0 0 2.306.363c4.218 0 8.765-3.175 9.391-10.27.297-3.383-1.406-6.074-3.383-9.193-2.328-3.68-4.975-7.853-4.822-14.168.242-10.94 7.173-19.342 16.289-26.755v-.011c4.942-4.02 10.533-7.755 16.057-11.445l3.174-2.13-.911 1.087c-.165.197-16.365 19.56-17.42 29.457-.505 4.755.341 9.544 1.154 14.168.9 5.13 1.845 10.434.867 15.552-2.153 11.478-9.237 18.892-18.034 18.892-1.252 0-2.537-.154-3.833-.451-5.602-1.296-7.118-5.898-6.678-9.764zm27.238-42.747a5.962 5.962 0 0 1-.758-.12l-.801 2.185c.351.088.648.143.845.165.183-.718.421-1.46.714-2.23zm-11.082 2.801c.154-.143.374 0 .341.198-.088.472-.154 1.142.131 1.56.396.57 1.472.691 1.911.098.132-.165.451-.077.374.154-.264.824-.099 2.164.955 2.383.747.165 1.78.11 2.153-.67.088-.186.374-.087.374.1.011 1.02.472 1.823 1.647 1.57.747-.176 1.406-.44 1.889-1.066a.083.083 0 0 1 .044-.021 29.43 29.43 0 0 1 .154-2.79c.029-.322.077-.656.143-1h.011c.036-.227.084-.457.142-.692a9.473 9.473 0 0 1-.274-.055 11.425 11.425 0 0 1-1.142-.285c-.121-.044-.264-.088-.396-.132-.351-.12-.725-.275-1.12-.44a16.163 16.163 0 0 1-1.34-.67h-.011c-.11-.065-.231-.131-.352-.208a11.02 11.02 0 0 1-.878-.582 4.79 4.79 0 0 1-.374-.286 8.288 8.288 0 0 1-.878-.768 10.587 10.587 0 0 1-.297-.308 8.62 8.62 0 0 1-.615-.736c-.08-.117-.157-.234-.231-.351a5.67 5.67 0 0 1-.461-.835 6.158 6.158 0 0 1-.472-1.362c-.205.242-.406.483-.604.725-.125.14-.242.282-.352.428a34.935 34.935 0 0 0-2.592 3.625.46.46 0 0 1-.011.099c-.384 1.01.78 3.657 2.131 2.317zm7.458-1.45.977-2.174a9.195 9.195 0 0 1-.933-.538l-1.198 2.141c.385.209.78.396 1.154.571zm-.297-2.932a12.64 12.64 0 0 1-.988-.802l-1.659 1.966c.461.373.945.703 1.439.989l1.208-2.153zm-2.954.911 1.68-1.988a8.227 8.227 0 0 1-.977-1.142l-1.89 1.89c.352.45.747.867 1.187 1.24zm-1.417-1.581 1.878-1.89a9.07 9.07 0 0 1-.78-1.45l-1.801 1.978c.187.494.417.944.703 1.362zm8.182-6.634c1.263 1.241 3.076 1.68 3.669 1.56 4.129-7.14 9.786-14.312 11.961-16.97l-.868.572c-5.459 3.657-10.994 7.358-15.904 11.334-.22 1.362.154 2.537 1.142 3.504zm-3.47-1.538c.099 1.813 1.164 3.174 2.054 4.01 1.361 1.262 2.899 1.91 3.514 1.954.418-.813.868-1.625 1.329-2.438-.922-.011-2.57-.582-3.712-1.691-.956-.956-1.406-2.131-1.307-3.427-.637.52-1.263 1.05-1.878 1.592zm-1.868 1.67c.11 1.856 1.286 3.35 2.274 4.283 1.439 1.362 3.174 2.208 4.064 2.274.285-.623.589-1.252.911-1.89-.812-.142-2.306-.823-3.602-2.031-.901-.835-1.955-2.186-2.153-3.976-.505.44-.999.89-1.494 1.34zm-1.823 1.79c1.516 5.261 6.261 6.502 7.414 6.59.176-.472.373-.956.582-1.439-1.01-.143-2.724-.988-4.174-2.361-.988-.934-2.141-2.395-2.372-4.229-.494.473-.977.956-1.45 1.439zm-2.054 2.197c.044.249.103.49.176.724l1.779-1.955c-.076-.208-.142-.428-.219-.648a46.224 46.224 0 0 0-1.736 1.879zm7.37 6.732.802-2.185a9.223 9.223 0 0 1-1.131-.429l-.967 2.153c.472.198.912.34 1.296.461zm-15.08 7.875a.105.105 0 0 1 .044.066v.022c.044.055.055.11.044.154.176.725.395 1.329 1.23 1.57.582.176 1.153.176 1.757.176.11-.01.187.088.198.198.099 2.636 3.789 3.636 5.799 2.438.121-.066.242.011.297.121.637 1.57 2.021 2.329 3.701 2.197 1.186-.088 2.702-.56 3.229-1.735.033-.088.099-.11.165-.11-.253-1.615-.472-3.24-.593-4.877-1.516.637-3.251 1.022-4.305-.187-1.351.165-2.021 1.955-1.714 3.142.308 1.164 1.252 2.075 2.504 2.075.582 0 1.263-.11 1.681-.56.56-.615.802-1.67.033-2.262-.747-.571-2.043-.758-2.263.439-.099.582.67 1.527 1.088.769.175-.198.109-.297-.198-.275-.121.066-.319-.01-.308-.175.022-.21.033-.253.209-.374.121-.088.231-.01.264.099.406-.044.67.22.472.758-.297.79-1.197.769-1.714.22-.691-.725.033-1.846.681-2.252.879-.538 2.351.395 2.57 1.285.638 2.482-2.668 3.47-4.316 2.109-.966-.791-1.428-2.175-1.054-3.394.274-.868.9-1.736 1.801-1.966a3.586 3.586 0 0 1-.165-.297c-.944.44-1.944.66-2.943.242-.879-.362-1.165-.912-1.34-1.68a.21.21 0 0 1-.11-.033c-.033.098-.11.175-.253.22-.139.102-.278.208-.417.318a4.834 4.834 0 0 0-.417.373c-.319.319-.637.66-.846 1.066-.56 1.13-.527 2.614.67 3.35.9.56 2.427.691 2.943-.495.286-.703.11-1.504-.582-1.9-.424-.315-.893-.322-1.406-.022-.494.505-.318.714.495.615.142-.22.494-.01.351.198-.373.55-1.142.857-1.516.12-.285-.581.396-1.306.857-1.526 1.538-.703 2.944 1.692 2.043 2.9-1.12 1.493-3.57 1.087-4.338-.583-.879-1.91.395-3.591 1.889-4.69-.593.056-1.208-.186-1.725-.57-.527-.374-.604-1.11-.483-1.736-.428.187-.934.23-1.318.011-.34-.187-.56-.44-.681-.736-.527 1.461-1.955 4.57-.154 5.382 1.154.516 2.362-.55 2.032-1.78-.121-.46-.461-1.032-1.054-.834-.846.286-.253 1.087.099.956.022-.077.077-.143.186-.132h.066c.187.022.264.209.143.351-.857 1.033-1.955-.615-.977-1.384 1.164-.911 2.031.67 1.955 1.67-.121 1.417-1.988 2.416-3.054 1.197-1.274-1.439-.362-3.504.242-5.173a26.143 26.143 0 0 0-1.494 4.931zm-.406 3.065a.18.18 0 0 1 .143.12c.373.989 1.57.813 2.35.418.099-.187.406-.099.373.12.011.045.011.089-.022.133-.285 1.35 1.417 2.526 2.538 2.811 1.208.308 2.669.648 3.789-.066.088-.11.296-.12.351.066.407 1.417 2.548 1.933 3.811 1.911 1.395-.022 2.9-.362 3.812-1.504.011-.011.033-.022.044-.033-.077-.473-.165-.945-.242-1.428-.747 1.307-2.702 1.845-4.097 1.735-1.581-.132-2.702-.867-3.361-2.273-2.262 1.164-5.909.044-6.183-2.691-.901 0-1.747-.066-2.504-.604-.297-.198-.451-.528-.561-.868a27.883 27.883 0 0 0-.241 2.153zm.197 4.722c2.362 1.955 5.613 3.153 8.6 3.702 3.054.549 6.118.944 9.095-.23.01-.012.01 0 .021-.012l-.428-2.493c-.077-.406-.143-.824-.209-1.23-1.087 1.175-2.91 1.582-4.448 1.439-1.263-.121-3.042-.66-3.602-1.933-1.285.714-3.185.395-4.47-.143-1.077-.461-2.384-1.538-2.351-2.8-.868.35-1.911.362-2.438-.407-.011.209-.033.428-.033.637-.033 1.23.055 2.372.22 3.449.011 0 .022.01.043.021zm7.469 22.802-1.472 7.26 9.534-5.712h.022c1.164-2.35 2.054-5.019 2.603-7.973.692-3.68.406-7.36-.154-11.148-1.966.23-3.767.604-5.766.439a38.007 38.007 0 0 1-5.107-.813c-1.725-.395-3.46-.922-5.02-1.78-.428-.24-1.175-.537-1.691-.944.9 3.306 2.559 5.942 4.086 8.348 2.01 3.185 3.745 5.931 3.437 9.445-.087 1-.252 1.922-.483 2.768.011.033.022.077.011.11z"/>
        <path d="M817.992 64.02a57.341 57.341 0 0 1 1.735-1.88c.066.22.132.44.209.649l-1.78 1.955a7.187 7.187 0 0 1-.164-.725zM819.254 66.875l1.878-1.89c.308.43.637.802.978 1.143l-1.681 1.999a7.98 7.98 0 0 1-1.175-1.252zM825.746 70.862l.801-2.186c.286.066.539.099.758.12a20.51 20.51 0 0 0-.714 2.23 6.86 6.86 0 0 1-.845-.164zM822.527 69.576l1.198-2.141c.318.208.626.384.933.538l-.977 2.174a22.46 22.46 0 0 1-1.154-.57zM809.864 81.69a27.12 27.12 0 0 1 .253-2.141c.098.34.263.659.549.868.769.538 1.614.593 2.504.593.285 2.735 3.921 3.855 6.183 2.69.659 1.418 1.78 2.142 3.372 2.274 1.395.121 3.339-.428 4.086-1.724.077.472.165.944.242 1.417a.152.152 0 0 1-.044.033c-.912 1.142-2.417 1.482-3.811 1.504-1.263.022-3.405-.494-3.812-1.91-.055-.176-.263-.176-.351-.067-1.12.714-2.57.374-3.789.066-1.11-.285-2.823-1.46-2.526-2.812a.17.17 0 0 0 .011-.131c.033-.22-.275-.297-.374-.11-.78.384-1.966.56-2.339-.417-.033-.077-.088-.121-.154-.132zM821.857 60.043c.491-.462.989-.912 1.494-1.351.198 1.79 1.263 3.141 2.164 3.987 1.296 1.208 2.779 1.889 3.591 2.02a43.756 43.756 0 0 0-.9 1.89c-.901-.066-2.625-.912-4.064-2.263-.988-.933-2.175-2.438-2.285-4.283zM826.064 56.397c4.899-3.976 10.434-7.678 15.904-11.324l.857-.582c-2.164 2.669-7.831 9.84-11.95 16.969-.604.12-2.416-.319-3.679-1.56-.989-.966-1.362-2.141-1.132-3.503zM812.741 159.431a.188.188 0 0 0-.088-.022.211.211 0 0 0-.186.11c-.121.274-3.109 6.688-2.834 11.06.011.11.099.187.209.187a.225.225 0 0 0 .197-.22c-.274-4.262 2.768-10.786 2.79-10.852a.188.188 0 0 0-.088-.263zM811.401 158.288a.225.225 0 0 0-.099-.021.199.199 0 0 0-.175.109c-.022.044-2.439 4.58-2.834 8.743a.199.199 0 0 0 .176.22c.099 0 .208-.077.219-.187.396-4.075 2.768-8.545 2.801-8.589a.214.214 0 0 0-.088-.275zM814.488 159.903a.191.191 0 0 0-.088-.022c-.077 0-.143.033-.176.099-.022.044-2.24 4.239-2.844 7.457-.022.11.054.209.164.231.11.022.209-.055.231-.165.593-3.152 2.779-7.293 2.801-7.326.055-.098.011-.219-.088-.274zM816.179 160.178a.16.16 0 0 0-.099-.033.208.208 0 0 0-.175.099c-.088.143-2.175 3.614-2.911 6.305a.206.206 0 0 0 .143.241.203.203 0 0 0 .252-.143c.714-2.625 2.845-6.161 2.856-6.194a.188.188 0 0 0-.066-.275zM817.42 160.749a.21.21 0 0 0-.153.077c-.055.077-1.373 1.801-2.186 4.02-.033.11.022.22.121.263.11.033.22-.022.263-.12.78-2.164 2.098-3.899 2.12-3.91a.209.209 0 0 0-.044-.286.165.165 0 0 0-.121-.044zM810.676 157.091a.21.21 0 0 0-.11-.033.23.23 0 0 0-.175.088c-.011.044-2.175 3.504-2.845 6.788a.209.209 0 0 0 .165.241.196.196 0 0 0 .23-.153c.659-3.218 2.779-6.623 2.801-6.656a.206.206 0 0 0-.066-.275zM809.886 155.685a.184.184 0 0 0-.121-.044.206.206 0 0 0-.164.088c-.077.088-1.846 2.416-2.516 5.513-.033.11.044.22.154.242a.197.197 0 0 0 .231-.154c.659-3.009 2.438-5.338 2.449-5.36.066-.088.055-.219-.033-.285z"/>
        <path fill-rule="evenodd" clip-rule="evenodd" d="M805.537 167.602c.121-6.996 2.196-12.872 6.436-18.023.011-.022.011-.033.011-.044l.022.011c1.746-2.12 3.866-4.119 6.359-6.019 10.05-7.644 12.807-14.893 12.829-14.97l.395-1.055v1.132c0 .582.11 1.526.242 2.723.538 4.767 1.439 12.741-2.164 16.75-.307.344-.641.714-.999 1.109-2.274 2.515-5.426 6.019-8.227 9.764l.022.022-.121.121c-2.043 2.746-3.877 5.624-5.03 8.369h.011l-.033.055c-.758 1.813-1.208 3.559-1.219 5.162-.066 7.93 6.085 8.315 6.788 8.326h.142c2.603 0 4.02-1.813 4.273-3.603.208-1.45-.33-3.13-1.955-3.833.241.56.549 1.516.296 2.241a1.236 1.236 0 0 1-.736.747c-1.23.505-2.185.307-2.701-.506-.253-.406-.396-.955-.396-1.559 0-1.428.637-2.955 2.416-2.955.22 0 .454.022.703.066 2.263.428 4.613 2.998 4.273 5.667-.297 2.241-2.559 6.557-8.951 6.228-7.996-.417-12.818-8.589-12.686-15.926zm20.824-30.962c2.021 2.625 4.712 2.175 5.569 1.835.011-2.571-.286-5.097-.506-7.074-.076-.736-.153-1.384-.197-1.922-.604 1.252-2.054 3.899-4.866 7.161zm-1.472 1.615c1.78 2.186 5.13 2.91 6.92 2.867.077-.725.11-1.472.121-2.219-1.088.351-3.79.648-5.843-1.955-.374.425-.773.86-1.198 1.307zm-2.021 2.01c1.725 2.361 4.471 3.635 8.183 3.8.099.011.176.011.242.011.219-.813.373-1.669.472-2.548-1.45.022-5.085-.472-7.15-2.977a62.51 62.51 0 0 1-1.747 1.714zm-2.778 4.569c.823.78 2.504.406 2.526.395l.252-.055-.011.264c-.032.879.165 1.472.594 1.757.768.517 2.064-.066 2.075-.066l.275-.131.011.296c.037.893.289 1.435.758 1.626.9.351 2.372-.648 2.592-.879l.022.011c.055-.077.121-.143.176-.209.834-.922 1.416-2.087 1.812-3.372h-.143c-3.811-.164-6.656-1.493-8.457-3.932a64.179 64.179 0 0 1-2.889 2.472c-.132.823.011 1.438.407 1.823zm-3.207.395c2.35 4.009 6.853 5.14 9.039 5.69.208.055.395.098.549.142.626-.703 1.219-1.373 1.768-1.977-.571.264-1.252.429-1.812.209-.571-.231-.901-.802-.988-1.691-.484.164-1.494.406-2.219-.077-.505-.337-.762-.956-.769-1.856-.549.087-1.856.197-2.636-.55-.428-.406-.615-.999-.571-1.768l-.626.494c-.604.451-1.175.912-1.735 1.384zm-4.427 6.942c.549.67 1.571.582 1.582.582l.242-.022-.022.241c-.099 1.34.175 2.241.834 2.691 1.318.901 3.757-.263 3.79-.274l.428-.198-.154.45c-.22.645-.183 1.062.11 1.253.637.406 2.23-.209 2.856-.802l.033.033c1.361-1.703 2.745-3.295 4.019-4.734-.109-.022-.23-.055-.351-.077-.516-.132-1.219-.308-1.999-.56.406.593.626 1.186.275 1.944-.275.593-.824 1.12-1.494 1.263-1.186.242-2.098-.516-2.362-1.527-.219.824-.582 1.604-1.405 2.032-.758.396-1.758.451-2.406-.208-.878-.912-.714-2.01-.088-2.867-.186.011-.362 0-.505-.077-.604-.308-.911-.956-1.032-1.593-.341-1.746 1.285-2.603 2.768-2.833-.359-.425-.692-.89-1-1.395-1.593 1.373-3.009 2.79-4.24 4.272-.318 1.088-.285 1.9.121 2.406zm6.524-3.932a10.463 10.463 0 0 1-1.087-1s0 .011-.011.011c-1.01.099-2.801.604-2.735 1.933.011.44.121.945.374 1.307.219.308.944.78 1.252.275.055-.088.153-.11.241-.077.473-.373 1.044-.648 1.615-.725-.143-.593-.044-1.252.351-1.724zm-2.636 3.91c-.208.703-.12 1.592.593 1.988.835.461 1.802.132 2.373-.593.472-.615.582-1.318.736-2.054.022-.099.088-.143.164-.143v-.011c-.241 0-.472-.044-.648-.132-.362-.187-.626-.494-.801-.857-.956.088-2.12.846-2.417 1.802zm6.909-1.593a15.748 15.748 0 0 1-1.164-.461c.044.274-.319.604-.495.791-.219.208-.582.362-.966.417-.297 1.208.637 2.735 2.01 2.23.516-.198.999-.604 1.153-1.154.198-.725-.077-1.12-.505-1.68-.033-.044-.033-.088-.033-.143zm-12.895 1.933c-.45 1.285-.296 1.79-.076 1.977.362.33 1.186.055 1.471-.077l.33-.153-.044.362c-.253 1.999.044 3.284.868 3.833 1.362.912 3.789-.461 3.811-.483l.296-.165v.341c.022.812.264 1.318.703 1.482.747.275 1.878-.351 2.329-.768.461-.616.93-1.227 1.406-1.835-.824.396-1.846.593-2.406.231-.274-.176-.538-.549-.384-1.307-.802.308-2.625.879-3.8.066-.736-.505-1.088-1.461-1.022-2.834-.384-.011-1.197-.11-1.691-.736-.374-.472-.505-1.12-.385-1.933a30.125 30.125 0 0 0-1.416 1.988l.01.011zm-4.338 13.268.088-.055 5.129 9.006 3.713-7.369c1.043-2.494 2.646-5.086 4.437-7.59-.582.275-1.263.439-1.812.242-.539-.198-.857-.714-.945-1.527-.725.352-2.669 1.164-3.943.319-.912-.615-1.285-1.922-1.087-3.899-.418.131-1.154.296-1.593-.11-.278-.249-.388-.652-.329-1.208-2.142 3.657-3.339 7.677-3.658 12.191zm-.033.538a26.9 26.9 0 0 0-.055 1.318c-.121 7.15 4.558 15.113 12.312 15.52 6.096.318 8.249-3.757 8.524-5.877.318-2.46-1.846-4.821-3.943-5.217a3.275 3.275 0 0 0-.627-.065c-1.878 0-2.02 1.955-2.02 2.559 0 .45.109 1.933 1.46 1.933.319 0 .681-.077 1.088-.242a.87.87 0 0 0 .505-.516c.318-.879-.461-2.351-.472-2.362l-.231-.428.461.143c2.197.637 2.933 2.691 2.68 4.437-.274 1.966-1.834 3.954-4.668 3.954h-.153c-.736-.022-7.249-.428-7.184-8.732 0-.856.143-1.746.363-2.658l-2.768 5.503-5.272-9.27z"/>
        <path d="M819.287 148.491a13.923 13.923 0 0 0 2.428 1.438c-.066.088-.077.22.033.308-.132-.099-.231.143-.33.242-.165.175-.373.263-.604.34-.472.176-1.01.154-1.395-.198-.549-.516-.615-1.559-.132-2.13zM805.932 167.614c.015-.447.033-.89.055-1.329l5.272 9.269 2.779-5.502a11.451 11.451 0 0 0-.374 2.658c-.065 8.303 6.448 8.71 7.184 8.732h.164c2.834 0 4.383-1.988 4.657-3.954.253-1.747-.483-3.801-2.68-4.438l-.461-.132.231.418c.011.022.79 1.483.472 2.361a.838.838 0 0 1-.505.516c-.407.165-.769.253-1.088.253-1.351 0-1.46-1.494-1.46-1.944 0-.593.153-2.548 2.02-2.548.198-.011.407.011.626.055 2.098.395 4.273 2.757 3.943 5.217-.274 2.12-2.427 6.194-8.523 5.876-7.754-.406-12.433-8.369-12.312-15.508zM810.358 152.489l-.011-.011c.439-.673.912-1.336 1.417-1.988-.121.813.011 1.461.384 1.933.495.626 1.307.725 1.692.736-.066 1.373.285 2.329 1.021 2.834 1.175.813 2.999.241 3.8-.066-.153.758.11 1.131.385 1.307.56.362 1.581.165 2.405-.231-.476.608-.944 1.219-1.406 1.834-.45.418-1.581 1.044-2.328.769-.439-.164-.681-.67-.703-1.482v-.341l-.297.165c-.022.022-2.449 1.395-3.811.483-.824-.549-1.12-1.834-.867-3.833l.043-.363-.329.154c-.286.132-1.109.407-1.472.077-.219-.187-.373-.692.077-1.977z"/>
        <path d="M816.882 145.229c.56-.472 1.131-.933 1.735-1.384l.626-.494c-.043.769.143 1.362.572 1.768.779.747 2.086.637 2.636.55.007.9.263 1.519.768 1.856.725.483 1.736.241 2.219.077.088.889.417 1.46.989 1.691.56.22 1.241.055 1.812-.209-.549.604-1.142 1.274-1.769 1.977-.153-.044-.34-.088-.549-.142-2.185-.55-6.689-1.681-9.039-5.69zM822.868 140.265a66.944 66.944 0 0 0 1.747-1.713c2.064 2.504 5.7 2.998 7.15 2.976a17.11 17.11 0 0 1-.473 2.548c-.066 0-.142 0-.241-.011-3.713-.165-6.458-1.439-8.183-3.8zM826.361 136.64c2.812-3.262 4.272-5.909 4.865-7.161.044.538.121 1.186.198 1.922.22 1.977.516 4.503.505 7.073-.856.341-3.547.791-5.568-1.834zM827.02 146.438c0-.593.483-1.076 1.076-1.076a1.078 1.078 0 0 1 0 2.153 1.086 1.086 0 0 1-1.076-1.077zM824 145.229c0-.593.483-1.076 1.076-1.076a1.078 1.078 0 0 1 0 2.153 1.078 1.078 0 0 1-1.076-1.077zM821.517 143.417a1.078 1.078 0 0 1 2.153 0c0 .593-.483 1.065-1.076 1.065a1.068 1.068 0 0 1-1.077-1.065z"/>
        <path fill-rule="evenodd" clip-rule="evenodd" d="M752.663 130.203c-.088-.45-.154-.988.033-1.427.275-.648.725-.901 1.285-1.066-1.45-.812-2.427-2.943-.999-4.053-.571-1.021-.099-2.031.823-2.723.583-.44 1.89-.725 2.757-.44-.549-1.45.11-3.361 1.867-3.185.176-.999 1.703-1.285 2.549-1.362 1.12-.088 1.823.637 2.053 1.593.945-1.571 3.603-2.977 4.394-.857.955-.022 1.68.461 2.229 1.252.517.725.33 1.714.044 2.526.835-.34 2.274-.538 3.196.253.846.714.89 1.538.44 2.471 1.329.857 1.186 2.889-.121 3.57.692.241 1.307.944 1.461 1.581.274 1.241-.176 1.977-1.241 2.395.648 1.955-1.428 3.437-3.197 2.778.253.594.396 1.143.088 1.868-.142.351-.461.538-.78.703-.823.428-.867.022-1.823.944-.604.571-1.68.956-2.504.604-.549-.241-.813-.637-1.01-1.12-.451.758-1.022 1.45-1.999 1.56-.352.043-.714.076-1.033-.132-.626-.374-.889-.593-1.68-.626-1.637-.044-2.449-1.615-2.043-3.01-.648.363-1.494.549-2.164.297-1.197-.472-1.164-1.186-1.417-2.296-.186-.845-1.032-1.263-1.208-2.098zm11.027 3.768a8.935 8.935 0 0 1 .044-2.351.938.938 0 0 1-.538-.318 1.513 1.513 0 0 1-.274-.571c-.22.351-.605.637-1.055.604-.373-.022-.714-.187-.922-.494-.879.395-1.692 1.438-2.164 2.251-.275.45-.604 1.087-.461 1.648.197.801 1.405 1.636 2.119.911.198-.187.352.011.396.099.648 1.186 3.174.945 3.053-.615-.11-.395-.154-.835-.198-1.164zm-2.789-6.129c.285.934 1.164 1.768 2.196 1.746 1.538-.022 3.35-1.757 2.087-3.273-.56-.659-1.713-1.23-2.438-.428-.56.615-.615 1.845.34 2.142 1.549.472 1.121-1.373.484-1.186-.275.087-.352-.352-.077-.44.9-.263 1.439 1.055.966 1.725-.834 1.175-2.427 0-2.559-1.099-.231-1.889 1.933-2.306 3.185-1.449.429.296.703.702.824 1.142-.055-1.812-2.35-3.548-3.987-1.977-.78.769-1.362 1.977-1.021 3.097zm-.11-2.757c.055.033.11.099.154.176.186-.275.406-.538.659-.769-.22-.252-.637-.747-.945-.791-.231-.033-.505.044-.593.297-.187.527.34.857.725 1.087zm1.351-1.175c.022.044.055.088.077.121a2.89 2.89 0 0 1 1.252-.374c-.033-.549-.33-1.307-1.011-1.01a.778.778 0 0 0-.483.615c-.011.088.077.516.165.648zm4.909.802c-.175-.209-.461-.33-.736-.264-.065.011-.56.264-.692.429.264.351.462.768.583 1.197.011-.011.022-.022.044-.033.527-.143 1.339-.714.801-1.329zm-.67 2.12a.217.217 0 0 1-.066-.011c.011.351-.044.692-.186 1.021a.206.206 0 0 1 .164-.011c.286.077.681.209.967.066.22-.099.395-.319.329-.571-.131-.538-.768-.527-1.208-.494zm-1.274-3.877c-.483-.033-.692.439-.802.845.253.088.495.231.736.429l.132.131c.007-.007.011-.014.011-.022.165-.241.417-.571.374-.9-.033-.231-.176-.472-.451-.483zm.868 5.634a5.655 5.655 0 0 1-.253-.077 2.63 2.63 0 0 1-.263.417 2.52 2.52 0 0 1-.527.495c.011.011.021.011.032.033.308.45 1.11 1.043 1.516.329a.783.783 0 0 0 .022-.791c-.044-.066-.362-.384-.527-.406zm.022-.45c-.011-.011-.011-.022-.011-.033 0 .011-.011.022-.022.033h.033zm-2.713 1.889v.033c.011.307.011.714.242.944.164.176.428.275.659.132.45-.307.241-.89.077-1.307v-.022a2.803 2.803 0 0 1-.978.22zm-2.647-4.185a1.023 1.023 0 0 1-.176-.033c-.516-.176-1.515-.154-1.417.659.044.275.198.527.462.626.088.033.505.033.67.022.073-.007.143-.018.208-.033 0-.417.077-.834.253-1.241zm-5.316 5.547c-.461.681 0 1.537.692 1.9.725.384 1.45.318 2.164-.055.527-1.175 1.581-2.373 2.603-2.812-.088-.384.011-.769.209-1.109-.539.417-1.318.747-1.791.055a1.002 1.002 0 0 1-.055-1.033c.143-.23.385-.428.648-.582-1.274.055-2.515-.154-3.789.154-.857.209-2.218.593-1.944 1.801.011.044.626 1.318.967 1.318.439-.219.527.11.296.363zm6.414-.517c.275.044.561-.032.736-.263.044-.066.308-.494.22-.615a2.066 2.066 0 0 1-.67-.209 3.045 3.045 0 0 1-.56-.384c-.297.472-.505 1.351.274 1.471zm7.074 1.077c-.604-.604-1.351-1.296-2.098-1.768a1.087 1.087 0 0 1-.813.362c-.483-.011-.846-.264-1.131-.615.197.637.219 1.483-.582 1.691-.132.868-.187 1.78.011 2.636.164.791.34 1.736 1.274 1.933 1.098.242 1.504-.296 1.779-.944.011-.143.187-.253.362-.165.714-.055 1.516-.231 1.714-1.021.209-.813.099-1.483-.516-2.109zm4.492-3.8c-.33-.648-1-1.165-1.758-.956a.14.14 0 0 1-.076 0c-1.176.363-2.505-.209-3.735-.483a.846.846 0 0 1 .319.769 1.004 1.004 0 0 1-.615.834c-.319.11-.637.088-.956.022.066.044.132.11.187.165.318.341.505.868.296 1.318.879.538 2.054 1.406 2.614 2.416.022.022.033.033.055.044 1.099 1.263 3.526-.747 2.032-2.065-.143-.131-.197-.461.165-.417.879-.121 2.01-.571 1.472-1.647zm-4.273-6.755h-.022c-.604 1.076-1.823 1.889-2.8 2.625.362-.066.757-.022 1.032.242.34.318.505.779.351 1.241a1.344 1.344 0 0 1-.527.648c1.011.11 1.933.604 2.966.659.692.033 1.658.033 2.174-.528.868-.922.517-2.339-.681-2.734-.208-.066-.384-.308-.011-.451.627-.241.55-1.076.099-1.471a1.794 1.794 0 0 0-1.01-.44c-.56-.044-1.022.198-1.571.209zm-5.975-2.537c.242 1.065-.066 2.35-.164 3.328.164.033.34.088.494.208.373.286.516.714.538 1.176.231-.637.714-1.329 1.494-1 .318.143.571.472.582.835a.807.807 0 0 1-.011.23c.89-.658 2.01-1.405 2.57-2.306.395-.637.582-1.472.143-2.153-.385-.582-1.318-1.219-1.966-.659-.264.22-.418.033-.407-.197.044-1.022-1.186-1.198-1.911-.857-.637.296-.988.835-1.362 1.395zm-5.283 2.471c.813.505 1.461 1.406 2.098 2.197.22-.22.56-.341.879-.253.307.066.593.286.846.527-.033-.077-.044-.165-.055-.23-.044-.462.12-1 .56-1.242.11-.054.22-.098.34-.131.099-.956.418-1.988.209-2.933-.121-.538-.329-1.197-.857-1.483-.67-.373-2.043-.329-2.207.648-.022.176-.22.231-.341.176-.714-.099-1.219.198-1.603.846-.506.868.12 1.867.131 1.878zm-3.866 5.371c.374.373 1.077.802 1.67.769 1.087-.264 2.394-.165 3.47-.143a1.048 1.048 0 0 1-.395-.593c-.11-.462.011-.934.406-1.219.385-.297.835-.308 1.275-.198-.451-.341-.901-.857-.725-1.395-.604-.747-1.143-1.735-2.01-2.23-.033 0-.352-.164-.462-.197-.768-.231-1.724-.143-2.185.626-.033.066-.549 1.34-.253 1.581.319.242.187.396-.022.462-.857.285-1.428 1.856-.769 2.537zm5.635 1.845c-.099.22-.099.494.11.659.45.319.922-.088 1.252-.384 0-.011.011-.011.011-.011a3.428 3.428 0 0 1-.44-.956.309.309 0 0 1-.131.132c-.286.121-.659.263-.802.56z"/>
        <path d="M759.912 129.787s-.011.011-.033.022c.011-.011.022-.011.033-.022a.902.902 0 0 1 .044-.022.863.863 0 0 1-.516-.154c-.604.538-1.219 1.109-1.626 1.79.56-.659 1.373-1.153 2.098-1.614zM764.745 122.538a.853.853 0 0 1 .527-.011 12.15 12.15 0 0 1 1.747-1.439c-.813.384-1.571.89-2.274 1.45zM764.459 123.383c.11-.131.231-.252.341-.373-.154.077-.253.209-.341.373zM767.842 127.996a.857.857 0 0 1-.406.308c.747-.121 1.494-.22 2.23-.209a11.142 11.142 0 0 0-1.824-.099zM763.197 131.302a1.516 1.516 0 0 1-.275-.571c-.198.308-.516.571-.901.604-.538.615-1.076 1.274-1.351 1.988.385-.681 1.033-1.274 1.659-1.812-.56 1.219-1.131 2.471-1.45 3.756.483-1.384 1.263-2.702 1.999-3.998-.198.923-.406 1.845-.461 2.779.186-.912.538-1.801.856-2.68-.022-.022-.054-.044-.076-.066zM760.791 123.284c.286.077.56.286.791.517a1.393 1.393 0 0 1-.044-.231c-.011-.187 0-.374.044-.549-.362-.824-.604-1.714-.56-2.603-.143.78-.066 1.614.132 2.405-.615-.956-1.176-1.999-1.34-3.053.066 1.12.571 2.251 1.12 3.295a54.354 54.354 0 0 0-1.142-1.11c.337.44.67.883.999 1.329zM758.605 125.393c-.615.11-1.219.242-1.812.44.692-.121 1.406-.165 2.109-.187a.962.962 0 0 1 .154-.143c.384-.285.834-.296 1.274-.186a2.866 2.866 0 0 1-.341-.297c-1.01-.439-2.076-.934-2.823-1.658.615.746 1.538 1.329 2.439 1.845-1.483-.143-3.174-.286-4.394-.956.923.615 2.186.912 3.394 1.142zM759.045 128.633c-.714.264-1.483.505-2.241.505.736.143 1.527.055 2.263-.076a1.13 1.13 0 0 1-.022-.429zM759.341 129.523a.643.643 0 0 1-.143-.154 1.602 1.602 0 0 1-.11-.219c-1.12.395-2.658.878-3.35 1.757.813-.824 2.483-1.098 3.603-1.384zM763.779 122.9c.088.209.132.428.143.67.142-.396.384-.813.735-1 .429-1.263.912-2.537 1.637-3.613-.923 1.153-1.56 2.603-2.153 3.976.11-.89.209-1.79.231-2.691-.143.89-.363 1.779-.593 2.658zM767.282 128.347c-.263.066-.527.044-.802-.011.074.052.136.107.187.165.11.11.198.242.264.396.801.274 1.592.604 2.284 1.054-.582-.494-1.263-.89-1.955-1.252 1.373.121 2.933.285 3.965.988-.988-.801-2.581-1.098-3.943-1.34zM771.082 123.625c-1.197-.011-2.46.549-3.559 1.032.11.209.143.451.099.703.879.022 1.725.033 2.603.132-.768-.22-1.427-.176-2.339-.604.977-.582 2.098-1.142 3.196-1.263zM767.238 124.262c.059.059.11.118.154.176.648-.626 1.318-1.263 2.087-1.735-.857.351-1.648.911-2.406 1.439.059.036.114.077.165.12zM764.767 129.929c.099.33.154.714.077 1.043.329.912.67 1.879.692 2.79.077-.911-.143-1.911-.374-2.855.802 1.219 1.604 2.482 2.109 3.811-.406-1.417-1.164-2.79-1.878-4.119.703.505 1.45 1.098 1.79 1.801-.22-.681-.791-1.318-1.362-1.867-.439-.033-.791-.274-1.054-.604z"/>
        <path fill-rule="evenodd" clip-rule="evenodd" d="M817.399 206.219c-.066-.286-.099-.637.022-.912.176-.417.461-.582.824-.692-.934-.527-1.56-1.9-.648-2.614-.363-.648-.055-1.307.538-1.757.373-.275 1.219-.461 1.779-.275-.362-.933.066-2.174 1.197-2.053.11-.648 1.099-.835 1.637-.879.725-.066 1.186.406 1.329 1.021.604-1.01 2.328-1.911 2.833-.549.615-.011 1.077.297 1.439.813.33.461.209 1.098.022 1.625.538-.219 1.461-.351 2.065.154.538.473.571 1 .286 1.604.856.549.757 1.856-.077 2.295.439.154.834.604.933 1.022.176.802-.11 1.274-.801 1.537.417 1.263-.912 2.219-2.054 1.791.164.384.252.747.055 1.208-.088.23-.297.351-.506.45-.527.286-.549.022-1.175.615-.384.374-1.076.615-1.614.385-.352-.154-.517-.407-.648-.714-.286.483-.659.933-1.285.999-.231.022-.462.044-.67-.077-.407-.252-.572-.395-1.077-.406-1.065-.033-1.581-1.043-1.318-1.944-.428.231-.966.351-1.395.187-.779-.297-.758-.758-.922-1.472-.121-.549-.659-.813-.769-1.362zm7.106 2.438a5.366 5.366 0 0 1 .022-1.515.612.612 0 0 1-.34-.209.859.859 0 0 1-.187-.374c-.143.231-.385.418-.67.396a.775.775 0 0 1-.604-.319c-.56.253-1.088.923-1.384 1.45-.176.286-.395.703-.308 1.065.132.517.912 1.055 1.373.594.132-.132.22 0 .253.054.417.769 2.043.605 1.977-.395a4.293 4.293 0 0 1-.132-.747zm-1.801-3.954c.187.604.747 1.142 1.417 1.132.988-.022 2.163-1.143 1.351-2.109-.363-.429-1.11-.802-1.582-.286-.362.396-.395 1.197.22 1.384.999.308.725-.89.318-.758-.176.044-.23-.23-.055-.285.582-.176.934.681.626 1.109-.538.758-1.57 0-1.658-.714-.143-1.219 1.252-1.483 2.054-.934.285.187.461.451.538.736-.033-1.164-1.516-2.284-2.57-1.263-.505.484-.879 1.263-.659 1.988zm-.077-1.779a.298.298 0 0 1 .11.121c.11-.187.252-.352.417-.505-.132-.165-.406-.473-.604-.506-.154-.022-.329.022-.384.187-.121.34.219.56.461.703zm.879-.758a.53.53 0 0 0 .055.088 1.9 1.9 0 0 1 .801-.253c-.022-.351-.208-.834-.659-.648a.5.5 0 0 0-.307.396c0 .055.055.329.11.417zm3.163.516c-.121-.131-.297-.208-.472-.164-.044 0-.363.164-.451.274.176.231.297.494.374.769.011-.011.022-.011.033-.022.34-.088.867-.461.516-.857zm-.429 1.373a.086.086 0 0 1-.043-.011c0 .231-.033.451-.121.659.022-.011.066-.022.099-.011.186.055.439.143.626.044.142-.066.263-.198.219-.362-.099-.352-.494-.341-.78-.319zm-.823-2.504c-.319-.022-.44.286-.517.549.154.055.319.143.473.275.033.022.055.055.088.077.109-.165.274-.374.241-.582-.022-.154-.11-.308-.285-.319zm.56 3.635a2.157 2.157 0 0 1-.165-.054c-.055.098-.11.186-.176.274a1.509 1.509 0 0 1-.329.319c0 .011.011.011.022.022.187.285.714.67.977.208a.49.49 0 0 0 0-.505c-.022-.044-.23-.253-.329-.264zm.011-.296s0-.011-.011-.022c0 .011 0 .022-.011.022h.022zm-1.747 1.219v.022c.011.198.011.461.154.615.11.11.275.176.418.077.296-.198.164-.571.055-.835v-.011a2.06 2.06 0 0 1-.627.132zm-1.713-2.691a4.278 4.278 0 0 1-.11-.022c-.329-.11-.977-.099-.911.418.022.175.131.34.296.406.055.022.33.022.44.011a.313.313 0 0 0 .12-.022c.011-.264.055-.538.165-.791zm-3.427 3.57c-.296.439 0 .988.451 1.23.472.242.933.209 1.395-.033.34-.758 1.021-1.538 1.68-1.823-.055-.242.011-.484.132-.703-.341.263-.846.472-1.153.022a.62.62 0 0 1-.033-.659c.087-.154.241-.275.417-.374-.824.033-1.626-.099-2.438.099-.561.132-1.428.385-1.263 1.153.011.033.406.857.626.857.285-.143.34.066.186.231zm4.141-.33a.48.48 0 0 0 .472-.164c.033-.044.198-.319.143-.407a1.555 1.555 0 0 1-.439-.132 2.913 2.913 0 0 1-.352-.241c-.186.296-.329.867.176.944zm4.558.692c-.395-.395-.868-.835-1.351-1.131a.735.735 0 0 1-.527.231c-.308-.011-.538-.176-.725-.407.121.418.143.967-.373 1.088-.088.56-.121 1.153 0 1.713.109.505.23 1.109.823 1.241.703.154.967-.198 1.154-.615 0-.088.109-.154.23-.099.462-.044.978-.154 1.11-.659.131-.527.054-.955-.341-1.362zm2.889-2.449c-.209-.417-.637-.747-1.121-.615h-.055c-.757.231-1.614-.132-2.405-.308.132.11.22.264.198.495a.608.608 0 0 1-.396.527 1.03 1.03 0 0 1-.604.022c.033.033.077.066.11.11.209.208.33.549.198.845.56.352 1.318.901 1.68 1.56l.033.033c.714.802 2.274-.494 1.318-1.34-.099-.077-.132-.297.099-.264.571-.077 1.296-.373.945-1.065zm-2.746-4.349c-.007 0-.015-.004-.022-.011-.385.703-1.164 1.219-1.801 1.702.23-.044.483-.011.67.154.219.208.318.505.219.802a.843.843 0 0 1-.329.417c.648.066 1.241.384 1.911.417.439.022 1.065.022 1.395-.329.56-.604.329-1.516-.44-1.769-.131-.043-.241-.197-.011-.285.407-.165.363-.692.066-.956a1.081 1.081 0 0 0-.648-.274c-.362-.033-.659.121-1.01.132zm-3.855-1.637c.153.681-.044 1.516-.099 2.142.11.022.22.055.307.132.253.186.341.461.352.757.154-.406.461-.856.966-.648a.65.65 0 0 1 .374.55.319.319 0 0 1-.011.142c.571-.428 1.307-.9 1.658-1.482.253-.418.374-.945.099-1.384-.252-.385-.846-.791-1.274-.429-.165.143-.274.022-.263-.131.032-.659-.758-.769-1.231-.55-.406.187-.637.539-.878.901zm-3.405 1.593c.527.329.944.9 1.351 1.416a.614.614 0 0 1 .571-.164c.198.044.384.186.538.34a.579.579 0 0 1-.022-.154c-.033-.296.066-.648.352-.79a.762.762 0 0 1 .219-.088c.066-.615.275-1.285.132-1.9-.066-.341-.209-.758-.549-.945-.428-.242-1.318-.22-1.417.406-.022.121-.143.154-.231.121-.45-.066-.779.121-1.021.538-.329.572.066 1.209.077 1.22zm-2.482 3.459c.241.242.681.517 1.076.495.692-.165 1.538-.11 2.23-.099a.64.64 0 0 1-.253-.374c-.066-.296.011-.604.253-.79.252-.187.549-.198.834-.132-.296-.209-.582-.538-.472-.89-.384-.483-.736-1.12-1.296-1.439-.022 0-.231-.11-.296-.132-.495-.142-1.121-.087-1.406.407-.022.044-.363.868-.165 1.021.198.154.121.253-.022.297-.549.187-.912 1.197-.483 1.636zm3.624 1.187c-.066.142-.066.329.077.428.286.209.593-.055.802-.253l.011-.011a1.785 1.785 0 0 1-.286-.604.196.196 0 0 1-.088.077c-.175.088-.428.176-.516.363z"/>
        <path d="M822.066 205.955s-.011.011-.022.011c.011 0 .011 0 .022-.011a.03.03 0 0 1 .022-.011.637.637 0 0 1-.33-.099c-.384.34-.79.714-1.043 1.153.362-.428.879-.747 1.351-1.043zM825.186 201.287a.479.479 0 0 1 .329-.011c.352-.34.725-.659 1.131-.933a7.883 7.883 0 0 0-1.46.944zM824.999 201.825l.219-.241a.574.574 0 0 0-.219.241zM827.173 204.801a.545.545 0 0 1-.252.198c.472-.077.955-.143 1.428-.132a8.338 8.338 0 0 0-1.176-.066zM824.186 206.932a.736.736 0 0 1-.176-.373c-.132.208-.341.373-.582.395-.352.395-.692.824-.879 1.285.253-.439.67-.824 1.076-1.175-.362.791-.724 1.592-.933 2.427.307-.9.813-1.746 1.285-2.581-.132.593-.264 1.197-.297 1.79.121-.582.341-1.153.549-1.724-.01-.011-.032-.022-.043-.044zM822.626 201.759c.187.055.362.187.516.341a.551.551 0 0 1-.022-.154.774.774 0 0 1 .022-.352c-.231-.527-.384-1.098-.362-1.68a3.695 3.695 0 0 0 .088 1.549c-.396-.615-.758-1.285-.868-1.966.044.724.373 1.449.725 2.13-.242-.241-.495-.483-.736-.725l.637.857zM821.232 203.122c-.407.077-.791.164-1.176.285.44-.077.901-.11 1.362-.121.03-.029.062-.058.099-.087.242-.187.538-.198.824-.132-.077-.055-.154-.121-.231-.187-.648-.275-1.329-.593-1.812-1.065.395.483.988.856 1.571 1.186-.956-.088-2.043-.187-2.834-.615.593.395 1.406.593 2.197.736zM821.506 205.208c-.461.176-.955.33-1.45.33.484.087.989.032 1.461-.055a.685.685 0 0 1-.011-.275zM821.693 205.79c-.033-.033-.055-.066-.088-.11a.518.518 0 0 1-.066-.143c-.725.264-1.713.572-2.164 1.143.528-.538 1.604-.703 2.318-.89zM824.56 201.517c.055.132.088.275.088.428.098-.252.252-.527.472-.637.285-.812.593-1.636 1.054-2.328-.593.736-.999 1.669-1.384 2.559a18.47 18.47 0 0 0 .154-1.735 19.15 19.15 0 0 1-.384 1.713zM826.822 205.032a1.164 1.164 0 0 1-.516-.011c.043.029.08.066.109.11a.702.702 0 0 1 .176.252c.516.176 1.022.385 1.472.681a6.021 6.021 0 0 0-1.263-.801c.889.066 1.889.175 2.559.626-.637-.517-1.659-.703-2.537-.857zM829.26 201.978c-.769 0-1.582.363-2.285.67a.71.71 0 0 1 .055.451c.571.022 1.12.022 1.681.088-.495-.143-.923-.11-1.505-.396.637-.362 1.351-.736 2.054-.813zM826.789 202.396c.037.037.07.073.099.11.417-.395.857-.813 1.34-1.12-.549.23-1.054.593-1.538.933.03.022.063.048.099.077zM825.196 206.043c.066.219.099.461.044.67.22.593.428 1.219.45 1.812.055-.593-.099-1.241-.241-1.845.516.79 1.032 1.603 1.362 2.449-.264-.912-.758-1.79-1.22-2.647.462.318.945.703 1.165 1.153-.143-.439-.517-.846-.879-1.197a.937.937 0 0 1-.681-.395zM751.466 116.299a1.701 1.701 0 0 0-.889 2.241 1.7 1.7 0 0 0 2.24.889 1.704 1.704 0 1 0-1.351-3.13zM750.027 112.993a1.307 1.307 0 0 0-.681 1.714 1.303 1.303 0 0 0 1.714.67 1.298 1.298 0 1 0-1.033-2.384zM749.61 110.006a.998.998 0 0 0-.527 1.318c.219.505.812.735 1.318.527a1.02 1.02 0 0 0 .527-1.329 1.003 1.003 0 0 0-1.318-.516zM750.236 107.436a.706.706 0 0 0-.363.923.697.697 0 0 0 .923.362c.362-.154.516-.56.362-.923a.7.7 0 0 0-.922-.362zM751.137 105.492a.538.538 0 0 0-.275.692.546.546 0 0 0 .703.274.536.536 0 0 0 .275-.691c-.121-.275-.428-.396-.703-.275zM751.972 103.383a.53.53 0 0 0-.275.692.546.546 0 0 0 .703.275c.264-.121.385-.428.264-.692a.52.52 0 0 0-.692-.275zM837.389 204.319a1.698 1.698 0 0 1-1.165 2.109 1.708 1.708 0 0 1-2.108-1.176 1.703 1.703 0 0 1 1.175-2.097 1.69 1.69 0 0 1 2.098 1.164z"/>
    </g>
    <defs>
        <clipPath id="r5ac3zhgua">
            <path fill="#fff" d="M0 0h836v495H0z"/>
        </clipPath>
        <clipPath id="44xx22stab">
            <path fill="#fff" transform="translate(749)" d="M0 0h87v211H0z"/>
        </clipPath>
    </defs>
</svg>
