<svg width="20" height="20" viewBox="0 0 20 20" fill="none" xmlns="http://www.w3.org/2000/svg">
    <g clip-path="url(#hp56a0wxja)">
        <path fill-rule="evenodd" clip-rule="evenodd" d="M9.99.91a9.011 9.011 0 0 1 6.4 2.64c1.731 1.725 2.684 3.988 2.683 6.373A8.91 8.91 0 0 1 16.4 16.29 9.058 9.058 0 0 1 9.99 18.93h-.004a9.099 9.099 0 0 1-4.081-.97L.934 19.091l1.081-4.915C1.291 12.838.91 11.373.91 9.92v-.004a8.92 8.92 0 0 1 2.674-6.369A9.057 9.057 0 0 1 9.991.91zm-.002 16.6h.003c4.224 0 7.662-3.403 7.663-7.588.001-2.004-.804-3.91-2.266-5.367A7.602 7.602 0 0 0 9.99 2.328c-4.223 0-7.66 3.408-7.663 7.59 0 1.293.364 2.604 1.052 3.79l.139.24L2.8 17.21l3.306-.752.235.128a7.67 7.67 0 0 0 3.646.924zM7.122 5.948h.398c.148.006.312.018.467.363.107.237.287.682.429 1.034.102.254.185.459.207.502.051.104.086.225.017.363l-.039.08c-.046.095-.081.17-.164.265-.104.121-.23.248-.323.34-.104.104-.213.216-.091.423.12.208.55.908 1.167 1.456.667.593 1.242.845 1.531.972.055.024.1.044.133.06.208.104.329.086.45-.052.121-.138.53-.617.668-.824.138-.207.277-.173.467-.104.181.066 1.112.53 1.381.665l.036.017.113.056c.145.07.243.116.285.186.052.086.052.5-.121.984s-1.022.95-1.403.984l-.11.012c-.352.042-.796.094-2.382-.53-1.952-.767-3.239-2.668-3.505-3.06l-.044-.065-.003-.003c-.112-.15-.845-1.127-.845-2.138 0-.954.47-1.454.686-1.684a5.31 5.31 0 0 0 .04-.043.764.764 0 0 1 .555-.26z" fill="#000"/>
    </g>
    <defs>
        <clipPath id="hp56a0wxja">
            <path fill="#fff" d="M0 0h20v20H0z"/>
        </clipPath>
    </defs>
</svg>
