<svg width="20" height="20" viewBox="0 0 20 20" fill="none" xmlns="http://www.w3.org/2000/svg">
    <path d="m8.711 17.708 1.29 1.18 1.288-1.18A101.498 101.498 0 0 0 15 14.143c.978-.999 1.756-1.896 2.334-2.69.577-.795.981-1.526 1.21-2.192a6.23 6.23 0 0 0 .345-2.043c0-1.423-.467-2.612-1.4-3.565-.933-.954-2.096-1.43-3.489-1.43-.77 0-1.504.166-2.2.499A5.285 5.285 0 0 0 10 4.13a5.285 5.285 0 0 0-1.8-1.408 5.037 5.037 0 0 0-2.2-.5c-1.392 0-2.555.477-3.489 1.43-.933.954-1.4 2.143-1.4 3.566 0 .696.115 1.377.345 2.043.23.666.633 1.397 1.21 2.191.579.795 1.356 1.692 2.334 2.691.978 1 2.215 2.188 3.711 3.565z" fill="#F14949"/>
</svg>
