<svg width="20" height="20" viewBox="0 0 20 20" fill="none" xmlns="http://www.w3.org/2000/svg">
    <path d="m10 18.889-1.289-1.18a101.483 101.483 0 0 1-3.71-3.566c-.979-.999-1.756-1.896-2.334-2.69-.578-.795-.982-1.526-1.211-2.192a6.228 6.228 0 0 1-.345-2.043c0-1.423.467-2.612 1.4-3.565.934-.954 2.097-1.43 3.49-1.43.77 0 1.503.166 2.2.499A5.285 5.285 0 0 1 10 4.13a5.285 5.285 0 0 1 1.8-1.408c.695-.333 1.429-.5 2.2-.5 1.392 0 2.555.477 3.488 1.43.933.954 1.4 2.143 1.4 3.566a6.23 6.23 0 0 1-.344 2.043c-.23.666-.634 1.397-1.211 2.191-.578.795-1.356 1.692-2.334 2.691-.978 1-2.215 2.188-3.71 3.565L10 18.888zm0-2.453a98.002 98.002 0 0 0 3.511-3.349c.919-.93 1.645-1.74 2.178-2.43.533-.688.904-1.301 1.111-1.839a4.421 4.421 0 0 0 .311-1.6c0-.909-.296-1.666-.889-2.271-.592-.606-1.333-.908-2.222-.908-.696 0-1.34.2-1.933.601-.593.402-1 .912-1.222 1.533h-1.69c-.221-.62-.629-1.131-1.221-1.533A3.38 3.38 0 0 0 6 4.04c-.889 0-1.63.302-2.222.908-.593.605-.889 1.362-.889 2.27 0 .53.104 1.064.311 1.601.208.538.578 1.15 1.111 1.84.534.688 1.26 1.498 2.178 2.43A98.018 98.018 0 0 0 10 16.435z" fill="#212121"/>
</svg>
