<svg width="24" height="24" viewBox="0 0 24 24" fill="none" xmlns="http://www.w3.org/2000/svg">
    <path fill-rule="evenodd" clip-rule="evenodd" d="M3.251 4.616C4.306 3.54 5.614 3 7.2 3a5.71 5.71 0 0 1 2.496.567 6.01 6.01 0 0 1 2.048 1.602l.256.308.256-.308a6.01 6.01 0 0 1 2.048-1.602A5.71 5.71 0 0 1 16.8 3c1.586 0 2.894.54 3.948 1.616 1.055 1.078 1.585 2.418 1.585 4.045a7.14 7.14 0 0 1-.395 2.344c-.261.758-.727 1.605-1.408 2.542-.68.936-1.602 2-2.768 3.192-1.168 1.193-2.649 2.615-4.441 4.265L12 22.215l-1.322-1.21c-1.792-1.65-3.272-3.072-4.44-4.265-1.166-1.192-2.088-2.256-2.769-3.192-.68-.937-1.146-1.784-1.407-2.542a7.14 7.14 0 0 1-.395-2.344c0-1.627.53-2.967 1.584-4.045zM7.2 4.513c-1.152 0-2.128.396-2.905 1.19-.777.794-1.162 1.788-1.162 2.958 0 .68.133 1.361.396 2.041.265.687.73 1.45 1.38 2.291.652.841 1.533 1.823 2.64 2.946 1.108 1.122 2.517 2.466 4.226 4.03l.225.207.225-.206c1.709-1.565 3.118-2.909 4.226-4.031 1.107-1.123 1.988-2.105 2.64-2.946.65-.84 1.115-1.604 1.38-2.29.262-.68.395-1.362.395-2.042 0-1.17-.384-2.164-1.161-2.958s-1.754-1.19-2.905-1.19c-.904 0-1.742.262-2.507.78-.694.47-1.2 1.064-1.507 1.781h-1.572c-.307-.717-.813-1.311-1.507-1.781a4.389 4.389 0 0 0-2.507-.78z" fill="#1C1B1F"/>
</svg>
