<svg width="28" height="28" viewBox="0 0 28 28" fill="none" xmlns="http://www.w3.org/2000/svg">
    <rect opacity=".86" width="28" height="28" rx="14" fill="#fff"/>
    <path d="m14 23-1.16-1.063A91.267 91.267 0 0 1 9.5 18.73c-.88-.9-1.58-1.706-2.1-2.422-.52-.715-.883-1.372-1.09-1.972a5.605 5.605 0 0 1-.31-1.84c0-1.28.42-2.35 1.26-3.208C8.1 8.43 9.147 8 10.4 8c.693 0 1.353.15 1.98.45.627.3 1.167.722 1.62 1.267a4.756 4.756 0 0 1 1.62-1.267c.627-.3 1.287-.45 1.98-.45 1.253 0 2.3.43 3.14 1.287.84.859 1.26 1.928 1.26 3.209 0 .627-.103 1.24-.31 1.84-.207.599-.57 1.256-1.09 1.971-.52.716-1.22 1.523-2.1 2.422-.88.9-1.993 1.969-3.34 3.208L14 23z" fill="#E0486C"/>
</svg>
